<svg width="94" height="103" viewBox="0 0 94 103" fill="none" xmlns="http://www.w3.org/2000/svg">
<path d="M46.9999 16.1418C40.8027 16.1418 34.7447 17.9795 29.592 21.4225C24.4392 24.8654 20.4232 29.759 18.0516 35.4844C15.6801 41.2099 15.0596 47.5099 16.2686 53.588C17.4776 59.6661 20.4618 65.2491 24.8438 69.6312C29.2259 74.0132 34.809 76.9974 40.887 78.2065C46.9651 79.4155 53.2652 78.7949 58.9906 76.4234C64.716 74.0519 69.6096 70.0358 73.0526 64.883C76.4955 59.7303 78.3332 53.6723 78.3332 47.4752C78.3332 39.1651 75.032 31.1953 69.1559 25.3192C63.2797 19.443 55.31 16.1418 46.9999 16.1418ZM46.9999 73.5863C41.8356 73.5863 36.7872 72.0549 32.4933 69.1858C28.1993 66.3166 24.8526 62.2387 22.8763 57.4675C20.9 52.6963 20.383 47.4462 21.3905 42.3812C22.398 37.3161 24.8848 32.6635 28.5365 29.0118C32.1882 25.3601 36.8408 22.8733 41.9058 21.8658C46.9709 20.8583 52.221 21.3754 56.9921 23.3517C61.7633 25.3279 65.8413 28.6747 68.7105 32.9686C71.5796 37.2626 73.111 42.3109 73.111 47.4752C73.111 50.9041 72.4356 54.2995 71.1234 57.4675C69.8112 60.6354 67.8878 63.5139 65.4632 65.9385C63.0386 68.3632 60.1601 70.2865 56.9921 71.5987C53.8242 72.9109 50.4288 73.5863 46.9999 73.5863Z" fill="url(#paint0_linear_120_7905)"/>
<path d="M42.6658 62.4632L29.6103 49.4076C29.1825 48.9081 28.959 48.2656 28.9844 47.6085C29.0098 46.9513 29.2822 46.3279 29.7472 45.8629C30.2122 45.3979 30.8356 45.1255 31.4928 45.1001C32.1499 45.0747 32.7924 45.2982 33.2919 45.726L42.6658 55.0999L60.3692 37.3965C60.8687 36.9688 61.5112 36.7452 62.1684 36.7706C62.8255 36.796 63.4489 37.0684 63.9139 37.5335C64.3789 37.9985 64.6514 38.6219 64.6767 39.279C64.7021 39.9362 64.4786 40.5787 64.0508 41.0782L42.6658 62.4632Z" fill="url(#paint1_linear_120_7905)"/>
<path opacity="0.08" d="M92.7751 86.4749C92.7751 89.7396 72.5226 92.3862 47.5399 92.3862C22.5572 92.3862 2.30469 89.7396 2.30469 86.4749C2.30469 83.2102 22.5572 82.8086 47.5399 82.8086C72.5226 82.8086 92.7751 83.2102 92.7751 86.4749Z" fill="#077E86"/>
<defs>
<linearGradient id="paint0_linear_120_7905" x1="46.9998" y1="16.1418" x2="46.9998" y2="78.8085" gradientUnits="userSpaceOnUse">
<stop stop-color="#80D8DE"/>
<stop offset="1" stop-color="#077E86"/>
</linearGradient>
<linearGradient id="paint1_linear_120_7905" x1="46.8306" y1="36.7687" x2="46.8306" y2="62.4632" gradientUnits="userSpaceOnUse">
<stop stop-color="#80D8DE"/>
<stop offset="1" stop-color="#077E86"/>
</linearGradient>
</defs>
</svg>
