<svg width="20" height="20" viewBox="0 0 20 20" fill="none" xmlns="http://www.w3.org/2000/svg">
<g id="Group 3772">
<path id="Vector (Stroke)" fill-rule="evenodd" clip-rule="evenodd" d="M10 18C14.4183 18 18 14.4183 18 10C18 5.58172 14.4183 2 10 2C5.58172 2 2 5.58172 2 10C2 14.4183 5.58172 18 10 18ZM20 10C20 15.5228 15.5228 20 10 20C4.47715 20 0 15.5228 0 10C0 4.47715 4.47715 0 10 0C15.5228 0 20 4.47715 20 10Z" fill="#FFD600"/>
<path id="Vector (Stroke)_2" fill-rule="evenodd" clip-rule="evenodd" d="M10 14.5996C9.44772 14.5996 9 14.1519 9 13.5996V9.99961C9 9.44732 9.44772 8.99961 10 8.99961C10.5523 8.99961 11 9.44732 11 9.99961V13.5996C11 14.1519 10.5523 14.5996 10 14.5996Z" fill="#FFD600"/>
<path id="Vector (Stroke)_3" fill-rule="evenodd" clip-rule="evenodd" d="M11 6.40039C11 6.95268 10.5523 7.40039 10 7.40039H9.99C9.43772 7.40039 8.99 6.95268 8.99 6.40039C8.99 5.84811 9.43772 5.40039 9.99 5.40039H10C10.5523 5.40039 11 5.84811 11 6.40039Z" fill="#FFD600"/>
</g>
</svg>
