<svg width="24" height="24" viewBox="0 0 24 24" fill="none" xmlns="http://www.w3.org/2000/svg">
<path fill-rule="evenodd" clip-rule="evenodd" d="M12 20C16.4183 20 20 16.4183 20 12C20 7.58172 16.4183 4 12 4C7.58172 4 4 7.58172 4 12C4 16.4183 7.58172 20 12 20ZM22 12C22 17.5228 17.5228 22 12 22C6.47715 22 2 17.5228 2 12C2 6.47715 6.47715 2 12 2C17.5228 2 22 6.47715 22 12Z" fill="#888888"/>
<path fill-rule="evenodd" clip-rule="evenodd" d="M12 16.5996C11.4477 16.5996 11 16.1519 11 15.5996V11.9996C11 11.4473 11.4477 10.9996 12 10.9996C12.5523 10.9996 13 11.4473 13 11.9996V15.5996C13 16.1519 12.5523 16.5996 12 16.5996Z" fill="#888888"/>
<path fill-rule="evenodd" clip-rule="evenodd" d="M13 8.40039C13 8.95268 12.5523 9.40039 12 9.40039H11.99C11.4377 9.40039 10.99 8.95268 10.99 8.40039C10.99 7.84811 11.4377 7.40039 11.99 7.40039H12C12.5523 7.40039 13 7.84811 13 8.40039Z" fill="#888888"/>
</svg>
