<svg width="25" height="24" viewBox="0 0 25 24" fill="none" xmlns="http://www.w3.org/2000/svg">
<path d="M5.51044 20.0156H19.5104C19.8368 20.0134 20.1575 19.9313 20.4448 19.7765C20.7321 19.6218 20.9772 19.3991 21.1587 19.1279C21.3401 18.8567 21.4525 18.5452 21.4859 18.2206C21.5193 17.896 21.4728 17.5681 21.3504 17.2656L14.2504 5.01564C14.0775 4.70304 13.824 4.44247 13.5162 4.26103C13.2084 4.07958 12.8577 3.98389 12.5004 3.98389C12.1432 3.98389 11.7924 4.07958 11.4847 4.26103C11.1769 4.44247 10.9234 4.70304 10.7504 5.01564L3.65044 17.2656C3.53039 17.5612 3.48278 17.8812 3.51159 18.1989C3.54041 18.5167 3.64482 18.8229 3.8161 19.092C3.98737 19.3612 4.22055 19.5855 4.49617 19.7461C4.77179 19.9068 5.08184 19.9992 5.40044 20.0156" fill="#F79421"/>
<path d="M5.51044 20.0156H19.5104C19.8368 20.0134 20.1575 19.9313 20.4448 19.7765C20.7321 19.6218 20.9772 19.3991 21.1587 19.1279C21.3401 18.8567 21.4525 18.5452 21.4859 18.2206C21.5193 17.896 21.4728 17.5681 21.3504 17.2656L14.2504 5.01564C14.0775 4.70304 13.824 4.44247 13.5162 4.26103C13.2084 4.07958 12.8577 3.98389 12.5004 3.98389C12.1432 3.98389 11.7924 4.07958 11.4847 4.26103C11.1769 4.44247 10.9234 4.70304 10.7504 5.01564L3.65044 17.2656C3.53039 17.5612 3.48278 17.8812 3.51159 18.1989C3.54041 18.5167 3.64482 18.8229 3.8161 19.092C3.98737 19.3612 4.22055 19.5855 4.49617 19.7461C4.77179 19.9068 5.08184 19.9992 5.40044 20.0156" stroke="#F79421" stroke-width="2" stroke-linecap="round" stroke-linejoin="round"/>
<path d="M12.5107 10.0156V12.0156M12.5107 16.0156V16.0256" stroke="white" stroke-width="2" stroke-linecap="round" stroke-linejoin="round"/>
</svg>
