<svg width="12" height="10" viewBox="0 0 12 10" fill="none" xmlns="http://www.w3.org/2000/svg">
<path fill-rule="evenodd" clip-rule="evenodd" d="M0.827085 0.244078C1.15252 -0.0813592 1.68016 -0.0813592 2.0056 0.244078L6.17226 4.41074C6.4977 4.73618 6.4977 5.26382 6.17226 5.58926L2.0056 9.75592C1.68016 10.0814 1.15252 10.0814 0.827085 9.75592C0.501649 9.43049 0.501649 8.90285 0.827085 8.57741L4.4045 5L0.827085 1.42259C0.501649 1.09715 0.501649 0.569515 0.827085 0.244078ZM5.82709 0.244078C6.15252 -0.0813592 6.68016 -0.0813592 7.0056 0.244078L11.1723 4.41074C11.4977 4.73618 11.4977 5.26382 11.1723 5.58926L7.0056 9.75592C6.68016 10.0814 6.15252 10.0814 5.82709 9.75592C5.50165 9.43049 5.50165 8.90285 5.82709 8.57741L9.4045 5L5.82709 1.42259C5.50165 1.09715 5.50165 0.569515 5.82709 0.244078Z" fill="black"/>
</svg>
