<svg width="16" height="17" viewBox="0 0 16 17" fill="none" xmlns="http://www.w3.org/2000/svg">
<path d="M14 5.52441V14.5244H5V5.52441H14ZM14 4.52441H5C4.73478 4.52441 4.48043 4.62977 4.29289 4.81731C4.10536 5.00484 4 5.2592 4 5.52441V14.5244C4 14.7896 4.10536 15.044 4.29289 15.2315C4.48043 15.4191 4.73478 15.5244 5 15.5244H14C14.2652 15.5244 14.5196 15.4191 14.7071 15.2315C14.8946 15.044 15 14.7896 15 14.5244V5.52441C15 5.2592 14.8946 5.00484 14.7071 4.81731C14.5196 4.62977 14.2652 4.52441 14 4.52441Z" fill="#077E86"/>
<path d="M2 9.52441H1V2.52441C1 2.2592 1.10536 2.00484 1.29289 1.81731C1.48043 1.62977 1.73478 1.52441 2 1.52441H9V2.52441H2V9.52441Z" fill="#077E86"/>
</svg>
