<svg width="20" height="20" viewBox="0 0 20 20" fill="none" xmlns="http://www.w3.org/2000/svg">
<path fill-rule="evenodd" clip-rule="evenodd" d="M3.6006 9.9999C3.6006 6.46534 6.46597 3.59999 10.0006 3.59999C13.5352 3.59999 16.4006 6.46534 16.4006 9.9999C16.4006 13.5345 13.5352 16.3998 10.0006 16.3998C6.46597 16.3998 3.6006 13.5345 3.6006 9.9999ZM10.0006 2C5.58234 2 2.00061 5.58167 2.00061 9.9999C2.00061 14.4181 5.58234 17.9998 10.0006 17.9998C14.4189 17.9998 18.0006 14.4181 18.0006 9.9999C18.0006 5.58167 14.4189 2 10.0006 2ZM12.9663 8.96562C13.2787 8.6532 13.2787 8.14667 12.9663 7.83425C12.6539 7.52183 12.1473 7.52183 11.8349 7.83424L9.2006 10.4685L8.16628 9.43422C7.85386 9.12181 7.34733 9.12181 7.03492 9.43423C6.7225 9.74665 6.72251 10.2532 7.03493 10.5656L8.63493 12.1656C8.94734 12.478 9.45387 12.478 9.76628 12.1656L12.9663 8.96562Z" fill="#077E86"/>
</svg>
