<svg width="32" height="32" viewBox="0 0 32 32" fill="none" xmlns="http://www.w3.org/2000/svg">
<path d="M18.4396 25.3334C18.2404 25.3341 18.0436 25.2901 17.8636 25.2047C17.6836 25.1193 17.5251 24.9947 17.3996 24.84L10.9596 16.84C10.7635 16.6015 10.6562 16.3022 10.6562 15.9934C10.6562 15.6845 10.7635 15.3853 10.9596 15.1467L17.6262 7.14671C17.8526 6.87442 18.1778 6.70319 18.5303 6.67068C18.8829 6.63817 19.2339 6.74706 19.5062 6.97338C19.7785 7.19969 19.9498 7.52491 19.9823 7.87748C20.0148 8.23005 19.9059 8.58109 19.6796 8.85338L13.7196 16L19.4796 23.1467C19.6426 23.3424 19.7462 23.5807 19.778 23.8335C19.8099 24.0862 19.7686 24.3428 19.6592 24.5728C19.5498 24.8028 19.3768 24.9967 19.1607 25.1315C18.9445 25.2663 18.6943 25.3364 18.4396 25.3334Z" fill="#888888"/>
</svg>
