<svg width="20" height="20" viewBox="0 0 20 20" fill="none" xmlns="http://www.w3.org/2000/svg">
<path fill-rule="evenodd" clip-rule="evenodd" d="M10 16.4C13.5346 16.4 16.4 13.5346 16.4 9.99992C16.4 6.46526 13.5346 3.59985 10 3.59985C6.46538 3.59985 3.6 6.46526 3.6 9.99992C3.6 13.5346 6.46538 16.4 10 16.4ZM18 9.99992C18 14.4182 14.4183 18 10 18C5.58172 18 2 14.4182 2 9.99992C2 5.5816 5.58172 1.99984 10 1.99984C14.4183 1.99984 18 5.5816 18 9.99992Z" fill="#383838"/>
<path fill-rule="evenodd" clip-rule="evenodd" d="M9.9998 13.6797C9.55798 13.6797 9.1998 13.3215 9.1998 12.8797V9.99965C9.1998 9.55782 9.55798 9.19964 9.9998 9.19964C10.4416 9.19964 10.7998 9.55782 10.7998 9.99965V12.8797C10.7998 13.3215 10.4416 13.6797 9.9998 13.6797Z" fill="#383838"/>
<path fill-rule="evenodd" clip-rule="evenodd" d="M10.7998 7.11991C10.7998 7.56175 10.4416 7.91992 9.9998 7.91992H9.9918C9.54998 7.91992 9.1918 7.56175 9.1918 7.11991C9.1918 6.67808 9.54998 6.31991 9.9918 6.31991H9.9998C10.4416 6.31991 10.7998 6.67808 10.7998 7.11991Z" fill="#383838"/>
</svg>
