<svg width="25" height="24" viewBox="0 0 25 24" fill="none" xmlns="http://www.w3.org/2000/svg">
<path d="M11.3 11C13.5091 11 15.3 9.20914 15.3 7C15.3 4.79086 13.5091 3 11.3 3C9.09085 3 7.29999 4.79086 7.29999 7C7.29999 9.20914 9.09085 11 11.3 11Z" stroke="white" stroke-width="2" stroke-linecap="round" stroke-linejoin="round"/>
<path d="M5.29999 21V19C5.29999 17.9391 5.72141 16.9217 6.47156 16.1716C7.22171 15.4214 8.23912 15 9.29999 15H10.3" stroke="white" stroke-width="2" stroke-linecap="round" stroke-linejoin="round"/>
<path d="M13.175 21.5625H20.175M13.175 16.1181V16.5069C13.175 16.8164 13.2979 17.1131 13.5167 17.3319C13.7355 17.5507 14.0322 17.6736 14.3417 17.6736C14.6511 17.6736 14.9478 17.5507 15.1666 17.3319C15.3854 17.1131 15.5083 16.8164 15.5083 16.5069M13.175 16.1181H15.5083M13.175 16.1181H20.175M13.175 16.1181L13.9528 14.5625H19.3972L20.175 16.1181M15.5083 16.5069V16.1181M15.5083 16.5069C15.5083 16.8164 15.6312 17.1131 15.85 17.3319C16.0688 17.5507 16.3656 17.6736 16.675 17.6736C16.9844 17.6736 17.2812 17.5507 17.4999 17.3319C17.7187 17.1131 17.8417 16.8164 17.8417 16.5069M15.5083 16.1181H17.8417M17.8417 16.5069V16.1181M17.8417 16.5069C17.8417 16.8164 17.9646 17.1131 18.1834 17.3319C18.4022 17.5507 18.6989 17.6736 19.0083 17.6736C19.3177 17.6736 19.6145 17.5507 19.8333 17.3319C20.0521 17.1131 20.175 16.8164 20.175 16.5069V16.1181M17.8417 16.1181H20.175M13.9528 21.5625V17.6153M19.3972 21.5625V17.6153M15.5083 21.5625V20.0069C15.5083 19.8007 15.5903 19.6028 15.7361 19.457C15.882 19.3111 16.0798 19.2292 16.2861 19.2292H17.0639C17.2702 19.2292 17.468 19.3111 17.6138 19.457C17.7597 19.6028 17.8417 19.8007 17.8417 20.0069V21.5625" stroke="white" stroke-width="1.2" stroke-linecap="round" stroke-linejoin="round"/>
</svg>
