<svg width="25" height="24" viewBox="0 0 25 24" fill="none" xmlns="http://www.w3.org/2000/svg">
<path d="M10.415 20H7.79999C7.26955 20 6.76085 19.7893 6.38577 19.4142C6.0107 19.0391 5.79999 18.5304 5.79999 18V6C5.79999 5.46957 6.0107 4.96086 6.38577 4.58579C6.76085 4.21071 7.26955 4 7.79999 4H15.8C16.3304 4 16.8391 4.21071 17.2142 4.58579C17.5893 4.96086 17.8 5.46957 17.8 6V14M14.8 19L16.8 21L20.8 17" stroke="white" stroke-width="2" stroke-linecap="round" stroke-linejoin="round"/>
<path d="M11.8 10.2857C12.7468 10.2857 13.5143 9.51824 13.5143 8.57146C13.5143 7.62469 12.7468 6.85718 11.8 6.85718C10.8532 6.85718 10.0857 7.62469 10.0857 8.57146C10.0857 9.51824 10.8532 10.2857 11.8 10.2857Z" fill="white"/>
<path fill-rule="evenodd" clip-rule="evenodd" d="M11.8 7.28573C11.0899 7.28573 10.5143 7.86137 10.5143 8.57145C10.5143 9.28153 11.0899 9.85716 11.8 9.85716C12.5101 9.85716 13.0857 9.28153 13.0857 8.57145C13.0857 7.86137 12.5101 7.28573 11.8 7.28573ZM9.65717 8.57145C9.65717 7.38798 10.6166 6.42859 11.8 6.42859C12.9835 6.42859 13.9429 7.38798 13.9429 8.57145C13.9429 9.75491 12.9835 10.7143 11.8 10.7143C10.6166 10.7143 9.65717 9.75491 9.65717 8.57145Z" fill="white"/>
<path d="M9.22858 14.5714V13.7143C9.22858 13.2596 9.40919 12.8236 9.73068 12.5021C10.0522 12.1806 10.4882 12 10.9429 12H12.6571C13.1118 12 13.5478 12.1806 13.8693 12.5021C14.1908 12.8236 14.3714 13.2596 14.3714 13.7143V14.5714" fill="white"/>
<path fill-rule="evenodd" clip-rule="evenodd" d="M10.9428 12.4286C10.6019 12.4286 10.2748 12.564 10.0337 12.8051C9.79259 13.0462 9.65713 13.3733 9.65713 13.7143V14.1428H13.9428V13.7143C13.9428 13.3733 13.8074 13.0462 13.5663 12.8051C13.3251 12.564 12.9981 12.4286 12.6571 12.4286H10.9428ZM9.42762 12.199C9.82948 11.7972 10.3745 11.5714 10.9428 11.5714H12.6571C13.2255 11.5714 13.7705 11.7972 14.1724 12.199C14.5742 12.6009 14.8 13.1459 14.8 13.7143V14.5714C14.8 14.8081 14.6081 15 14.3714 15H9.22856C8.99187 15 8.79999 14.8081 8.79999 14.5714V13.7143C8.79999 13.1459 9.02575 12.6009 9.42762 12.199Z" fill="white"/>
</svg>
