<svg width="120" height="120" viewBox="0 0 120 120" fill="none" xmlns="http://www.w3.org/2000/svg">
<rect x="1" y="1" width="118" height="118" rx="9" fill="white"/>
<rect x="1" y="1" width="118" height="118" rx="9" stroke="#F0F0F0" stroke-width="2"/>
<path d="M47.8205 78.8796C46.1605 78.8996 44.8005 77.5596 44.7805 75.8996C44.7805 75.8796 44.7805 75.8596 44.7805 75.8396V44.1996C44.7605 42.5396 46.1005 41.1796 47.7605 41.1596C47.7805 41.1596 47.8005 41.1596 47.8205 41.1596H66.5605C67.2005 41.1396 67.8405 41.4196 68.2605 41.8996L74.4605 48.0996C74.9205 48.5396 75.1805 49.1596 75.1805 49.7996V75.8396C75.2005 77.4996 73.8605 78.8596 72.2005 78.8796C72.1805 78.8796 72.1605 78.8796 72.1405 78.8796H47.8205Z" fill="white"/>
<path d="M66.5602 41.7598C67.0402 41.7398 67.5202 41.9398 67.8402 42.2998L74.0402 48.4998C74.4002 48.8398 74.5802 49.2998 74.5802 49.7798V75.8198C74.5802 77.1598 73.4802 78.2598 72.1402 78.2598H47.8202C46.4802 78.2598 45.3802 77.1598 45.3802 75.8198V44.1998C45.3802 42.8598 46.4802 41.7798 47.8202 41.7798H66.5602M66.5602 40.5598H47.8202C45.8002 40.5598 44.1802 42.1998 44.1602 44.1998V75.8398C44.1602 77.8598 45.8002 79.4798 47.8202 79.4998H72.1602C74.1802 79.4998 75.8002 77.8598 75.8202 75.8398V49.7998C75.8402 48.9998 75.5002 48.2198 74.9002 47.6798L68.7002 41.4798C68.1402 40.8798 67.3802 40.5598 66.5602 40.5598Z" fill="#FF2116"/>
<path d="M67.4598 58.1C67.1798 57.84 66.8198 57.64 66.4398 57.56C65.8998 57.42 65.3398 57.36 64.7798 57.36C64.3998 57.36 63.9998 57.38 63.6198 57.42C63.2198 57.46 62.7798 57.52 62.3398 57.6C62.0798 57.36 61.8198 57.08 61.5598 56.8C61.2998 56.52 61.0598 56.2 60.7998 55.86C60.6398 55.62 60.4598 55.38 60.2998 55.12C60.1398 54.88 59.9798 54.64 59.8598 54.4C60.0798 53.68 60.2798 52.98 60.4198 52.34C60.5598 51.76 60.6398 51.16 60.6398 50.58C60.6398 50.14 60.5598 49.68 60.3798 49.28C60.1798 48.82 59.7398 48.54 59.2398 48.54C59.0798 48.54 58.9198 48.58 58.7798 48.66C58.6398 48.74 58.5198 48.86 58.4398 49C58.2198 49.4 58.1398 50.1 58.2398 50.92C58.3598 51.86 58.6398 52.8 59.0398 53.66C58.8798 54.12 58.7198 54.58 58.5398 55.06C58.3598 55.54 58.1598 56.04 57.9398 56.58C57.7598 57.02 57.5598 57.46 57.3398 57.9C57.1198 58.34 56.9398 58.76 56.6998 59.18C55.6398 59.58 54.6398 60.1 53.6998 60.72C52.9598 61.24 52.5198 61.74 52.4598 62.2C52.4198 62.34 52.4398 62.5 52.4798 62.64C52.5398 62.78 52.6198 62.92 52.7398 63.02C52.8398 63.1 52.9598 63.18 53.0798 63.24C53.2598 63.32 53.4598 63.36 53.6398 63.36C54.3598 63.36 55.1198 62.84 55.8398 62.04C56.6198 61.14 57.2998 60.16 57.8598 59.1C58.1998 58.98 58.5398 58.86 58.8798 58.76C59.2198 58.66 59.5798 58.56 59.9598 58.46C60.3198 58.36 60.7398 58.26 61.1198 58.18C61.4998 58.1 61.8598 58.04 62.2198 57.96C62.8998 58.6 63.7198 59.1 64.5998 59.42C65.1398 59.6 65.6998 59.7 66.2798 59.7C66.6198 59.72 66.9398 59.66 67.2598 59.5C67.4398 59.4 67.5598 59.24 67.6198 59.06C67.6798 58.88 67.6798 58.68 67.6398 58.5C67.6398 58.34 67.5598 58.2 67.4598 58.1ZM58.7398 49.16C58.7998 49.06 58.8798 48.98 58.9598 48.92C59.0398 48.86 59.1398 48.84 59.2598 48.84C59.4598 48.84 59.6598 48.94 59.7598 49.1C59.8998 49.34 59.9598 49.62 59.9398 49.9C59.9198 50.38 59.8598 50.86 59.7598 51.32C59.6398 51.9 59.4798 52.54 59.2598 53.24C58.8998 52.44 58.6598 51.58 58.5598 50.68C58.4998 49.98 58.5598 49.44 58.7398 49.16ZM52.7598 62.2C52.8398 61.82 53.2198 61.38 53.8798 60.94C54.6998 60.4 55.5798 59.94 56.4998 59.56C55.9998 60.44 55.4198 61.26 54.7398 62C54.1998 62.58 53.6998 62.9 53.3398 62.9C53.2798 62.9 53.1998 62.88 53.1398 62.86C53.0798 62.84 53.0198 62.8 52.9598 62.74C52.8798 62.66 52.8398 62.58 52.7998 62.48C52.7598 62.4 52.7598 62.3 52.7598 62.2ZM61.9798 57.68C61.6598 57.74 61.3198 57.8 60.9798 57.88C60.6398 57.94 60.2798 58.04 59.9398 58.12C59.6398 58.2 59.3398 58.28 59.0398 58.36C58.7398 58.44 58.4398 58.56 58.1598 58.66C58.3198 58.34 58.4798 58.04 58.6398 57.72C58.7798 57.42 58.9198 57.12 59.0198 56.82C59.1598 56.48 59.2998 56.14 59.4198 55.8C59.5398 55.46 59.6798 55.1 59.7998 54.76C59.9198 54.98 60.0398 55.18 60.1798 55.4C60.3198 55.62 60.4598 55.82 60.6198 56.04C60.8398 56.32 61.0598 56.62 61.2798 56.88C61.4998 57.14 61.7398 57.42 61.9798 57.68ZM62.5798 57.86C63.2398 57.74 63.8998 57.68 64.5598 57.66C64.9998 57.64 65.4398 57.68 65.8798 57.74C66.1198 57.78 66.3398 57.9 66.4998 58.1C66.6398 58.28 66.6798 58.5 66.6398 58.72C66.5998 58.98 66.4198 59.18 66.1798 59.28C65.8998 59.4 65.5798 59.42 65.2798 59.34C64.7598 59.2 64.2598 59 63.7998 58.74C63.3798 58.48 62.9798 58.18 62.5798 57.86Z" fill="#FF2116"/>
<path d="M53.7998 68.4804V68.4604V68.4404C53.7998 68.4404 53.7998 68.4404 53.8198 68.4204H53.8398C53.9198 68.4204 54.0198 68.4204 54.1198 68.4004H54.4398H54.7998H55.1798C55.4998 68.4004 55.7998 68.4404 56.0998 68.5404C56.3398 68.6204 56.5598 68.7404 56.7398 68.9204C56.8998 69.0804 57.0398 69.2804 57.0998 69.4804C57.1798 69.7004 57.2198 69.9404 57.2198 70.1804C57.2198 70.4604 57.1598 70.7604 57.0598 71.0204C56.9598 71.2404 56.7998 71.4404 56.5998 71.6004C56.3998 71.7604 56.1798 71.8604 55.9398 71.9404C55.6798 72.0204 55.3998 72.0604 55.1198 72.0404H54.9998H54.8998H54.7998H54.6998V74.0204C54.6998 74.0404 54.6998 74.0404 54.6998 74.0404V74.0604C54.6998 74.0604 54.6798 74.0604 54.6798 74.0804H54.6598H53.8598H53.8398C53.8198 74.0804 53.8198 74.0604 53.8198 74.0604V74.0404V69.8404L53.7998 68.4804ZM54.7198 71.2204H54.7998H55.1398C55.2798 71.2204 55.4398 71.2004 55.5798 71.1804C55.7198 71.1404 55.8398 71.1004 55.9598 71.0204C56.0798 70.9404 56.1598 70.8404 56.2198 70.7004C56.2798 70.5404 56.3198 70.3604 56.3198 70.2004C56.3198 70.0604 56.2998 69.9004 56.2398 69.7804C56.1998 69.6604 56.1198 69.5604 56.0198 69.4604C55.9198 69.3804 55.7998 69.3204 55.6798 69.2804C55.5198 69.2404 55.3798 69.2204 55.2198 69.2204H55.0598H54.9198H54.7998C54.7598 69.2204 54.7398 69.2204 54.7198 69.2204V71.2204Z" fill="#2C2C2C"/>
<path d="M58.1396 68.4999V68.4799V68.4599L58.1596 68.4399H58.1996H58.3996H58.7197C58.8397 68.4399 58.9596 68.4399 59.0996 68.4399H59.5197C59.8997 68.4399 60.2996 68.4999 60.6596 68.6399C60.9596 68.7599 61.2396 68.9599 61.4596 69.1999C61.6796 69.4599 61.8396 69.7399 61.9396 70.0799C62.0596 70.4399 62.0996 70.8199 62.0996 71.1999C62.1196 71.6799 62.0196 72.1599 61.8596 72.6199C61.5996 73.2799 61.0596 73.7999 60.3596 74.0199C60.0796 74.1199 59.7596 74.1599 59.4596 74.1599H59.1396H58.7596H58.4197C58.3197 74.1599 58.2396 74.1599 58.1796 74.1599H58.1596C58.1596 74.1599 58.1396 74.1599 58.1396 74.1399V74.1199V74.0999V68.4999ZM59.0796 73.2799H59.1796H59.2796H59.3796H59.4996C59.7196 73.2799 59.9596 73.2399 60.1596 73.1599C60.3596 73.0799 60.5396 72.9399 60.6796 72.7799C60.8396 72.5799 60.9596 72.3599 61.0396 72.1199C61.1196 71.8199 61.1796 71.4999 61.1596 71.1799C61.1596 70.8799 61.1196 70.5799 61.0396 70.2799C60.9596 70.0599 60.8596 69.8599 60.6996 69.6799C60.5596 69.5199 60.3796 69.3999 60.1796 69.3399C59.9796 69.2599 59.7596 69.2399 59.5396 69.2399H59.3996H59.2796H59.1596C59.1196 69.2399 59.0796 69.2399 59.0396 69.2399L59.0796 73.2799Z" fill="#2C2C2C"/>
<path d="M64.0802 74.0199C64.0802 74.0399 64.0802 74.0399 64.0802 74.0599C64.0802 74.0599 64.0802 74.0799 64.0602 74.0799H64.0402H64.0202H63.2002H63.1802H63.1602V74.0599C63.1602 74.0399 63.1602 74.0399 63.1602 74.0199V68.4799V68.4599V68.4399C63.1602 68.4399 63.1802 68.4399 63.1802 68.4199H66.0602C66.0602 68.4199 66.0802 68.4199 66.0802 68.4399C66.0802 68.4399 66.0802 68.4599 66.1002 68.4599V68.4799L66.1202 68.6599L66.1402 68.8399L66.1602 69.0199L66.1802 69.1999V69.2399C66.1802 69.2399 66.1802 69.2599 66.1602 69.2599C66.1602 69.2599 66.1402 69.2599 66.1402 69.2799H66.1002H64.0602V70.8999H65.9202H65.9402C65.9402 70.8999 65.9602 70.8999 65.9602 70.9199C65.9602 70.9399 65.9602 70.9399 65.9602 70.9599V71.6799C65.9602 71.6999 65.9602 71.6999 65.9602 71.7199C65.9602 71.7199 65.9602 71.7399 65.9402 71.7399H65.9202H64.0602V73.9999L64.0802 74.0199Z" fill="#2C2C2C"/>
</svg>
