<svg width="81" height="66" viewBox="0 0 81 66" fill="none" xmlns="http://www.w3.org/2000/svg">
<path d="M0.904297 4.6543C0.904297 2.44516 2.69516 0.654297 4.9043 0.654297H76.9043C79.1134 0.654297 80.9043 2.44516 80.9043 4.6543V61.6543C80.9043 63.8634 79.1134 65.6543 76.9043 65.6543H4.9043C2.69516 65.6543 0.904297 63.8634 0.904297 61.6543V4.6543Z" fill="#E6E7E8"/>
<rect x="4.13281" y="4.9375" width="73.2722" height="43.3333" fill="white"/>
<path d="M75.8247 0.654297H5.98374C3.17866 0.654297 0.904297 3.03005 0.904297 5.96037V60.3484C0.904297 63.2785 3.17866 65.6543 5.98374 65.6543H75.8247C78.6299 65.6543 80.9043 63.2785 80.9043 60.3482V5.96037C80.9043 3.03005 78.6301 0.654297 75.8247 0.654297ZM75.8247 5.96037V44.5505L65.8146 35.0432C64.31 33.6146 61.9963 33.6716 60.5588 35.1746L50.4278 45.7563L30.4522 20.8307C28.9423 18.947 26.1766 18.9285 24.644 20.7896L5.98374 43.4442V5.96037H75.8247ZM54.2377 19.889C54.2377 15.8589 57.3637 12.593 61.2215 12.593C65.0795 12.593 68.2057 15.8589 68.2057 19.889C68.2057 23.919 65.0796 27.1848 61.2215 27.1848C57.3639 27.1849 54.2377 23.919 54.2377 19.889Z" fill="#E6E7E8"/>
</svg>
