<svg width="95" height="95" viewBox="0 0 95 95" fill="none" xmlns="http://www.w3.org/2000/svg">
<path d="M47.7676 15.7959C41.5704 15.7959 35.5124 17.6336 30.3597 21.0765C25.2069 24.5195 21.1909 29.4131 18.8193 35.1385C16.4478 40.8639 15.8273 47.164 17.0363 53.2421C18.2453 59.3201 21.2295 64.9032 25.6115 69.2852C29.9936 73.6673 35.5767 76.6515 41.6547 77.8605C47.7328 79.0695 54.0329 78.449 59.7583 76.0775C65.4837 73.7059 70.3773 69.6898 73.8203 64.5371C77.2632 59.3844 79.1009 53.3264 79.1009 47.1292C79.1009 38.8191 75.7997 30.8494 69.9236 24.9732C64.0474 19.0971 56.0777 15.7959 47.7676 15.7959V15.7959ZM47.7676 73.2403C42.6033 73.2403 37.5549 71.709 33.261 68.8398C28.967 65.9707 25.6203 61.8927 23.644 57.1215C21.6677 52.3503 21.1507 47.1003 22.1582 42.0352C23.1657 36.9701 25.6525 32.3176 29.3042 28.6659C32.9559 25.0142 37.6085 22.5273 42.6735 21.5198C47.7386 20.5123 52.9887 21.0294 57.7598 23.0057C62.531 24.982 66.609 28.3287 69.4782 32.6227C72.3473 36.9166 73.8787 41.9649 73.8787 47.1292C73.8787 50.5582 73.2033 53.9536 71.8911 57.1215C70.5789 60.2895 68.6555 63.1679 66.2309 65.5926C63.8063 68.0172 60.9278 69.9406 57.7598 71.2528C54.5919 72.565 51.1965 73.2403 47.7676 73.2403V73.2403Z" fill="url(#paint0_linear_788_594)"/>
<path d="M43.4333 62.1174L30.3777 49.0618C29.95 48.5623 29.7264 47.9198 29.7518 47.2626C29.7772 46.6055 30.0496 45.9821 30.5147 45.5171C30.9797 45.0521 31.6031 44.7796 32.2602 44.7542C32.9174 44.7289 33.5599 44.9524 34.0594 45.3802L43.4333 54.754L61.1366 37.0507C61.6361 36.6229 62.2787 36.3994 62.9358 36.4248C63.593 36.4502 64.2163 36.7226 64.6814 37.1876C65.1464 37.6527 65.4188 38.276 65.4442 38.9332C65.4696 39.5903 65.2461 40.2329 64.8183 40.7324L43.4333 62.1174Z" fill="url(#paint1_linear_788_594)"/>
<path opacity="0.08" d="M93.543 86.1282C93.543 89.3929 73.2905 92.0395 48.3077 92.0395C23.325 92.0395 3.07251 89.3929 3.07251 86.1282C3.07251 82.8635 23.325 82.4619 48.3077 82.4619C73.2905 82.4619 93.543 82.8635 93.543 86.1282Z" fill="#077E86"/>
<defs>
<linearGradient id="paint0_linear_788_594" x1="47.7675" y1="15.7959" x2="47.7675" y2="78.4626" gradientUnits="userSpaceOnUse">
<stop stop-color="#80D8DE"/>
<stop offset="1" stop-color="#077E86"/>
</linearGradient>
<linearGradient id="paint1_linear_788_594" x1="47.598" y1="36.4229" x2="47.598" y2="62.1174" gradientUnits="userSpaceOnUse">
<stop stop-color="#80D8DE"/>
<stop offset="1" stop-color="#077E86"/>
</linearGradient>
</defs>
</svg>
