<svg width="64" height="64" viewBox="0 0 64 64" fill="none" xmlns="http://www.w3.org/2000/svg">
<path d="M32 0.5C14.415 0.5 0.5 14.415 0.5 32C0.5 49.5849 14.415 63.5 32 63.5C49.585 63.5 63.5 49.5849 63.5 32C63.5 14.415 49.585 0.5 32 0.5ZM32 58.9126C17.1675 58.9126 5.08738 46.8325 5.08738 32C5.08738 17.1675 17.1675 5.08738 32 5.08738C46.8325 5.08738 58.9126 17.1675 58.9126 32C58.9126 46.8325 46.8325 58.9126 32 58.9126Z" fill="url(#paint0_linear_564_11737)"/>
<path d="M42.3978 45.9147L31.9997 35.5166L21.6017 45.9147C20.6842 46.8322 19.0021 46.8322 17.9318 45.9147C17.0143 44.9972 17.0143 43.3152 17.9318 42.3977L28.3298 31.9996L17.9318 21.6016C17.0143 20.6841 17.0143 19.0021 17.9318 18.0846C18.8492 17.1671 20.5313 17.1671 21.4487 18.0846L31.8468 28.4826L42.2449 18.0846C43.1623 17.1671 44.8444 17.1671 45.7619 18.0846C46.6793 19.0021 46.6793 20.6841 45.7619 21.6016L35.3638 31.9996L45.7619 42.3977C46.6793 43.3152 46.6793 44.9972 45.7619 45.9147C44.9973 46.8322 43.3153 46.8322 42.3978 45.9147Z" fill="url(#paint1_linear_564_11737)"/>
<defs>
<linearGradient id="paint0_linear_564_11737" x1="32" y1="0.5" x2="32" y2="63.5" gradientUnits="userSpaceOnUse">
<stop stop-color="#FF848A"/>
<stop offset="1" stop-color="#B9121B"/>
</linearGradient>
<linearGradient id="paint1_linear_564_11737" x1="31.8468" y1="17.3965" x2="31.8468" y2="46.6028" gradientUnits="userSpaceOnUse">
<stop stop-color="#FF848A"/>
<stop offset="1" stop-color="#B9121B"/>
</linearGradient>
</defs>
</svg>
