<svg width="25" height="24" viewBox="0 0 25 24" fill="none" xmlns="http://www.w3.org/2000/svg">
<path d="M18.5 8H10.5C9.39543 8 8.5 8.89543 8.5 10V18C8.5 19.1046 9.39543 20 10.5 20H18.5C19.6046 20 20.5 19.1046 20.5 18V10C20.5 8.89543 19.6046 8 18.5 8Z" stroke="#2C1919" stroke-width="2" stroke-linecap="round" stroke-linejoin="round"/>
<path d="M16.5 8V6C16.5 5.46957 16.2893 4.96086 15.9142 4.58579C15.5391 4.21071 15.0304 4 14.5 4H6.5C5.96957 4 5.46086 4.21071 5.08579 4.58579C4.71071 4.96086 4.5 5.46957 4.5 6V14C4.5 14.5304 4.71071 15.0391 5.08579 15.4142C5.46086 15.7893 5.96957 16 6.5 16H8.5" stroke="#2C1919" stroke-width="2" stroke-linecap="round" stroke-linejoin="round"/>
</svg>
