<svg width="147" height="184" viewBox="0 0 147 184" fill="none" xmlns="http://www.w3.org/2000/svg">
<path d="M54.9421 35.0986C54.9421 35.0986 70.9898 31.8451 85.5981 35.0986C94.5306 37.0878 113.341 41.8015 117.779 52.4965C122.218 63.1916 100.842 72.3097 111.348 83.1559C115.88 87.8318 137.623 94.0056 136.4 124.352C135.177 154.699 103.315 173.207 59.0271 172.382C14.7386 171.558 -10.7948 131.296 6.33169 111.465C23.4582 91.635 30.8276 91.58 23.0631 75.4361C15.2986 59.2922 26.0796 39.7195 54.9421 35.0986Z" fill="#DF9C43"/>
<path opacity="0.7" d="M54.9421 35.0986C54.9421 35.0986 70.9898 31.8451 85.5981 35.0986C94.5306 37.0878 113.341 41.8015 117.779 52.4965C122.218 63.1916 100.842 72.3097 111.348 83.1559C115.88 87.8318 137.623 94.0056 136.4 124.352C135.177 154.699 103.315 173.207 59.0271 172.382C14.7386 171.558 -10.7948 131.296 6.33169 111.465C23.4582 91.635 30.8276 91.58 23.0631 75.4361C15.2986 59.2922 26.0796 39.7195 54.9421 35.0986Z" fill="white"/>
<path d="M103.27 22.2673C103.27 26.5738 90.4486 30.0649 74.6327 30.0649C37.5405 37.5956 45.9956 26.5738 45.9956 22.2673C45.9956 17.9608 58.8169 14.4697 74.6327 14.4697C90.4486 14.4697 103.27 17.9608 103.27 22.2673Z" fill="#F5E1C7"/>
<path d="M71.2204 15.4871V9.76609H73.2429C74.2253 9.76609 74.9766 9.61199 75.4966 9.30379C76.0167 8.97633 76.2768 8.35993 76.2768 7.45459V6.52999C76.2768 5.5476 75.9975 4.85415 75.4389 4.44964C74.8995 4.04513 74.0905 3.84287 73.0118 3.84287C72.1835 3.84287 71.3745 3.92955 70.5847 4.10291C69.8142 4.27628 69.0148 4.50743 68.1865 4.79636V1.64694C68.9378 1.18464 69.8238 0.799393 70.8447 0.491193C71.8657 0.163731 73.0214 0 74.312 0C75.6989 0 76.8547 0.250412 77.7793 0.751237C78.7039 1.2328 79.3973 1.91662 79.8596 2.80269C80.3219 3.68877 80.5531 4.70005 80.5531 5.83654V7.54127C80.5531 9.33268 80.0522 10.6907 79.0506 11.6153C78.0682 12.5399 76.5272 13.0022 74.4276 13.0022V15.4871H71.2204ZM71.596 21.3814C71.1915 21.3814 70.9892 21.1888 70.9892 20.8035V17.8563C70.9892 17.4518 71.1915 17.2496 71.596 17.2496H74.052C74.4757 17.2496 74.6876 17.4518 74.6876 17.8563V20.8035C74.6876 21.0347 74.6298 21.1888 74.5143 21.2658C74.3987 21.3429 74.2446 21.3814 74.052 21.3814H71.596Z" fill="black"/>
<path d="M99.0013 22.2702L101.326 17.0429L103.174 17.8649C104.072 18.2641 104.821 18.4286 105.421 18.3583C106.03 18.2705 106.518 17.8129 106.886 16.9857L107.261 16.1409C107.661 15.2433 107.687 14.4962 107.341 13.8996C107.013 13.3108 106.356 12.7972 105.37 12.3589C104.613 12.0223 103.839 11.7727 103.047 11.6101C102.272 11.4554 101.448 11.3418 100.574 11.2692L101.854 8.39154C102.728 8.27442 103.694 8.2825 104.752 8.41578C105.818 8.53145 106.941 8.85153 108.12 9.376C109.387 9.93961 110.341 10.6381 110.983 11.4714C111.632 12.2872 111.987 13.1938 112.05 14.1913C112.112 15.1888 111.912 16.2067 111.45 17.2451L110.758 18.8027C110.03 20.4396 109.02 21.4768 107.729 21.9146C106.456 22.3602 104.86 22.1564 102.942 21.3031L101.932 23.5735L99.0013 22.2702ZM96.9492 27.8085C96.5796 27.6441 96.4731 27.3859 96.6296 27.0339L97.8273 24.3411C97.9917 23.9715 98.2587 23.8689 98.6283 24.0333L100.872 25.0313C101.26 25.2035 101.371 25.4744 101.207 25.844L100.009 28.5369C99.9149 28.7481 99.7995 28.8654 99.6626 28.8888C99.5257 28.9123 99.3692 28.8848 99.1932 28.8066L96.9492 27.8085Z" fill="black"/>
<path d="M42.8675 23.3573L40.623 18.095L42.4833 17.3015C43.387 16.916 44.0175 16.4795 44.375 15.992C44.7249 15.4868 44.7222 14.8177 44.367 13.985L44.0043 13.1345C43.6189 12.2309 43.0899 11.7026 42.4173 11.5497C41.7625 11.3893 40.939 11.5206 39.9468 11.9439C39.1849 12.2688 38.4748 12.666 37.8164 13.1353C37.1757 13.597 36.5311 14.1233 35.8825 14.714L34.6469 11.8171C35.1565 11.0972 35.8204 10.3952 36.6385 9.71113C37.4491 9.00938 38.448 8.40533 39.6351 7.89898C40.9108 7.35484 42.0721 7.13173 43.1191 7.22964C44.1585 7.30983 45.0646 7.66676 45.8375 8.30041C46.6104 8.93406 47.2197 9.77357 47.6656 10.8189L48.3345 12.387C49.0373 14.0348 49.1094 15.4804 48.5509 16.7238C48.01 17.9597 46.7739 18.9896 44.8427 19.8133L45.8176 22.0989L42.8675 23.3573ZM45.5256 28.6316C45.1535 28.7903 44.8919 28.6925 44.7408 28.3381L43.5845 25.6273C43.4258 25.2552 43.5324 24.9898 43.9045 24.8311L46.1636 23.8675C46.5534 23.7012 46.8276 23.8042 46.9863 24.1762L48.1426 26.8871C48.2333 27.0997 48.2406 27.2641 48.1645 27.3803C48.0885 27.4966 47.9618 27.5925 47.7846 27.668L45.5256 28.6316Z" fill="black"/>
<path d="M98.0626 77.6383H42.6978L35.7888 43.2719H104.975L98.0626 77.6383Z" fill="#263238"/>
<path d="M40.9801 44.3885L30.7866 113.729H109.974L99.7805 44.3885" fill="#DF9C43"/>
<path opacity="0.3" d="M109.977 113.729H30.7866L35.0502 84.733H105.714L109.977 113.729Z" fill="black" fill-opacity="0.7"/>
<path d="M40.9801 44.3885L30.7866 113.729H109.974L99.7805 44.3885" stroke="#263238" stroke-width="0.35071" stroke-linecap="round" stroke-linejoin="round"/>
<path d="M97.6261 44.3885H43.1374L33.6895 113.729H107.074L97.6261 44.3885Z" fill="#263238"/>
<path d="M92.2427 49.6727H62.6656L62.322 48.9168C62.2307 48.7117 62.0818 48.5375 61.8933 48.4155C61.7048 48.2935 61.4849 48.229 61.2604 48.2297H54.561C54.3787 48.2297 54.204 48.3021 54.0751 48.431C53.9462 48.5598 53.8739 48.7346 53.8739 48.9168V49.6898H48.5177C48.4214 49.6899 48.3264 49.7114 48.2394 49.7528C48.1524 49.7941 48.0757 49.8543 48.0149 49.929C47.954 50.0036 47.9106 50.0909 47.8876 50.1844C47.8647 50.2779 47.8628 50.3754 47.8822 50.4697L52.2488 72.1999H88.5117L92.8817 50.4525C92.8999 50.3581 92.897 50.2608 92.8734 50.1675C92.8497 50.0743 92.8059 49.9874 92.7449 49.9129C92.6839 49.8385 92.6073 49.7784 92.5205 49.7369C92.4338 49.6954 92.3389 49.6735 92.2427 49.6727Z" fill="#BFBFBF" stroke="#263238" stroke-width="0.35071" stroke-linecap="round" stroke-linejoin="round"/>
<path d="M93.3593 51.339L92.9814 53.2148L89.0992 72.5195C89.0433 72.8094 88.8883 73.0708 88.6607 73.2589C88.4332 73.4469 88.1472 73.5499 87.852 73.5502H52.9119C52.6167 73.5499 52.3307 73.4469 52.1032 73.2589C51.8756 73.0708 51.7206 72.8094 51.6648 72.5195L47.6898 52.7579L47.4046 51.339C47.386 51.2453 47.3882 51.1486 47.411 51.0559C47.4338 50.9631 47.4767 50.8765 47.5367 50.8021C47.5966 50.7277 47.6722 50.6674 47.758 50.6254C47.8438 50.5834 47.9378 50.5608 48.0333 50.5591H92.6962C92.7946 50.5556 92.8925 50.5745 92.9826 50.6143C93.0727 50.654 93.1526 50.7136 93.2164 50.7886C93.2802 50.8637 93.3262 50.9521 93.3509 51.0474C93.3757 51.1427 93.3785 51.2424 93.3593 51.339Z" fill="white"/>
<path opacity="0.4" d="M92.9813 53.2145L89.0991 72.5192C89.0432 72.8091 88.8882 73.0705 88.6607 73.2586C88.4331 73.4467 88.1472 73.5497 87.852 73.5499H52.9118C52.6166 73.5497 52.3307 73.4467 52.1031 73.2586C51.8756 73.0705 51.7206 72.8091 51.6647 72.5192L47.6897 52.7576L92.9813 53.2145Z" fill="#DF9C43"/>
<path d="M93.3593 51.339L92.9814 53.2148L89.0992 72.5195C89.0433 72.8094 88.8883 73.0708 88.6607 73.2589C88.4332 73.4469 88.1472 73.5499 87.852 73.5502H52.9119C52.6167 73.5499 52.3307 73.4469 52.1032 73.2589C51.8756 73.0708 51.7206 72.8094 51.6648 72.5195L47.6898 52.7579L47.4046 51.339C47.386 51.2453 47.3882 51.1486 47.411 51.0559C47.4338 50.9631 47.4767 50.8765 47.5367 50.8021C47.5966 50.7277 47.6722 50.6674 47.758 50.6254C47.8438 50.5834 47.9378 50.5608 48.0333 50.5591H92.6962C92.7946 50.5556 92.8925 50.5745 92.9826 50.6143C93.0727 50.654 93.1526 50.7136 93.2164 50.7886C93.2802 50.8637 93.3262 50.9521 93.3509 51.0474C93.3757 51.1427 93.3785 51.2424 93.3593 51.339V51.339Z" stroke="#263238" stroke-width="0.35071" stroke-linecap="round" stroke-linejoin="round"/>
<path d="M92.7648 54.6784H62.4799L62.1364 53.9225C62.0403 53.716 61.8869 53.5415 61.6944 53.4197C61.5019 53.2979 61.2785 53.2339 61.0507 53.2354H54.1795C53.9973 53.2354 53.8225 53.3078 53.6936 53.4367C53.5648 53.5655 53.4924 53.7403 53.4924 53.9225V54.6784H47.9954C47.8982 54.6766 47.8019 54.6966 47.7134 54.7368C47.6249 54.7771 47.5465 54.8366 47.4839 54.911C47.4214 54.9854 47.3762 55.0728 47.3518 55.1669C47.3273 55.261 47.3242 55.3594 47.3427 55.4548L51.8089 77.1198H88.9444L93.4107 55.4548C93.4297 55.3599 93.4272 55.2619 93.4034 55.168C93.3796 55.0742 93.3351 54.9868 93.2732 54.9124C93.2113 54.838 93.1335 54.7783 93.0455 54.7378C92.9576 54.6973 92.8617 54.677 92.7648 54.6784Z" fill="#BFBFBF" stroke="#263238" stroke-width="0.35071" stroke-linecap="round" stroke-linejoin="round"/>
<path d="M93.9089 56.4028L93.531 58.2375L89.5491 77.5215C89.488 77.8145 89.3272 78.0773 89.0942 78.2652C88.8612 78.4531 88.5704 78.5546 88.271 78.5522H52.4995C52.2002 78.5546 51.9093 78.4531 51.6763 78.2652C51.4433 78.0773 51.2826 77.8145 51.2214 77.5215L47.219 58.1722L46.8548 56.4028C46.8364 56.3072 46.8396 56.2087 46.864 56.1145C46.8884 56.0202 46.9335 55.9326 46.996 55.8579C47.0585 55.7833 47.1368 55.7235 47.2253 55.6828C47.3138 55.6422 47.4102 55.6217 47.5076 55.623H93.2561C93.3535 55.6217 93.4499 55.6422 93.5383 55.6828C93.6268 55.7235 93.7052 55.7833 93.7677 55.8579C93.8301 55.9326 93.8752 56.0202 93.8997 56.1145C93.9241 56.2087 93.9272 56.3072 93.9089 56.4028Z" fill="white"/>
<path opacity="0.4" d="M93.531 58.2377L89.5491 77.5218C89.488 77.8148 89.3273 78.0776 89.0943 78.2655C88.8613 78.4534 88.5704 78.5548 88.2711 78.5525H52.4995C52.2002 78.5548 51.9093 78.4534 51.6763 78.2655C51.4433 78.0776 51.2826 77.8148 51.2215 77.5218L47.219 58.1724L93.531 58.2377Z" fill="#DF9C43"/>
<path d="M93.9089 56.4028L93.531 58.2375L89.5491 77.5215C89.488 77.8145 89.3272 78.0773 89.0942 78.2652C88.8612 78.4531 88.5704 78.5546 88.271 78.5522H52.4995C52.2002 78.5546 51.9093 78.4531 51.6763 78.2652C51.4433 78.0773 51.2826 77.8145 51.2214 77.5215L47.219 58.1722L46.8548 56.4028C46.8364 56.3072 46.8396 56.2087 46.864 56.1145C46.8884 56.0202 46.9335 55.9326 46.996 55.8579C47.0585 55.7833 47.1368 55.7235 47.2253 55.6828C47.3138 55.6422 47.4102 55.6217 47.5076 55.623H93.2561C93.3535 55.6217 93.4499 55.6422 93.5384 55.6828C93.6268 55.7235 93.7052 55.7833 93.7676 55.8579C93.8301 55.9326 93.8752 56.0202 93.8997 56.1145C93.9241 56.2087 93.9272 56.3072 93.9089 56.4028Z" stroke="#263238" stroke-width="0.35071" stroke-linecap="round" stroke-linejoin="round"/>
<path d="M93.2905 59.6838H62.2944L61.9509 58.9314C61.8498 58.723 61.6914 58.5477 61.4942 58.426C61.2971 58.3043 61.0694 58.2413 60.8378 58.2443H53.7913C53.6994 58.2415 53.6078 58.2573 53.522 58.2906C53.4363 58.3239 53.3581 58.374 53.2921 58.4381C53.2261 58.5022 53.1736 58.5789 53.1378 58.6636C53.102 58.7484 53.0835 58.8394 53.0836 58.9314V59.701H47.4732C47.3737 59.6947 47.2741 59.7111 47.1819 59.749C47.0897 59.787 47.0074 59.8454 46.9411 59.9199C46.8749 59.9944 46.8265 60.0831 46.7997 60.1791C46.7728 60.2751 46.7682 60.376 46.7861 60.474L51.3623 82.0771H89.3808L93.957 60.45C93.9733 60.3542 93.9682 60.256 93.9419 60.1624C93.9157 60.0689 93.869 59.9823 93.8052 59.909C93.7414 59.8357 93.6622 59.7775 93.5732 59.7386C93.4842 59.6996 93.3876 59.6809 93.2905 59.6838Z" fill="#BFBFBF" stroke="#263238" stroke-width="0.35071" stroke-linecap="round" stroke-linejoin="round"/>
<path d="M93.7888 60.6869H46.9717C46.8729 60.6854 46.7749 60.7061 46.6851 60.7475C46.5954 60.7889 46.516 60.85 46.453 60.9262C46.39 61.0023 46.345 61.0917 46.3212 61.1877C46.2974 61.2837 46.2954 61.3837 46.3155 61.4806L50.7818 82.5374C50.8516 82.8304 51.0194 83.0906 51.2575 83.275C51.4957 83.4594 51.7897 83.5567 52.0908 83.5509H88.6903C88.991 83.5566 89.2845 83.4591 89.5221 83.2747C89.7596 83.0903 89.9268 82.8301 89.9959 82.5374L94.4621 61.4806C94.4833 61.3822 94.4816 61.2803 94.4571 61.1827C94.4327 61.0852 94.3861 60.9945 94.321 60.9178C94.2559 60.8411 94.1741 60.7804 94.0818 60.7404C93.9895 60.7003 93.8892 60.682 93.7888 60.6869Z" fill="white" stroke="#263238" stroke-width="0.35071" stroke-linecap="round" stroke-linejoin="round"/>
<path d="M93.8128 63.6589H62.1193L61.7757 62.9065C61.6693 62.6965 61.5059 62.5206 61.3041 62.3991C61.1024 62.2776 60.8705 62.2153 60.6351 62.2194H53.4203C53.3267 62.2138 53.2329 62.2274 53.1447 62.2594C53.0565 62.2914 52.9758 62.3411 52.9076 62.4055C52.8393 62.4699 52.785 62.5475 52.7479 62.6337C52.7108 62.7199 52.6918 62.8127 52.692 62.9065V63.6727H46.9545C46.8554 63.6677 46.7564 63.685 46.6648 63.7234C46.5733 63.7618 46.4915 63.8202 46.4255 63.8944C46.3596 63.9686 46.3111 64.0566 46.2838 64.1521C46.2564 64.2475 46.2508 64.3478 46.2674 64.4457L50.9501 85.9801H89.8137L94.4964 64.4457C94.516 64.347 94.5127 64.2452 94.4868 64.148C94.461 64.0508 94.4132 63.9608 94.3473 63.8849C94.2813 63.809 94.1988 63.7491 94.1062 63.71C94.0136 63.6708 93.9132 63.6534 93.8128 63.6589Z" fill="#BFBFBF" stroke="#263238" stroke-width="0.35071" stroke-linecap="round" stroke-linejoin="round"/>
<path d="M94.3246 64.7238H46.4357C46.3363 64.7181 46.237 64.735 46.1452 64.7732C46.0533 64.8113 45.9712 64.8698 45.9051 64.9441C45.8391 65.0185 45.7906 65.1068 45.7635 65.2025C45.7364 65.2982 45.7313 65.3988 45.7485 65.4968L50.3145 86.4884C50.3853 86.7874 50.5567 87.0529 50.8 87.2406C51.0433 87.4282 51.3437 87.5265 51.6509 87.5191H89.099C89.4066 87.5267 89.7075 87.4285 89.9514 87.2409C90.1953 87.0533 90.3674 86.7876 90.4389 86.4884L95.0014 65.4968C95.0184 65.3997 95.0135 65.3001 94.9869 65.2052C94.9604 65.1103 94.9129 65.0225 94.848 64.9483C94.7831 64.8742 94.7023 64.8155 94.6118 64.7767C94.5212 64.7378 94.4231 64.7197 94.3246 64.7238Z" fill="white" stroke="#263238" stroke-width="0.35071" stroke-linecap="round" stroke-linejoin="round"/>
<path d="M94.3382 67.6341H61.9267L61.5591 66.8852C61.4477 66.674 61.2798 66.4979 61.0741 66.3765C60.8685 66.2552 60.6331 66.1934 60.3944 66.1981H53.0319C52.9378 66.1935 52.8438 66.2077 52.7552 66.2399C52.6667 66.2721 52.5855 66.3216 52.5164 66.3856C52.4473 66.4496 52.3917 66.5268 52.3527 66.6126C52.3138 66.6983 52.2924 66.791 52.2898 66.8852V67.6479H46.4252C46.3266 67.6436 46.2282 67.6613 46.1373 67.6997C46.0463 67.7381 45.9651 67.7962 45.8993 67.8699C45.8336 67.9435 45.785 68.0308 45.7571 68.1255C45.7292 68.2202 45.7227 68.3199 45.7381 68.4175L50.5273 89.89H90.2498L95.0356 68.4175C95.0542 68.3179 95.0498 68.2155 95.0227 68.1179C94.9955 68.0204 94.9464 67.9303 94.8791 67.8547C94.8117 67.7791 94.728 67.7199 94.6342 67.6817C94.5405 67.6434 94.4392 67.6272 94.3382 67.6341Z" fill="#BFBFBF" stroke="#263238" stroke-width="0.35071" stroke-linecap="round" stroke-linejoin="round"/>
<path d="M94.8604 68.7612H45.903C45.8044 68.7569 45.706 68.7746 45.6151 68.813C45.5241 68.8514 45.4428 68.9095 45.3771 68.9832C45.3113 69.0568 45.2628 69.1441 45.2349 69.2388C45.207 69.3335 45.2005 69.4332 45.2159 69.5308L46.3634 74.6842L49.8814 90.4639C49.9633 90.7624 50.1435 91.0246 50.3929 91.2079C50.6423 91.3913 50.9463 91.485 51.2557 91.474H89.5284C89.8377 91.485 90.1417 91.3913 90.3911 91.2079C90.6405 91.0246 90.8208 90.7624 90.9026 90.4639L92.6204 82.7235L95.5613 69.5342C95.5775 69.4352 95.5712 69.3339 95.5428 69.2377C95.5144 69.1415 95.4647 69.0529 95.3973 68.9786C95.33 68.9043 95.2467 68.8462 95.1537 68.8085C95.0608 68.7709 94.9605 68.7547 94.8604 68.7612Z" fill="white"/>
<path opacity="0.4" d="M46.3499 74.6804L49.8679 90.4602C49.9497 90.7587 50.13 91.0209 50.3794 91.2042C50.6288 91.3875 50.9328 91.4813 51.2422 91.4703H89.5286C89.8379 91.4813 90.1419 91.3875 90.3913 91.2042C90.6408 91.0209 90.821 90.7587 90.9028 90.4602L92.6206 82.7198L46.3499 74.6804Z" fill="#DF9C43"/>
<path d="M94.8604 68.7612H45.903C45.8044 68.7569 45.706 68.7746 45.6151 68.813C45.5241 68.8514 45.4428 68.9095 45.3771 68.9832C45.3113 69.0568 45.2628 69.1441 45.2349 69.2388C45.207 69.3335 45.2005 69.4332 45.2159 69.5308L46.3634 74.6842L49.8814 90.4639C49.9633 90.7624 50.1435 91.0246 50.3929 91.2079C50.6423 91.3913 50.9463 91.485 51.2557 91.474H89.5284C89.8377 91.485 90.1417 91.3913 90.3911 91.2079C90.6405 91.0246 90.8208 90.7624 90.9026 90.4639L92.6204 82.7235L95.5613 69.5342C95.5775 69.4352 95.5712 69.3339 95.5428 69.2377C95.5144 69.1415 95.4647 69.0529 95.3973 68.9786C95.33 68.9043 95.2467 68.8462 95.1537 68.8085C95.0608 68.7709 94.9605 68.7547 94.8604 68.7612V68.7612Z" stroke="#263238" stroke-width="0.35071" stroke-linecap="round" stroke-linejoin="round"/>
<path d="M60.6832 92.2123L60.2503 91.4942C60.1083 91.2858 59.9137 91.1188 59.6861 91.0101C59.4586 90.9015 59.2063 90.8551 58.955 90.8758L50.9569 91.2434C50.7637 91.2348 50.5746 91.3017 50.4297 91.4299C50.2848 91.5581 50.1955 91.7376 50.1805 91.9305L50.2149 92.6829L43.8418 92.975C43.3539 92.999 43.0035 93.3838 43.1169 93.772L49.301 114.729L92.4694 112.747L96.6952 91.3156C96.7742 90.9205 96.3894 90.57 95.9016 90.5906L60.6832 92.2123Z" fill="#BFBFBF" stroke="#263238" stroke-width="0.35071" stroke-linecap="round" stroke-linejoin="round"/>
<path d="M97.317 92.6556L96.8188 95.1224L93.1874 113.548C93.0977 113.858 92.9081 114.131 92.6479 114.324C92.3878 114.516 92.0715 114.618 91.7479 114.613L50.1633 116.523C49.8414 116.558 49.517 116.486 49.2401 116.318C48.9631 116.151 48.7491 115.897 48.631 115.595L42.8798 96.1153L42.6015 95.1705C42.4881 94.7822 42.8386 94.3975 43.3264 94.3768L96.5131 91.9307C97.0147 91.9101 97.396 92.2605 97.317 92.6556Z" fill="white"/>
<path opacity="0.4" d="M96.8189 95.1225L93.1875 113.548C93.0978 113.859 92.9082 114.131 92.648 114.324C92.3878 114.516 92.0716 114.618 91.748 114.613L50.1634 116.523C49.8415 116.558 49.5171 116.486 49.2402 116.319C48.9632 116.151 48.7492 115.897 48.6311 115.595L42.8799 96.1154L96.8189 95.1225Z" fill="#DF9C43"/>
<path d="M97.317 92.6556L96.8188 95.1224L93.1874 113.548C93.0977 113.858 92.9081 114.131 92.6479 114.324C92.3878 114.516 92.0715 114.618 91.7479 114.613L50.1633 116.523C49.8414 116.558 49.517 116.486 49.2401 116.318C48.9631 116.151 48.7491 115.897 48.631 115.595L42.8798 96.1153L42.6015 95.1705C42.4881 94.7822 42.8386 94.3975 43.3264 94.3768L96.5131 91.9307C97.0147 91.9101 97.396 92.2605 97.317 92.6556Z" stroke="#263238" stroke-width="0.35071" stroke-linecap="round" stroke-linejoin="round"/>
<path d="M61.5969 96.9981L61.2293 96.2389C61.1036 96.0164 60.9215 95.8309 60.7014 95.7012C60.4812 95.5716 60.2308 95.5022 59.9753 95.5002L51.8123 95.0742C51.6177 95.0452 51.4195 95.0932 51.2597 95.2081C51.1 95.3229 50.9913 95.4955 50.9568 95.6892L50.919 96.4381L44.4188 96.0946C43.9207 96.0705 43.5256 96.4175 43.6046 96.8126L47.8029 118.21L91.8233 120.511L98.2342 99.6676C98.351 99.2828 97.9971 98.898 97.499 98.8705L61.5969 96.9981Z" fill="#BFBFBF" stroke="#263238" stroke-width="0.35071" stroke-linecap="round" stroke-linejoin="round"/>
<path d="M98.7462 101.124L97.7156 104.519L92.514 121.442C92.3888 121.745 92.1677 121.998 91.8848 122.163C91.6018 122.328 91.2725 122.396 90.9474 122.356L48.5142 120.14C48.1869 120.145 47.8669 120.043 47.6027 119.85C47.3386 119.656 47.1448 119.382 47.0506 119.068L43.4604 100.767L42.9588 98.2073C42.8798 97.8122 43.2749 97.4652 43.7731 97.4927L98.011 100.327C98.5092 100.355 98.8802 100.739 98.7462 101.124Z" fill="white"/>
<path opacity="0.4" d="M97.7018 104.519L92.5003 121.443C92.375 121.745 92.154 121.998 91.871 122.164C91.5881 122.329 91.2588 122.396 90.9337 122.356L48.5142 120.14C48.1869 120.145 47.8669 120.043 47.6028 119.85C47.3386 119.656 47.1448 119.382 47.0507 119.069L43.4604 100.767L97.7018 104.519Z" fill="#DF9C43"/>
<path d="M98.7462 101.124L97.7156 104.519L92.5141 121.442C92.3888 121.745 92.1677 121.998 91.8848 122.163C91.6018 122.328 91.2725 122.396 90.9474 122.356L48.5142 120.14C48.1869 120.145 47.8669 120.043 47.6027 119.85C47.3386 119.656 47.1448 119.382 47.0506 119.068L43.4604 100.767L42.9588 98.2073C42.8798 97.8122 43.2749 97.4652 43.7731 97.4927L98.011 100.327C98.5092 100.355 98.8802 100.739 98.7462 101.124Z" stroke="#263238" stroke-width="0.35071" stroke-linecap="round" stroke-linejoin="round"/>
<path d="M60.817 102.478L60.4013 101.743C60.2586 101.527 60.0623 101.352 59.8317 101.234C59.6011 101.117 59.344 101.061 59.0855 101.073H50.7576C50.5599 101.051 50.3616 101.108 50.205 101.23C50.0484 101.353 49.9459 101.532 49.9193 101.729V102.478H43.2817C42.7698 102.478 42.3884 102.842 42.4915 103.234L47.906 124.318H92.8575L98.272 103.234C98.3717 102.842 97.9903 102.478 97.4818 102.478H60.817Z" fill="#BFBFBF" stroke="#263238" stroke-width="0.35071" stroke-linecap="round" stroke-linejoin="round"/>
<path d="M92.0365 126.262H48.7204C47.968 126.262 47.3221 125.847 47.1744 125.269L41.8938 104.718C41.7942 104.326 42.1755 103.962 42.684 103.962H98.0729C98.5814 103.962 98.9627 104.326 98.8631 104.718L93.586 125.269C93.4348 125.847 92.7889 126.262 92.0365 126.262Z" fill="white" stroke="#263238" stroke-width="0.35071" stroke-linecap="round" stroke-linejoin="round"/>
<path d="M60.6316 107.484L60.209 106.752C60.0629 106.532 59.8626 106.353 59.6273 106.233C59.3921 106.112 59.1298 106.055 58.8657 106.065H50.3763C50.177 106.042 49.9766 106.097 49.8172 106.219C49.6577 106.341 49.5515 106.52 49.5209 106.718V107.467H42.7561C42.2374 107.467 41.8491 107.831 41.9522 108.219L47.4698 129.242H93.2905L98.8115 108.219C98.9146 107.831 98.5229 107.467 98.0042 107.467L60.6316 107.484Z" fill="#BFBFBF" stroke="#263238" stroke-width="0.35071" stroke-linecap="round" stroke-linejoin="round"/>
<path d="M92.4556 131.258H48.3046C47.5384 131.258 46.8788 130.845 46.7276 130.272L41.3475 109.778C41.2444 109.39 41.6326 109.026 42.1548 109.026H98.6087C99.1275 109.026 99.5157 109.39 99.4127 109.778L94.0325 130.272C93.8814 130.845 93.2217 131.258 92.4556 131.258Z" fill="white" stroke="#263238" stroke-width="0.35071" stroke-linecap="round" stroke-linejoin="round"/>
<path d="M101.429 154.94H39.3342L25.7429 116.396H115.021L101.429 154.94Z" fill="#DF9C43"/>
<path opacity="0.3" d="M101.429 154.94H39.3342L25.7429 116.396H115.021L101.429 154.94Z" fill="black" fill-opacity="0.7"/>
<path d="M101.429 154.94H39.3342L25.7429 116.396H115.021L101.429 154.94Z" stroke="#263238" stroke-width="0.35071" stroke-linecap="round" stroke-linejoin="round"/>
<path d="M113.839 111.325H26.9248L25.7429 116.396H115.021L113.839 111.325Z" fill="#DF9C43" stroke="#263238" stroke-width="0.35071" stroke-linecap="round" stroke-linejoin="round"/>
<path d="M48.8304 134.054L47.9578 142.283H92.8028L91.9336 134.054H89.9546L90.5181 139.929H50.2424L50.8093 134.054H48.8304Z" fill="#BFBFBF" stroke="#263238" stroke-width="0.35071" stroke-linecap="round" stroke-linejoin="round"/>
<path d="M92.4661 144.176H48.2979L47.9578 142.283H92.8028L92.4661 144.176Z" fill="#757575" stroke="#263238" stroke-width="0.35071" stroke-linecap="round" stroke-linejoin="round"/>
<path d="M89.9546 134.054L89.6763 136.236L89.9546 139.929H90.518L89.9546 134.054Z" fill="#757575" stroke="#263238" stroke-width="0.35071" stroke-linecap="round" stroke-linejoin="round"/>
<path d="M50.8093 134.054L51.0842 136.236L50.8093 139.929H50.2424L50.8093 134.054Z" fill="#757575" stroke="#263238" stroke-width="0.35071" stroke-linecap="round" stroke-linejoin="round"/>
<path d="M84.8285 129.928H55.9316L54.554 122.944H86.2097L84.8285 129.928Z" fill="white" stroke="#263238" stroke-width="0.35071" stroke-linecap="round" stroke-linejoin="round"/>
<path d="M63.6124 128.051C63.4128 128.051 63.2366 128.031 63.0837 127.993C62.9333 127.954 62.8063 127.882 62.7027 127.779C62.6016 127.675 62.5251 127.527 62.4733 127.336C62.424 127.144 62.3994 126.894 62.3994 126.585C62.3994 126.279 62.4253 126.031 62.4772 125.839C62.529 125.644 62.6055 125.495 62.7065 125.392C62.8076 125.288 62.9333 125.217 63.0837 125.178C63.2366 125.136 63.4128 125.116 63.6124 125.116C63.8146 125.116 63.9908 125.136 64.1411 125.178C64.2941 125.217 64.4211 125.288 64.5221 125.392C64.6232 125.495 64.6984 125.644 64.7476 125.839C64.7995 126.031 64.8254 126.279 64.8254 126.585C64.8254 126.894 64.7995 127.144 64.7476 127.336C64.6984 127.527 64.6219 127.675 64.5183 127.779C64.4172 127.882 64.2915 127.954 64.1411 127.993C63.9908 128.031 63.8146 128.051 63.6124 128.051ZM63.6124 127.448C63.7187 127.448 63.8068 127.437 63.8768 127.413C63.9468 127.387 64.0012 127.345 64.0401 127.285C64.0815 127.223 64.11 127.136 64.1256 127.025C64.1437 126.91 64.1528 126.764 64.1528 126.585C64.1528 126.401 64.1437 126.252 64.1256 126.138C64.11 126.024 64.0815 125.937 64.0401 125.878C64.0012 125.815 63.9468 125.774 63.8768 125.753C63.8068 125.73 63.7187 125.718 63.6124 125.718C63.5087 125.718 63.4219 125.73 63.3519 125.753C63.2819 125.774 63.2262 125.815 63.1847 125.878C63.1459 125.937 63.1174 126.024 63.0992 126.138C63.0811 126.252 63.072 126.401 63.072 126.585C63.072 126.764 63.0798 126.91 63.0953 127.025C63.1135 127.136 63.142 127.223 63.1809 127.285C63.2223 127.345 63.2781 127.387 63.348 127.413C63.418 127.437 63.5061 127.448 63.6124 127.448Z" fill="black"/>
<path d="M66.3226 128.047C66.1619 128.047 66.0116 128.034 65.8716 128.008C65.7342 127.982 65.6124 127.934 65.5061 127.864C65.3999 127.794 65.3169 127.697 65.2573 127.573C65.2003 127.446 65.1718 127.284 65.1718 127.087V125.143H65.8444V127.083C65.8444 127.168 65.8625 127.238 65.8988 127.293C65.9377 127.345 65.9921 127.383 66.0621 127.409C66.1347 127.433 66.2215 127.444 66.3226 127.444C66.4211 127.444 66.5053 127.433 66.5753 127.409C66.6479 127.383 66.7023 127.345 66.7386 127.293C66.7774 127.238 66.7969 127.168 66.7969 127.083V125.143H67.4695V127.087C67.4695 127.284 67.4397 127.446 67.3801 127.573C67.323 127.697 67.2414 127.794 67.1351 127.864C67.0289 127.934 66.907 127.982 66.7697 128.008C66.6323 128.034 66.4833 128.047 66.3226 128.047Z" fill="black"/>
<path d="M67.8911 128.028V125.143H69.1041C69.2259 125.143 69.3374 125.158 69.4385 125.189C69.5421 125.218 69.6315 125.269 69.7067 125.341C69.7845 125.411 69.8441 125.507 69.8855 125.629C69.9296 125.751 69.9516 125.905 69.9516 126.091C69.9516 126.218 69.94 126.327 69.9166 126.418C69.8933 126.506 69.8622 126.581 69.8233 126.644C69.7845 126.703 69.7391 126.752 69.6873 126.791C69.638 126.83 69.5862 126.864 69.5318 126.892L70.0488 128.028H69.3646L68.933 127.001C68.9071 127.001 68.8773 127.001 68.8436 127.001C68.8125 126.999 68.7814 126.997 68.7503 126.997C68.7192 126.997 68.6868 126.997 68.6531 126.997C68.622 126.997 68.5922 126.997 68.5637 126.997V128.028H67.8911ZM68.5637 126.465H68.9836C69.0302 126.465 69.0717 126.459 69.108 126.449C69.1443 126.436 69.1754 126.415 69.2013 126.387C69.2272 126.356 69.2467 126.317 69.2596 126.27C69.2726 126.224 69.2791 126.165 69.2791 126.095C69.2791 126.025 69.2726 125.968 69.2596 125.924C69.2467 125.878 69.2272 125.843 69.2013 125.819C69.1754 125.793 69.1443 125.775 69.108 125.765C69.0717 125.752 69.0302 125.745 68.9836 125.745H68.5637V126.465Z" fill="black"/>
<path d="M71.3423 128.028V125.835C71.3423 125.7 71.363 125.587 71.4045 125.497C71.4485 125.406 71.503 125.336 71.5678 125.287C71.6352 125.235 71.7103 125.199 71.7933 125.178C71.8762 125.154 71.9565 125.143 72.0343 125.143C72.1198 125.143 72.2326 125.144 72.3725 125.147C72.5151 125.149 72.6667 125.154 72.8274 125.162C72.9907 125.17 73.1462 125.183 73.2939 125.201V125.765H72.2248C72.1522 125.765 72.0991 125.784 72.0654 125.823C72.0317 125.862 72.0149 125.907 72.0149 125.959V126.364L73.1034 126.399V126.931L72.0149 126.966V128.028H71.3423Z" fill="black"/>
<path d="M73.6279 128.028V125.143H74.3005V128.028H73.6279Z" fill="black"/>
<path d="M75.4785 128.028C75.3152 128.028 75.1804 128.003 75.0742 127.954C74.9679 127.904 74.8889 127.827 74.837 127.72C74.7852 127.614 74.7593 127.477 74.7593 127.308V125.143H75.4319V127.196C75.4319 127.25 75.4396 127.294 75.4552 127.328C75.4733 127.361 75.4992 127.386 75.5329 127.402C75.5692 127.417 75.6107 127.425 75.6573 127.425H76.5321V128.028H75.4785Z" fill="black"/>
<path d="M77.5784 128.051C77.5162 128.051 77.4424 128.044 77.3568 128.031C77.2739 128.018 77.1935 127.991 77.1158 127.95C77.038 127.906 76.9732 127.84 76.9214 127.752C76.8696 127.661 76.8436 127.539 76.8436 127.386V125.835C76.8436 125.7 76.8644 125.587 76.9058 125.497C76.9499 125.406 77.0043 125.336 77.0691 125.287C77.1365 125.235 77.2117 125.199 77.2946 125.178C77.3776 125.154 77.4579 125.143 77.5357 125.143C77.743 125.143 77.9231 125.147 78.0761 125.154C78.229 125.16 78.3638 125.166 78.4804 125.174C78.597 125.182 78.702 125.189 78.7953 125.197V125.765H77.7378C77.6678 125.765 77.6134 125.782 77.5745 125.815C77.5357 125.847 77.5162 125.897 77.5162 125.967V126.286L78.6048 126.325V126.853L77.5162 126.888V127.192C77.5162 127.249 77.5253 127.294 77.5434 127.328C77.5616 127.359 77.5862 127.382 77.6173 127.398C77.6484 127.413 77.6821 127.421 77.7184 127.421H78.7953V127.985C78.6813 127.998 78.5543 128.009 78.4143 128.02C78.2743 128.03 78.1318 128.037 77.9866 128.039C77.8441 128.044 77.708 128.048 77.5784 128.051Z" fill="black"/>
<path d="M72.316 62.3739L72.0308 61.5665C71.94 61.3366 71.7879 61.136 71.591 60.9864C71.3942 60.8368 71.1601 60.7439 70.9143 60.718L63.2735 59.7354C63.0836 59.699 62.887 59.7393 62.7267 59.8475C62.5664 59.9556 62.4554 60.1228 62.418 60.3125L62.3184 61.0856L56.2305 60.2988C56.1292 60.2776 56.0245 60.2795 55.9241 60.3044C55.8237 60.3293 55.7303 60.3765 55.6507 60.4425C55.5711 60.5086 55.5074 60.5918 55.4644 60.6859C55.4215 60.7799 55.4003 60.8825 55.4025 60.9859L57.5704 83.3655L98.7977 88.6804L106.566 67.5823C106.594 67.4831 106.599 67.3788 106.581 67.2772C106.563 67.1757 106.523 67.0794 106.463 66.9956C106.403 66.9118 106.325 66.8426 106.234 66.7931C106.144 66.7436 106.043 66.7151 105.94 66.7097L72.316 62.3739Z" fill="white"/>
<path opacity="0.4" d="M72.316 62.3739L72.0308 61.5665C71.94 61.3366 71.7879 61.136 71.591 60.9864C71.3942 60.8368 71.1601 60.7439 70.9143 60.718L63.2735 59.7354C63.0836 59.699 62.887 59.7393 62.7267 59.8475C62.5664 59.9556 62.4554 60.1228 62.418 60.3125L62.3184 61.0856L56.2305 60.2988C56.1292 60.2776 56.0245 60.2795 55.9241 60.3044C55.8237 60.3293 55.7303 60.3765 55.6507 60.4425C55.5711 60.5086 55.5074 60.5918 55.4644 60.6859C55.4215 60.7799 55.4003 60.8825 55.4025 60.9859L57.5704 83.3655L98.7977 88.6804L106.566 67.5823C106.594 67.4831 106.599 67.3788 106.581 67.2772C106.563 67.1757 106.523 67.0794 106.463 66.9956C106.403 66.9118 106.325 66.8426 106.234 66.7931C106.144 66.7436 106.043 66.7151 105.94 66.7097L72.316 62.3739Z" fill="#DF9C43"/>
<path d="M72.316 62.3739L72.0308 61.5665C71.94 61.3366 71.7879 61.136 71.591 60.9864C71.3942 60.8368 71.1601 60.7439 70.9143 60.718L63.2735 59.7354C63.0836 59.699 62.887 59.7393 62.7267 59.8475C62.5664 59.9556 62.4554 60.1228 62.418 60.3125L62.3184 61.0856L56.2305 60.2988C56.1292 60.2776 56.0245 60.2795 55.9241 60.3044C55.8237 60.3293 55.7303 60.3765 55.6507 60.4425C55.5711 60.5086 55.5074 60.5918 55.4644 60.6859C55.4215 60.7799 55.4003 60.8825 55.4025 60.9859L57.5704 83.3655L98.7977 88.6804L106.566 67.5823C106.594 67.4831 106.599 67.3788 106.581 67.2772C106.563 67.1757 106.523 67.0794 106.463 66.9956C106.403 66.9118 106.325 66.8426 106.234 66.7931C106.144 66.7436 106.043 66.7151 105.94 66.7097L72.316 62.3739Z" stroke="#263238" stroke-width="0.35071" stroke-linecap="round" stroke-linejoin="round"/>
<path d="M106.964 68.8534L99.9316 87.9519L99.3888 89.4223C99.2617 89.7155 99.04 89.9574 98.759 90.1094C98.478 90.2614 98.1541 90.3147 97.8393 90.2606L58.1031 85.1416C57.7847 85.1136 57.485 84.9796 57.252 84.7609C57.019 84.5422 56.8662 84.2516 56.8181 83.9357L54.7052 62.1196C54.703 62.0162 54.7242 61.9136 54.7672 61.8195C54.8101 61.7254 54.8738 61.6422 54.9534 61.5762C55.033 61.5101 55.1265 61.4629 55.2269 61.438C55.3273 61.4131 55.432 61.4112 55.5332 61.4324L89.3465 65.7922L106.339 67.9807C106.442 67.9861 106.542 68.0146 106.633 68.0641C106.723 68.1136 106.801 68.1829 106.861 68.2667C106.922 68.3505 106.962 68.4467 106.98 68.5483C106.998 68.6499 106.992 68.7541 106.964 68.8534Z" fill="white"/>
<path opacity="0.3" d="M106.964 68.8531L99.9316 87.9516C94.9465 86.7732 94.7576 83.6674 93.9227 82.0595C93.002 80.2868 87.1649 79.3454 85.5329 79.0603C83.901 78.7751 82.9081 77.1226 82.9081 77.1226C81.4377 72.9998 89.1129 69.3925 89.1129 69.3925C88.9617 68.8256 89.185 66.9669 89.3465 65.7919L106.339 67.9804C106.442 67.9858 106.542 68.0143 106.633 68.0638C106.723 68.1133 106.801 68.1826 106.861 68.2664C106.922 68.3502 106.962 68.4464 106.98 68.548C106.998 68.6496 106.992 68.7538 106.964 68.8531Z" fill="black" fill-opacity="0.7"/>
<path d="M106.964 68.8534L99.9316 87.9519L99.3888 89.4223C99.2617 89.7155 99.04 89.9574 98.759 90.1094C98.478 90.2614 98.1541 90.3147 97.8393 90.2606L58.1031 85.1416C57.7847 85.1136 57.485 84.9796 57.252 84.7609C57.019 84.5422 56.8662 84.2516 56.8181 83.9357L54.7052 62.1196C54.703 62.0162 54.7242 61.9136 54.7672 61.8195C54.8101 61.7254 54.8738 61.6422 54.9534 61.5762C55.033 61.5101 55.1265 61.4629 55.2269 61.438C55.3273 61.4131 55.432 61.4112 55.5332 61.4324L89.3465 65.7922L106.339 67.9807C106.442 67.9861 106.542 68.0146 106.633 68.0641C106.723 68.1136 106.801 68.1829 106.861 68.2667C106.922 68.3505 106.962 68.4467 106.98 68.5483C106.998 68.6499 106.992 68.7541 106.964 68.8534Z" stroke="#263238" stroke-width="0.35071" stroke-linecap="round" stroke-linejoin="round"/>
<path d="M62.1777 67.9976L62.7206 81.4961L67.6129 82.1317L68.1866 68.6744L62.1777 67.9976Z" fill="#DF9C43" stroke="#263238" stroke-width="0.35071" stroke-linecap="round" stroke-linejoin="round"/>
<path d="M65.1633 80.5067C65.225 80.2677 65.2354 80.0183 65.1939 79.775C65.1525 79.5316 65.0601 79.2998 64.9228 79.0946C64.6467 78.6851 64.3122 78.3182 63.9299 78.0056C64.4991 78.3301 65.1276 78.5369 65.7783 78.6137C65.7783 77.9094 65.0912 77.4215 64.5037 77.0539C64.6375 77.0017 64.7814 76.9802 64.9247 76.9909C65.068 77.0016 65.207 77.0442 65.3317 77.1157C65.3406 77.0068 65.3235 76.8973 65.2817 76.7963C65.2399 76.6953 65.1745 76.6058 65.0912 76.5351C65.1633 76.597 65.2836 76.4973 65.2801 76.3977C65.2597 76.3012 65.2174 76.2107 65.1564 76.1332C65.0642 75.9263 65.0275 75.6989 65.0499 75.4735C65.0499 74.6627 65.074 73.8553 65.0877 73.048C65.099 73.1215 65.1318 73.1901 65.1819 73.2451C65.232 73.3001 65.2973 73.3391 65.3695 73.3572C65.3695 73.0377 65.3317 72.7182 65.3007 72.4021C65.2217 71.5913 65.1461 70.7839 65.0706 69.9731" stroke="#263238" stroke-width="0.35071" stroke-linecap="round" stroke-linejoin="round"/>
<path d="M142.887 111.898C142.887 111.898 115.162 87.0931 113.392 85.5299C111.623 83.9667 110.335 84.0354 109.383 83.0837C108.431 82.132 107.957 81.4518 104.085 81.5205C100.213 81.5892 95.0461 79.4832 93.8918 78.7342C92.7374 77.9853 91.1055 78.5315 90.0164 78.1089C88.9273 77.6864 86.1445 78.054 84.4439 78.1089C82.7432 78.1639 82.6092 76.4221 83.2895 74.4535C83.9697 72.4849 89.13 71.2583 89.8171 71.6672C90.5043 72.076 93.215 70.9182 93.215 70.9182C92.8061 69.4924 92.9436 66.0259 92.9436 66.0259C92.9436 66.0259 90.0886 64.8028 88.9995 64.394C88.1639 64.1435 87.2888 64.0515 86.4193 64.1226C86.4193 64.1226 86.7629 62.5663 87.3023 61.9856C87.8417 61.405 90.4287 60.8622 92.9436 59.0963C95.4584 57.3304 97.0182 56.9216 97.427 57.0555C97.8359 57.1895 100.622 58.0072 101.368 58.0072C102.113 58.0072 103.202 57.3201 104.291 57.5331C105.38 57.7461 107.349 59.433 108.232 59.6391C109.115 59.8453 109.383 60.0273 110.544 60.0273C111.053 60.0273 113.124 61.5424 113.124 61.5424C113.993 61.7084 114.838 61.9819 115.639 62.3567C116.931 62.9682 118.291 65.8919 118.903 66.823C119.515 67.754 119.59 70.0868 119.59 70.0868C119.59 70.0868 121.222 70.9698 121.834 72.1928C122.445 73.4159 144.917 85.5299 144.917 85.5299C144.917 85.5299 148.484 99.4372 142.887 111.898Z" fill="white"/>
<path opacity="0.4" d="M123.132 94.2288C118.164 89.7831 114.042 86.1002 113.396 85.5299C111.626 83.9667 110.338 84.0354 109.386 83.0837C108.435 82.132 107.957 81.4552 104.085 81.5205C100.213 81.5858 95.0462 79.4832 93.8918 78.7342C92.7374 77.9853 91.1055 78.5315 90.0164 78.1089C88.9273 77.6864 86.1445 78.0574 84.4439 78.1089C82.7432 78.1605 82.6092 76.4255 83.2895 74.4535C83.9697 72.4814 89.13 71.2618 89.8171 71.6672C90.5043 72.0726 93.215 70.9217 93.215 70.9217C92.8061 69.4924 92.9436 66.0259 92.9436 66.0259C92.9436 66.0259 90.0886 64.8028 89.0029 64.3974C88.1665 64.1451 87.2899 64.0531 86.4193 64.126C86.4193 64.126 86.7629 62.5663 87.3023 61.9856C87.8417 61.405 90.4287 60.8622 92.9436 59.0963C95.4584 57.3304 97.0216 56.9216 97.427 57.0555C97.8324 57.1895 100.622 58.0072 101.371 58.0072C101.938 58.0072 102.704 57.6155 103.518 57.5159C102.859 57.8835 102.402 58.5844 102.525 58.9589C102.721 59.5498 103.274 61.0546 103.305 61.1508C103.158 61.0065 99.5949 57.4884 97.293 57.6705C95.3038 57.8251 93.2837 61.1748 93.6238 63.6347C93.9639 66.0946 93.1394 66.0946 93.586 67.9292C94.0326 69.7639 94.438 72.3474 93.7578 73.3678C93.0775 74.3882 91.7205 72.5742 91.7205 72.5742C91.2109 72.8538 90.7839 73.2626 90.4824 73.7596C90.1808 74.2565 90.0154 74.824 90.0027 75.4051C90.0027 77.3772 92.0469 77.5111 93.2802 77.7173C94.5136 77.9234 98.9834 80.3799 102.048 80.5104L105.112 80.6376C105.112 80.6376 103.343 78.2326 104.082 78.1089C104.82 77.9853 107.071 78.2051 108.565 80.5139C110.06 82.8226 111.176 83.3345 113.915 84.4683C115.498 85.1176 119.765 89.7247 123.132 94.2288Z" fill="#DF9C43"/>
<path opacity="0.4" d="M136.71 81.0634C136.294 80.8676 122.967 74.5873 122.297 73.6494C121.627 72.7115 120.803 72.4813 120.054 71.5365C119.305 70.5917 116.793 69.9802 116.453 68.6884C116.113 67.3966 115.704 63.4765 115.079 62.9921C114.565 62.615 114.02 62.2817 113.451 61.9958L114.461 64.5141C114.461 64.5141 112.159 61.2537 111.613 61.1644C111.066 61.0751 112.204 63.535 112.104 63.4594C112.004 63.3838 109.51 61.0544 107.421 59.2885C107.669 59.4381 107.936 59.5537 108.215 59.6321C109.101 59.8348 109.369 60.0203 110.527 60.0203C111.035 60.0203 113.111 61.5354 113.111 61.5354C113.979 61.7014 114.824 61.9749 115.625 62.3497C116.914 62.9612 118.274 65.8849 118.886 66.8366C119.497 67.7882 119.573 70.097 119.573 70.097C119.573 70.097 121.205 70.9799 121.816 72.203C122.184 72.9348 130.22 77.4732 136.71 81.0634Z" fill="#DF9C43"/>
<path d="M142.887 111.898C142.887 111.898 115.162 87.0931 113.392 85.5299C111.623 83.9667 110.335 84.0354 109.383 83.0837C108.431 82.132 107.957 81.4518 104.085 81.5205C100.213 81.5892 95.0461 79.4832 93.8918 78.7342C92.7374 77.9853 91.1055 78.5315 90.0164 78.1089C88.9273 77.6864 86.1445 78.054 84.4439 78.1089C82.7432 78.1639 82.6092 76.4221 83.2895 74.4535C83.9697 72.4849 89.13 71.2583 89.8171 71.6672C90.5043 72.076 93.215 70.9182 93.215 70.9182C92.8061 69.4924 92.9436 66.0259 92.9436 66.0259C92.9436 66.0259 90.0886 64.8028 88.9995 64.394C88.1639 64.1435 87.2888 64.0515 86.4193 64.1226C86.4193 64.1226 86.7629 62.5663 87.3023 61.9856C87.8417 61.405 90.4287 60.8622 92.9436 59.0963C95.4584 57.3304 97.0182 56.9216 97.427 57.0555C97.8359 57.1895 100.622 58.0072 101.368 58.0072C102.113 58.0072 103.202 57.3201 104.291 57.5331C105.38 57.7461 107.349 59.433 108.232 59.6391C109.115 59.8453 109.383 60.0273 110.544 60.0273C111.053 60.0273 113.124 61.5424 113.124 61.5424C113.993 61.7084 114.838 61.9819 115.639 62.3567C116.931 62.9682 118.291 65.8919 118.903 66.823C119.515 67.754 119.59 70.0868 119.59 70.0868C119.59 70.0868 121.222 70.9698 121.834 72.1928C122.445 73.4159 144.917 85.5299 144.917 85.5299" stroke="#263238" stroke-width="0.35071" stroke-linecap="round" stroke-linejoin="round"/>
<path d="M92.9402 66.0262C92.9402 66.0262 93.2563 63.3533 92.9402 62.9789" stroke="#263238" stroke-width="0.35071" stroke-linecap="round" stroke-linejoin="round"/>
<path d="M101.32 59.481C101.32 59.481 105.94 63.3942 106.305 63.6347" stroke="#263238" stroke-width="0.35071" stroke-linecap="round" stroke-linejoin="round"/>
<path d="M105.662 58.1618C106.294 58.5603 111.424 63.1056 113.1 64.1466" stroke="#263238" stroke-width="0.35071" stroke-linecap="round" stroke-linejoin="round"/>
<path d="M119.576 70.1038C119.078 69.8084 117.766 69.1762 117.628 68.678" stroke="#263238" stroke-width="0.35071" stroke-linecap="round" stroke-linejoin="round"/>
<path d="M93.2117 70.9185C93.2117 70.9185 93.4831 72.0282 93.2117 72.5745" stroke="#263238" stroke-width="0.35071" stroke-linecap="round" stroke-linejoin="round"/>
<path d="M89.1335 74.4294C89.1335 74.4294 88.498 76.1988 89.9924 77.3738" stroke="#263238" stroke-width="0.35071" stroke-linecap="round" stroke-linejoin="round"/>
<path d="M95.2935 57.667C94.8185 58.1683 94.5039 58.7999 94.3899 59.481" stroke="#263238" stroke-width="0.35071" stroke-linecap="round" stroke-linejoin="round"/>
<path d="M88.23 62.9789C88.3812 63.3874 88.6166 63.7597 88.9208 64.0716C89.2249 64.3835 89.5912 64.628 89.9959 64.7894" stroke="#263238" stroke-width="0.35071" stroke-linecap="round" stroke-linejoin="round"/>
<path d="M108.569 82.3277C107.685 81.0492 106.714 79.8335 105.662 78.6894" stroke="#263238" stroke-width="0.35071" stroke-linecap="round" stroke-linejoin="round"/>
<path d="M13.5156 172.922C13.5156 172.922 35.7097 158.334 37.0702 156.451C37.7667 155.436 38.5886 154.513 39.5163 153.703C39.5163 153.703 40.1519 148.268 41.7804 145.458C43.4089 142.647 44.0479 140.565 44.7728 139.115C45.4977 137.666 48.9402 136.58 49.9262 136.023C50.9122 135.467 52.6438 134.395 53.6401 134.395C54.4006 134.455 55.1408 134.67 55.8148 135.027C55.8148 135.027 59.168 133.309 60.7106 134.395C60.7106 134.395 64.5138 134.574 65.4208 134.484C66.3278 134.395 67.6849 135.027 67.6849 135.027C67.6849 135.027 69.9524 133.402 71.4915 134.034C73.0307 134.666 73.7659 134.938 73.8071 135.845C73.8483 136.752 73.4258 139.83 73.4258 139.83H72.6699C72.6699 139.83 70.131 143.128 69.8596 143.791C69.5882 144.454 68.1418 148.075 68.1418 148.075C68.1418 148.075 70.0451 146.626 71.2338 145.54C72.4226 144.454 74.4942 142.365 76.669 141.823C78.8437 141.28 80.3863 142.51 80.3863 143.791C80.3863 143.791 77.8474 145.811 77.2943 146.444C76.7411 147.076 75.7688 148.711 74.6729 149.879C73.5769 151.047 71.0415 155.953 68.8667 158.307C66.692 160.66 57.1856 165.738 55.004 166.463C55.004 166.463 41.7735 175.705 35.9776 183.497C35.9845 183.524 20.2048 183.613 13.5156 172.922Z" fill="white"/>
<path opacity="0.4" d="M56.5533 164.498C56.7423 164.69 57.5153 164.807 58.6147 164.842C57.4509 165.467 56.2509 166.022 55.0211 166.504C55.0211 166.504 46.3599 172.534 39.9834 178.979C42.1788 175.485 46.3942 171.125 47.9609 170.218C50.1425 168.947 54.3339 164.845 54.3339 164.845C54.3339 164.845 55.9349 163.862 56.5533 164.498Z" fill="#DF9C43"/>
<path opacity="0.4" d="M71.2303 145.56C72.1582 144.648 73.1527 143.806 74.2056 143.042C73.0873 144.269 72.1775 145.671 71.5121 147.192C71.0929 149.47 67.1626 154.167 67.1626 154.167C68.4303 150.092 67.3412 149.274 67.6985 148.096C68.0558 146.917 68.3032 144.028 68.3032 144.028C68.3032 144.028 68.9903 142.843 69.7152 142.571C70.4401 142.3 72.3435 137.497 72.6973 136.848C73.0512 136.198 70.3508 135.13 69.6259 135.051C68.901 134.972 68.6296 136.226 67.1797 136.848C65.7299 137.469 63.909 138.61 63.2391 139.277C62.5692 139.943 61.4045 142.891 61.3289 143.073C61.3804 142.867 62.2016 139.558 62.4146 138.899C62.5932 138.349 64.3351 137.335 64.981 136.975C63.909 137.473 63.3078 136.528 62.4146 135.669C61.456 134.748 60.0268 134.456 58.4636 134.934C56.9004 135.412 55.8526 136.59 55.8457 136.501C55.8388 136.411 53.5095 136.002 52.7536 136.226C51.9978 136.449 50.2525 137.239 50.2525 137.239C50.2525 137.239 48.6653 136.325 46.0576 138.899C44.9685 139.974 41.344 148.175 41.8868 147.192C42.4296 146.21 44.7968 143.276 44.9445 143.094C44.7761 143.478 39.9697 154.273 38.9871 154.943C38.0046 155.613 37.7194 158.062 34.1773 160.059C30.8173 161.952 17.8582 170.097 16.5732 170.905C22.7092 166.83 36.0257 157.901 37.0666 156.455C37.7632 155.439 38.5851 154.516 39.5128 153.706C39.5128 153.706 40.1484 148.268 41.7803 145.461C43.4122 142.654 44.0444 140.565 44.7693 139.115C45.4942 137.665 48.9367 136.58 49.9227 136.023C50.9087 135.466 52.6437 134.391 53.64 134.391C54.4008 134.452 55.141 134.668 55.8148 135.027C55.8148 135.027 59.1679 133.309 60.7071 134.391C60.7071 134.391 64.5137 134.573 65.4173 134.48C66.3209 134.388 67.6848 135.027 67.6848 135.027C67.6848 135.027 69.9488 133.398 71.488 134.03C73.0272 134.663 73.7624 134.934 73.8036 135.841C73.8448 136.748 73.4222 139.826 73.4222 139.826H72.6664C72.6664 139.826 70.1309 143.128 69.8595 143.788C69.5881 144.447 68.1417 148.072 68.1417 148.072C68.1417 148.072 70.0519 146.646 71.2303 145.56Z" fill="#DF9C43"/>
<path opacity="0.4" d="M80.3828 143.811C80.3828 143.811 77.8473 145.832 77.2907 146.467C76.9644 146.849 76.4799 147.591 75.9165 148.377C76.1994 147.459 76.3938 146.516 76.4971 145.56C77.0315 144.781 77.7898 144.182 78.6719 143.842C79.2289 143.678 79.8143 143.634 80.3897 143.712C80.3906 143.745 80.3883 143.779 80.3828 143.811Z" fill="#DF9C43"/>
<path d="M13.5156 172.922C13.5156 172.922 35.7097 158.334 37.0702 156.451C37.7667 155.436 38.5886 154.513 39.5163 153.703C39.5163 153.703 40.1519 148.268 41.7804 145.458C43.4089 142.647 44.0479 140.565 44.7728 139.115C45.4977 137.666 48.9402 136.58 49.9262 136.023C50.9122 135.467 52.6438 134.395 53.6401 134.395C54.4006 134.455 55.1408 134.67 55.8148 135.027C55.8148 135.027 59.168 133.309 60.7106 134.395C60.7106 134.395 64.5138 134.574 65.4208 134.484C66.3278 134.395 67.6849 135.027 67.6849 135.027C67.6849 135.027 69.9524 133.402 71.4915 134.034C73.0307 134.666 73.7659 134.938 73.8071 135.845C73.8483 136.752 73.4258 139.83 73.4258 139.83H72.6699C72.6699 139.83 70.131 143.128 69.8596 143.791C69.5882 144.454 68.1418 148.075 68.1418 148.075C68.1418 148.075 70.0451 146.626 71.2338 145.54C72.4226 144.454 74.4942 142.365 76.669 141.823C78.8437 141.28 80.3863 142.51 80.3863 143.791C80.3863 143.791 77.8474 145.811 77.2943 146.444C76.7411 147.076 75.7688 148.711 74.6729 149.879C73.5769 151.047 71.0415 155.953 68.8667 158.307C66.692 160.66 57.1856 165.738 55.004 166.463C55.004 166.463 41.7735 175.705 35.9776 183.497" stroke="#263238" stroke-width="0.35071" stroke-linecap="round" stroke-linejoin="round"/>
<path d="M68.1485 148.096C68.1485 148.096 68.6914 150.813 67.6057 153.249" stroke="#263238" stroke-width="0.35071" stroke-linecap="round" stroke-linejoin="round"/>
<path d="M64.6167 137.133C65.7554 136.613 66.8003 135.909 67.7087 135.048" stroke="#263238" stroke-width="0.35071" stroke-linecap="round" stroke-linejoin="round"/>
<path d="M72.6802 139.851C72.9729 139.25 73.1711 138.608 73.2677 137.947" stroke="#263238" stroke-width="0.35071" stroke-linecap="round" stroke-linejoin="round"/>
<path d="M60.7207 134.415C59.6182 134.388 58.5421 134.754 57.6836 135.446" stroke="#263238" stroke-width="0.35071" stroke-linecap="round" stroke-linejoin="round"/>
<path d="M55.8251 135.048C55.8251 135.048 53.1075 136.315 52.1559 136.315C51.2042 136.315 49.665 137.587 49.665 137.947" stroke="#263238" stroke-width="0.35071" stroke-linecap="round" stroke-linejoin="round"/>
<path d="M39.5161 153.713C40.317 152.481 40.9708 151.16 41.4641 149.776" stroke="#263238" stroke-width="0.35071" stroke-linecap="round" stroke-linejoin="round"/>
<path d="M65.211 137.947C65.211 137.947 63.4932 138.401 62.9023 139.851C62.3113 141.3 59.5869 146.341 59.5869 146.341" stroke="#263238" stroke-width="0.35071" stroke-linecap="round" stroke-linejoin="round"/>
<path d="M56.5499 137.133C56.2063 137.992 52.1111 145.56 52.1111 145.56" stroke="#263238" stroke-width="0.35071" stroke-linecap="round" stroke-linejoin="round"/>
</svg>
