<svg width="25" height="24" viewBox="0 0 25 24" fill="none" xmlns="http://www.w3.org/2000/svg">
<path d="M9.79999 5H7.79999C7.26955 5 6.76085 5.21071 6.38577 5.58579C6.0107 5.96086 5.79999 6.46957 5.79999 7V19C5.79999 19.5304 6.0107 20.0391 6.38577 20.4142C6.76085 20.7893 7.26955 21 7.79999 21H17.8C18.3304 21 18.8391 20.7893 19.2142 20.4142C19.5893 20.0391 19.8 19.5304 19.8 19V7C19.8 6.46957 19.5893 5.96086 19.2142 5.58579C18.8391 5.21071 18.3304 5 17.8 5H15.8" stroke="white" stroke-width="2" stroke-linecap="round" stroke-linejoin="round"/>
<path d="M13.8 3H11.8C10.6954 3 9.79999 3.89543 9.79999 5C9.79999 6.10457 10.6954 7 11.8 7H13.8C14.9046 7 15.8 6.10457 15.8 5C15.8 3.89543 14.9046 3 13.8 3Z" stroke="white" stroke-width="2" stroke-linecap="round" stroke-linejoin="round"/>
<path d="M15.8 17V14M9.79999 17V12V17ZM12.8 17V16V17Z" stroke="white" stroke-width="2" stroke-linecap="round" stroke-linejoin="round"/>
</svg>
