<?xml version="1.0" encoding="UTF-8"?>
<!DOCTYPE svg PUBLIC "-//W3C//DTD SVG 1.1//EN" "http://www.w3.org/Graphics/SVG/1.1/DTD/svg11.dtd">
<svg xmlns="http://www.w3.org/2000/svg" version="1.1" width="1000px" height="782px" style="shape-rendering:geometricPrecision; text-rendering:geometricPrecision; image-rendering:optimizeQuality; fill-rule:evenodd; clip-rule:evenodd" xmlns:xlink="http://www.w3.org/1999/xlink">
<g><path style="opacity:0.957" fill="#fefffe" d="M 96.5,30.5 C 364.834,30.3333 633.167,30.5 901.5,31C 939,37.8333 961.167,60 968,97.5C 968.667,219.833 968.667,342.167 968,464.5C 960.015,503.153 936.515,525.319 897.5,531C 632.167,531.667 366.833,531.667 101.5,531C 62.4812,525.315 38.9812,503.149 31,464.5C 30.3333,342.167 30.3333,219.833 31,97.5C 37.9277,60.4073 59.761,38.074 96.5,30.5 Z M 108.5,51.5 C 370.833,52.1212 633.166,52.6212 895.5,53C 919.449,57.6201 935.283,71.4534 943,94.5C 944.476,99.4057 945.476,104.406 946,109.5C 946.667,223.5 946.667,337.5 946,451.5C 943.317,476.156 931.15,494.322 909.5,506C 905.653,507.616 901.653,508.616 897.5,509C 634.167,509.667 370.833,509.667 107.5,509C 75.1352,503.967 56.9685,485.134 53,452.5C 52.3333,338.5 52.3333,224.5 53,110.5C 55.1244,89.4094 64.6244,72.5761 81.5,60C 90.025,55.2115 99.025,52.3782 108.5,51.5 Z M 591.5,109.5 C 617.054,108.026 636.554,118.026 650,139.5C 653.607,144.953 655.107,150.787 654.5,157C 615.501,157.5 576.501,157.667 537.5,157.5C 546.454,131.207 564.454,115.207 591.5,109.5 Z M 811.5,109.5 C 841.397,108.855 862.23,122.189 874,149.5C 875.582,152.315 875.415,154.815 873.5,157C 834.496,157.833 795.496,157.667 756.5,156.5C 766.689,130.956 785.022,115.289 811.5,109.5 Z M 187.5,122.5 C 204.929,121.811 220.596,126.644 234.5,137C 199.084,157.789 163.918,178.956 129,200.5C 124.811,164.707 139.311,139.873 172.5,126C 177.596,124.64 182.596,123.474 187.5,122.5 Z"/></g>
<g><path style="opacity:0.978" fill="#fefffe" d="M 592.5,67.5 C 639,67.6557 672.166,88.6557 692,130.5C 699.896,150.996 701.563,171.996 697,193.5C 696.705,195.931 695.538,197.764 693.5,199C 641.167,199.333 588.833,199.667 536.5,200C 535.584,200.374 534.75,200.874 534,201.5C 536.073,227.473 548.24,247.306 570.5,261C 602.576,275.318 630.243,269.318 653.5,243C 665.706,235.589 676.206,237.422 685,248.5C 689.085,258.832 687.419,268.166 680,276.5C 648.048,308.946 610.215,318.446 566.5,305C 529.371,289.955 505.205,263.121 494,224.5C 481.819,175.383 492.986,132.55 527.5,96C 546.065,79.3831 567.732,69.8831 592.5,67.5 Z M 591.5,109.5 C 564.454,115.207 546.454,131.207 537.5,157.5C 576.501,157.667 615.501,157.5 654.5,157C 655.107,150.787 653.607,144.953 650,139.5C 636.554,118.026 617.054,108.026 591.5,109.5 Z"/></g>
<g><path style="opacity:0.978" fill="#fefffe" d="M 811.5,67.5 C 857.847,67.2463 891.014,87.913 911,129.5C 919.681,150.973 921.347,172.973 916,195.5C 915.535,196.931 914.701,198.097 913.5,199C 860.833,199.333 808.167,199.667 755.5,200C 754.584,200.374 753.75,200.874 753,201.5C 755.506,226.683 767.34,246.183 788.5,260C 820.224,275.484 847.891,270.15 871.5,244C 884.534,235.149 895.701,236.982 905,249.5C 907.42,257.126 906.753,264.46 903,271.5C 876.201,303.77 842.035,316.27 800.5,309C 760.217,298.721 732.384,274.221 717,235.5C 700.868,188.296 707.868,144.963 738,105.5C 757.562,83.1366 782.062,70.47 811.5,67.5 Z M 811.5,109.5 C 785.022,115.289 766.689,130.956 756.5,156.5C 795.496,157.667 834.496,157.833 873.5,157C 875.415,154.815 875.582,152.315 874,149.5C 862.23,122.189 841.397,108.855 811.5,109.5 Z"/></g>
<g><path style="opacity:0.979" fill="#fefffe" d="M 181.5,75.5 C 226.572,72.6228 261.739,89.6228 287,126.5C 297.79,143.509 294.623,157.342 277.5,168C 235.5,192.333 193.5,216.667 151.5,241C 159.862,249.181 169.862,254.181 181.5,256C 200.837,259.139 218.17,254.805 233.5,243C 241.871,234.297 249.871,225.297 257.5,216C 271.884,207.747 283.384,210.58 292,224.5C 293.921,233.911 292.588,242.911 288,251.5C 271.365,280.089 246.532,296.922 213.5,302C 162.783,308.882 123.616,291.049 96,248.5C 77.6521,214.089 75.6521,178.756 90,142.5C 108.558,103.765 139.058,81.4313 181.5,75.5 Z M 187.5,122.5 C 182.596,123.474 177.596,124.64 172.5,126C 139.311,139.873 124.811,164.707 129,200.5C 163.918,178.956 199.084,157.789 234.5,137C 220.596,126.644 204.929,121.811 187.5,122.5 Z"/></g>
<g><path style="opacity:0.982" fill="#fefffe" d="M 321.5,80.5 C 373.168,80.3333 424.834,80.5 476.5,81C 489.466,85.0807 494.633,93.9141 492,107.5C 490.444,112.28 488.111,116.613 485,120.5C 447.833,165 410.667,209.5 373.5,254C 407.833,254.333 442.167,254.667 476.5,255C 489.774,259.365 494.941,268.532 492,282.5C 489.832,291.686 483.999,296.852 474.5,298C 423.5,298.667 372.5,298.667 321.5,298C 310.645,295.328 304.979,288.328 304.5,277C 304.686,271.757 306.186,266.924 309,262.5C 346.809,216.39 384.976,170.556 423.5,125C 388.461,124.967 353.461,124.3 318.5,123C 306.198,116.793 302.032,106.96 306,93.5C 309.141,86.6889 314.307,82.3556 321.5,80.5 Z"/></g>
<g><path style="opacity:0.969" fill="#fefffe" d="M 821.5,317.5 C 829.7,317.511 835.533,321.178 839,328.5C 840.278,350.458 840.945,372.458 841,394.5C 850.196,384.97 859.696,375.803 869.5,367C 883.366,362.593 891.699,367.426 894.5,381.5C 894.239,385.45 893.072,389.117 891,392.5C 879.287,404.71 867.787,417.044 856.5,429.5C 866.423,440.926 876.923,451.926 888,462.5C 896.657,472.308 896.49,481.808 887.5,491C 880.364,494.455 873.364,494.122 866.5,490C 858,481.5 849.5,473 841,464.5C 840.758,470.884 840.092,477.218 839,483.5C 834.455,492.248 827.288,495.415 817.5,493C 813.532,492.036 810.365,489.869 808,486.5C 805.141,433.893 804.808,381.227 807,328.5C 809.821,322.023 814.655,318.356 821.5,317.5 Z"/></g>
<g><path style="opacity:0.975" fill="#fefffe" d="M 138.5,318.5 C 150.134,316.555 157.301,321.221 160,332.5C 160.333,372.5 160.667,412.5 161,452.5C 161.792,454.587 162.959,456.421 164.5,458C 181.691,459.868 187.524,469.034 182,485.5C 180.01,489.49 176.843,491.99 172.5,493C 148.309,494.82 133.142,483.986 127,460.5C 126.333,417.5 126.333,374.5 127,331.5C 128.092,324.597 131.926,320.263 138.5,318.5 Z"/></g>
<g><path style="opacity:0.956" fill="#fefffe" d="M 359.5,318.5 C 382.031,318.871 389.864,329.871 383,351.5C 375.597,360.299 366.431,362.799 355.5,359C 344.267,351.934 341.1,342.1 346,329.5C 349.188,324.138 353.688,320.472 359.5,318.5 Z"/></g>
<g><path style="opacity:0.968" fill="#fefffe" d="M 364.5,364.5 C 373.307,364.652 378.807,368.985 381,377.5C 381.667,412.5 381.667,447.5 381,482.5C 378.622,490.363 373.289,494.029 365,493.5C 357.252,493.962 351.918,490.629 349,483.5C 347.008,447.832 347.008,412.166 349,376.5C 351.542,368.992 356.708,364.992 364.5,364.5 Z"/></g>
<g><path style="opacity:0.969" fill="#fefffe" d="M 559.5,365.5 C 566.099,365.357 572.599,366.024 579,367.5C 596.345,362.88 612.512,365.38 627.5,375C 637.657,383.479 643.49,394.312 645,407.5C 647,432.5 647,457.5 645,482.5C 640.651,492.301 633.151,495.801 622.5,493C 616.535,490.905 613.035,486.738 612,480.5C 611.667,458.167 611.333,435.833 611,413.5C 608.434,401.639 601.6,397.806 590.5,402C 587.131,404.365 584.964,407.532 584,411.5C 583.95,435.541 583.283,459.541 582,483.5C 577.527,492.482 570.36,495.649 560.5,493C 554.136,491.298 550.636,487.132 550,480.5C 549.333,446.5 549.333,412.5 550,378.5C 550.758,372.286 553.924,367.953 559.5,365.5 Z"/></g>
<g><path style="opacity:0.957" fill="#fefffe" d="M 299.5,561.5 C 305.561,562.526 311.228,564.693 316.5,568C 318.541,570.642 319.041,573.475 318,576.5C 337.353,597.911 359.853,615.078 385.5,628C 391.039,633.471 391.872,639.638 388,646.5C 384.465,650.789 379.965,652.289 374.5,651C 371.088,649.545 367.921,647.712 365,645.5C 364.367,650.612 361.867,654.445 357.5,657C 343.837,657.5 330.171,657.667 316.5,657.5C 316.5,665.167 316.5,672.833 316.5,680.5C 329.171,680.333 341.838,680.5 354.5,681C 362.721,685.107 364.554,691.273 360,699.5C 358.745,700.211 357.579,701.044 356.5,702C 343.171,702.5 329.837,702.667 316.5,702.5C 316.5,710.5 316.5,718.5 316.5,726.5C 337.503,726.333 358.503,726.5 379.5,727C 387.369,731.279 389.202,737.446 385,745.5C 383.421,747.041 381.587,748.208 379.5,749C 329.5,749.667 279.5,749.667 229.5,749C 221.631,744.721 219.798,738.554 224,730.5C 225.579,728.959 227.413,727.792 229.5,727C 250.164,726.5 270.831,726.333 291.5,726.5C 291.5,718.5 291.5,710.5 291.5,702.5C 278.829,702.667 266.162,702.5 253.5,702C 249.198,700.065 247.198,696.732 247.5,692C 247.373,686.789 249.707,683.122 254.5,681C 266.829,680.5 279.162,680.333 291.5,680.5C 291.5,673.167 291.5,665.833 291.5,658.5C 278.106,658.925 264.773,658.425 251.5,657C 246.318,654.473 243.818,650.306 244,644.5C 239.39,649.059 233.89,651.226 227.5,651C 218.266,646.632 215.766,639.799 220,630.5C 243.157,617.411 264.157,601.411 283,582.5C 288.745,575.6 294.245,568.6 299.5,561.5 Z M 303.5,594.5 C 317.384,609.216 332.384,622.716 348.5,635C 318.833,635.667 289.167,635.667 259.5,635C 275.564,623.107 290.23,609.607 303.5,594.5 Z"/></g>
<g><path style="opacity:0.967" fill="#fefffe" d="M 459.5,563.5 C 475.973,564.102 480.306,571.769 472.5,586.5C 472.709,587.086 473.043,587.586 473.5,588C 504.5,588.333 535.5,588.667 566.5,589C 570.575,590.905 572.908,594.071 573.5,598.5C 572.516,621.477 571.349,644.477 570,667.5C 569.798,678.07 567.465,688.07 563,697.5C 559.835,701.666 555.668,704.166 550.5,705C 544.111,706.444 537.777,706.444 531.5,705C 524.345,699.08 523.678,692.413 529.5,685C 532.898,683.084 536.565,682.084 540.5,682C 542.487,680.681 543.654,678.848 544,676.5C 546.894,655.931 548.228,635.264 548,614.5C 547.5,614 547,613.5 546.5,613C 516.262,612.172 486.095,612.338 456,613.5C 453.217,617.951 450.05,622.117 446.5,626C 468.167,626.333 489.833,626.667 511.5,627C 516.351,628.869 519.184,632.369 520,637.5C 520.667,652.167 520.667,666.833 520,681.5C 519.444,686.389 516.944,689.889 512.5,692C 497.432,692.048 482.432,692.715 467.5,694C 463.973,696.216 461.806,699.383 461,703.5C 459.989,710.036 460.656,716.369 463,722.5C 465.758,724.643 468.924,725.81 472.5,726C 498.833,726.667 525.167,726.667 551.5,726C 553.952,725.71 556.285,725.044 558.5,724C 561.577,719.192 564.91,714.525 568.5,710C 579.251,706.537 585.251,710.37 586.5,721.5C 585.304,737.194 576.971,746.361 561.5,749C 529.5,749.667 497.5,749.667 465.5,749C 450.581,748.406 441.415,740.906 438,726.5C 437.833,697.161 437.333,667.828 436.5,638.5C 428.556,646.733 421.056,646.4 414,637.5C 411.774,632.314 412.107,627.314 415,622.5C 431.205,606.416 444.205,588.083 454,567.5C 455.812,566.023 457.645,564.69 459.5,563.5 Z M 463.5,648.5 C 473.886,648.191 484.219,648.524 494.5,649.5C 495.192,650.025 495.692,650.692 496,651.5C 496.667,656.833 496.667,662.167 496,667.5C 495.167,668.333 494.333,669.167 493.5,670C 483.067,670.95 472.734,670.617 462.5,669C 460.962,666.072 460.296,662.906 460.5,659.5C 460.043,655.347 461.043,651.68 463.5,648.5 Z"/></g>
<g><path style="opacity:0.937" fill="#fefffe" d="M 623.5,569.5 C 626.271,569.421 628.937,569.921 631.5,571C 638.268,575.468 644.768,580.301 651,585.5C 655.962,596.137 652.795,602.804 641.5,605.5C 639.366,605.485 637.366,604.985 635.5,604C 629.611,598.476 623.444,593.31 617,588.5C 613.352,579.937 615.519,573.604 623.5,569.5 Z"/></g>
<g><path style="opacity:0.966" fill="#fefffe" d="M 667.5,573.5 C 701.502,573.333 735.502,573.5 769.5,574C 777.377,578.023 779.543,584.19 776,592.5C 774.039,595.135 771.539,596.969 768.5,598C 742.833,598.333 717.167,598.667 691.5,599C 688.272,600.563 686.105,603.063 685,606.5C 684.333,641.5 684.333,676.5 685,711.5C 686.167,716 689,718.833 693.5,720C 720.167,720.333 746.833,720.667 773.5,721C 782.123,726.506 783.456,733.506 777.5,742C 776.167,742.667 774.833,743.333 773.5,744C 737.833,744.667 702.167,744.667 666.5,744C 662.835,742.332 660.668,739.499 660,735.5C 659.333,684.5 659.333,633.5 660,582.5C 661.113,578.234 663.613,575.234 667.5,573.5 Z"/></g>
<g><path style="opacity:0.943" fill="#fefffe" d="M 613.5,624.5 C 624.307,627.324 633.807,632.658 642,640.5C 646.137,650.562 642.97,657.228 632.5,660.5C 630.885,659.846 629.218,659.346 627.5,659C 619.979,653.505 612.812,647.671 606,641.5C 603.679,633.489 606.179,627.823 613.5,624.5 Z"/></g>
<g><path style="opacity:0.949" fill="#fefffe" d="M 638.5,677.5 C 650.443,677.268 655.276,682.935 653,694.5C 645.861,710.112 638.194,725.445 630,740.5C 623.125,745.999 616.458,745.666 610,739.5C 607.844,735.738 607.177,731.738 608,727.5C 616.508,713.153 624.508,698.487 632,683.5C 633.494,680.686 635.66,678.686 638.5,677.5 Z"/></g>
</svg>
