<svg width="68" height="36" viewBox="0 0 68 36" fill="none" xmlns="http://www.w3.org/2000/svg">
<path d="M2.23969 6.83106C2.23969 3.82211 4.67893 1.38287 7.68788 1.38287H60.4235C63.4324 1.38287 65.8717 3.82212 65.8717 6.83107V29.1753C65.8717 32.1842 63.4324 34.6235 60.4235 34.6235H7.68789C4.67893 34.6235 2.23969 32.1842 2.23969 29.1753V6.83106Z" fill="#DF9C43"/>
<path d="M60.9564 0.90802H7.04434C6.351 0.90792 5.66443 1.04436 5.02384 1.30954C4.38326 1.57473 3.80121 1.96346 3.31094 2.45355C2.82067 2.94363 2.43179 3.52546 2.16651 4.1658C1.90122 4.80615 1.76473 5.49246 1.76483 6.18554V29.8152C1.76483 31.2147 2.32098 32.5568 3.31094 33.5464C4.3009 34.536 5.64357 35.092 7.04358 35.092H60.9564C62.3564 35.092 63.6991 34.536 64.6891 33.5464C65.679 32.5568 66.2352 31.2147 66.2352 29.8152V6.18554C66.2353 5.49252 66.0988 4.80627 65.8336 4.16598C65.5683 3.52569 65.1795 2.94389 64.6893 2.45382C64.1991 1.96374 63.6172 1.57499 62.9767 1.30976C62.3362 1.04453 61.6497 0.90802 60.9564 0.90802ZM63.9318 31.9456C63.1882 33.0781 62.1908 33.6837 60.7697 33.6791C51.8436 33.6524 42.9151 33.6646 33.9905 33.6646H7.61503C5.11891 33.6646 3.48682 32.1725 3.25291 29.669C3.22776 29.4009 3.22472 29.1305 3.22472 28.8616C3.22472 21.6096 3.22268 14.3576 3.21862 7.10562C3.21862 6.22515 3.3771 5.39113 3.77027 4.60815C4.52459 3.10692 5.68351 2.31709 7.43293 2.31937C25.0704 2.33917 42.7079 2.34324 60.3453 2.33156C62.8666 2.33156 64.5246 3.86096 64.7501 6.39881C64.7738 6.66691 64.7768 6.9373 64.7768 7.20616C64.7768 14.4312 64.7786 21.6561 64.7821 28.8806C64.7829 29.9911 64.5406 31.0186 63.9318 31.9456Z" fill="white"/>
<path d="M28.8496 7.2787C26.5332 7.2787 24.383 7.28555 22.2328 7.2787C21.3025 7.27413 20.7349 6.80266 20.6472 6.01206C20.5436 5.0737 21.0343 4.44686 21.9715 4.33642C22.1863 4.31758 22.4021 4.31122 22.6176 4.31737C25.6105 4.31737 28.6027 4.32271 31.5956 4.31204C32.3271 4.31204 33.0342 4.35241 33.3702 5.1293C33.7001 5.89096 33.3824 6.51095 32.8772 7.10961C30.5662 9.847 28.2766 12.6019 25.9801 15.3515C25.7774 15.5945 25.5778 15.8397 25.2753 16.2068H29.7174C30.4184 16.2068 31.1194 16.1985 31.8204 16.2068C32.9115 16.2228 33.4631 16.7019 33.4928 17.6426C33.5233 18.6114 32.9747 19.1659 31.8501 19.1872C30.1791 19.2192 28.5074 19.1963 26.8357 19.1963C25.353 19.1963 23.8703 19.1963 22.3875 19.1963C21.7056 19.1963 21.0724 19.089 20.7676 18.3859C20.4705 17.7005 20.6495 17.0957 21.1288 16.526C23.6714 13.4984 26.1988 10.4563 28.8496 7.2787Z" fill="white"/>
<path d="M57.3923 30.3898C57.3923 30.9184 57.4205 31.2093 57.3869 31.4927C57.3046 32.1888 56.9001 32.5483 56.1914 32.5224C55.5194 32.4973 55.1201 32.1325 55.1171 31.4637C55.1003 28.2074 55.0988 24.951 55.1125 21.6947C55.1125 21.0229 55.6086 20.5751 56.2394 20.572C56.8985 20.572 57.3824 21.0374 57.3923 21.7617C57.4121 23.0748 57.3976 24.3887 57.3976 25.9151C58.0201 25.2836 58.5078 24.7726 59.0175 24.2767C59.637 23.6788 60.309 23.6346 60.7982 24.132C61.2873 24.6294 61.2271 25.3118 60.6458 25.9158C60.0286 26.5541 59.4084 27.1916 58.7592 27.7971C58.4544 28.0812 58.4338 28.2587 58.7493 28.5504C59.3809 29.1346 59.9806 29.7553 60.5841 30.37C61.215 31.0128 61.2957 31.7181 60.8126 32.214C60.3395 32.6984 59.5768 32.6245 58.9687 32.019C58.491 31.5429 58.0331 31.0517 57.3923 30.3898Z" fill="white"/>
<path d="M37.4656 28.1224C37.4656 27.0728 37.4503 26.0225 37.4701 24.9729C37.4877 24.0658 38.1361 23.5966 38.994 23.9066C39.3285 24.0269 39.6036 23.9828 39.916 23.9157C42.0151 23.4443 43.8575 24.7475 43.9985 26.8931C44.0952 28.3669 44.0602 29.8513 44.0305 31.3305C44.0137 32.1591 43.5619 32.5552 42.8296 32.5285C42.1104 32.5019 41.7408 32.0792 41.7332 31.2284C41.7225 29.9336 41.7332 28.6441 41.7279 27.3523C41.7225 26.6082 41.3286 26.1253 40.7511 26.1162C40.1735 26.107 39.7453 26.5815 39.7362 27.3188C39.7201 28.6136 39.7361 29.9031 39.7293 31.1949C39.7247 32.0952 39.3483 32.5263 38.5864 32.524C37.8244 32.5217 37.4701 32.1142 37.4656 31.1903C37.4617 30.1682 37.4656 29.1453 37.4656 28.1224Z" fill="white"/>
<path d="M8.36163 25.8443C8.36163 24.5494 8.35325 23.2615 8.36163 21.9697C8.36925 21.0275 8.76927 20.5881 9.56626 20.6094C10.3015 20.6284 10.649 21.0664 10.6505 21.9895C10.6505 24.4108 10.6612 26.8329 10.6444 29.2542C10.6406 29.8361 10.729 30.1948 11.4353 30.2916C12.0761 30.3792 12.3405 30.9199 12.2536 31.5704C12.1698 32.2003 11.782 32.4973 11.1557 32.5263C9.67293 32.5956 8.40734 31.3838 8.36696 29.7988C8.33572 28.4811 8.36239 27.1627 8.36163 25.8443Z" fill="white"/>
<path d="M25.8749 28.2197C25.8749 29.2678 25.8871 30.3166 25.8711 31.3638C25.8589 32.1369 25.4619 32.5269 24.7426 32.5246C24.0401 32.5246 23.6195 32.1133 23.6142 31.3494C23.6 29.2264 23.6 27.1031 23.6142 24.9796C23.6195 24.2538 24.0988 23.7853 24.7571 23.7899C25.4154 23.7945 25.8612 24.2538 25.8711 24.9941C25.8848 26.0696 25.8741 27.145 25.8749 28.2197Z" fill="white"/>
<path d="M24.7045 20.6076C25.5175 20.5909 26.1324 21.1796 26.1522 21.9954C26.1751 22.8233 25.6044 23.4174 24.767 23.4372C23.9296 23.457 23.3292 22.885 23.3193 22.0593C23.3155 21.22 23.8824 20.6244 24.7045 20.6076Z" fill="white"/>
<path d="M44.506 4.54302C42.1151 2.9702 38.8189 3.14385 36.4965 4.95812C32.7249 7.90574 32.2258 13.7027 35.4229 17.4287C38.3549 20.8455 43.6009 20.924 46.436 17.594C47.0326 16.8925 47.0403 16.0517 46.4551 15.5002C45.8699 14.9488 45.0348 15.0105 44.3803 15.6678C43.9993 16.0486 43.6085 16.4134 43.1269 16.6739C40.3321 18.1851 37.0611 16.4515 36.3357 13.1002C36.226 12.593 36.2595 12.4003 36.8561 12.4147C38.5263 12.4536 40.1988 12.4285 41.8697 12.4285C43.5407 12.4285 45.2124 12.4285 46.8841 12.4285C47.1614 12.4285 47.4311 12.5115 47.5401 12.0591C48.2335 9.17846 47.0547 6.2179 44.506 4.54302ZM44.3628 9.61413C41.7798 9.60118 39.1968 9.60804 36.527 9.60804C37.6143 6.60102 40.6521 5.39912 43.0515 6.93081C43.8523 7.44341 44.3887 8.16318 44.7019 9.05812C44.82 9.40163 44.8459 9.61642 44.3628 9.61413Z" fill="white"/>
<path d="M16.839 14.1586C16.0291 15.2653 15.0866 16.3987 12.9531 16.3987C10.8197 16.3987 10.0105 15.2653 10.0105 15.2653C10.0105 15.2653 15.3761 12.1958 17.6231 10.9239C19.87 9.65189 19.7847 9.12254 19.7847 8.5155C19.7847 7.90846 17.7838 3.99811 12.9043 3.99811C8.02486 3.99811 5.19043 8.08669 5.19043 11.7091C5.19043 15.3316 7.80923 19.5154 12.9783 19.5154C18.1473 19.5154 20.2807 15.3864 19.6834 14.1586C19.086 12.9308 17.649 13.0519 16.839 14.1586ZM8.38755 12.0526C8.37688 11.8896 8.37612 11.7335 8.37612 11.7335C8.37612 10.5215 8.85777 9.35909 9.71512 8.50206C10.5725 7.64503 11.7353 7.16356 12.9478 7.16356C12.9478 7.16356 14.1326 7.07292 15.5216 7.95644C15.6328 8.01897 15.7352 8.09579 15.8264 8.18494L8.45231 12.5668C8.42084 12.3968 8.39921 12.2251 8.38755 12.0526Z" fill="white"/>
<path d="M59.5971 4.54302C57.2069 2.9702 53.91 3.14385 51.5883 4.95812C47.8167 7.90574 47.3176 13.7027 50.5147 17.4287C53.4467 20.8455 58.695 20.924 61.5271 17.5933C62.1237 16.8918 62.1313 16.0509 61.5462 15.4995C60.961 14.948 60.1259 15.0097 59.4714 15.667C59.0904 16.0479 58.6995 16.4127 58.218 16.6732C55.4239 18.1851 52.1522 16.4515 51.4275 13.1002C51.3178 12.593 51.3514 12.4003 51.948 12.4147C53.6181 12.4536 55.2906 12.4285 56.9615 12.4285C58.6325 12.4285 60.3042 12.4285 61.9759 12.4285C62.2532 12.4285 62.523 12.5115 62.6319 12.0591C63.3253 9.17846 62.1466 6.2179 59.5971 4.54302ZM59.4554 9.61413C56.8724 9.60118 54.2894 9.60804 51.6196 9.60804C52.7053 6.60178 55.744 5.39988 58.1433 6.93462C58.9441 7.44722 59.4805 8.16698 59.7937 9.06193C59.9126 9.40163 59.9369 9.61642 59.4554 9.61413Z" fill="white"/>
</svg>
