<svg width="16" height="16" viewBox="0 0 16 16" fill="none" xmlns="http://www.w3.org/2000/svg">
<path d="M8 14C11.3137 14 14 11.3137 14 8C14 4.68629 11.3137 2 8 2C4.68629 2 2 4.68629 2 8C2 11.3137 4.68629 14 8 14Z" fill="#888888"/>
<path fill-rule="evenodd" clip-rule="evenodd" d="M8.00065 2.66683C5.05513 2.66683 2.66732 5.05464 2.66732 8.00016C2.66732 10.9457 5.05513 13.3335 8.00065 13.3335C10.9462 13.3335 13.334 10.9457 13.334 8.00016C13.334 5.05464 10.9462 2.66683 8.00065 2.66683ZM1.33398 8.00016C1.33398 4.31826 4.31875 1.3335 8.00065 1.3335C11.6826 1.3335 14.6673 4.31826 14.6673 8.00016C14.6673 11.6821 11.6826 14.6668 8.00065 14.6668C4.31875 14.6668 1.33398 11.6821 1.33398 8.00016Z" fill="#888888"/>
<path fill-rule="evenodd" clip-rule="evenodd" d="M8.00065 4.93359C8.36884 4.93359 8.66732 5.23207 8.66732 5.60026V8.00026C8.66732 8.36845 8.36884 8.66693 8.00065 8.66693C7.63246 8.66693 7.33398 8.36845 7.33398 8.00026V5.60026C7.33398 5.23207 7.63246 4.93359 8.00065 4.93359Z" fill="white"/>
<path d="M8.00065 10.4001H8.00732H8.00065Z" fill="white"/>
<path fill-rule="evenodd" clip-rule="evenodd" d="M7.33398 10.4001C7.33398 10.0319 7.63246 9.7334 8.00065 9.7334H8.00732C8.37551 9.7334 8.67398 10.0319 8.67398 10.4001C8.67398 10.7683 8.37551 11.0667 8.00732 11.0667H8.00065C7.63246 11.0667 7.33398 10.7683 7.33398 10.4001Z" fill="white"/>
</svg>
