<svg width="16" height="16" viewBox="0 0 16 16" fill="none" xmlns="http://www.w3.org/2000/svg">
<path d="M8 2C4.68629 2 2 4.68629 2 8C2 11.3137 4.68629 14 8 14C11.3137 14 14 11.3137 14 8C14 4.68629 11.3137 2 8 2Z" fill="#888888"/>
<path fill-rule="evenodd" clip-rule="evenodd" d="M8 13.3333C10.9455 13.3333 13.3333 10.9455 13.3333 8C13.3333 5.05448 10.9455 2.66666 8 2.66666C5.05448 2.66666 2.66666 5.05448 2.66666 8C2.66666 10.9455 5.05448 13.3333 8 13.3333ZM14.6667 8C14.6667 11.6819 11.6819 14.6667 8 14.6667C4.3181 14.6667 1.33333 11.6819 1.33333 8C1.33333 4.3181 4.3181 1.33333 8 1.33333C11.6819 1.33333 14.6667 4.3181 14.6667 8Z" fill="#888888"/>
<path fill-rule="evenodd" clip-rule="evenodd" d="M8 11.0667C7.63181 11.0667 7.33333 10.7682 7.33333 10.4V7.99999C7.33333 7.6318 7.63181 7.33332 8 7.33332C8.36819 7.33332 8.66666 7.6318 8.66666 7.99999V10.4C8.66666 10.7682 8.36819 11.0667 8 11.0667Z" fill="white"/>
<path d="M8 5.6H7.99333Z" fill="white"/>
<path fill-rule="evenodd" clip-rule="evenodd" d="M8.66666 5.6C8.66666 5.96819 8.36819 6.26667 8 6.26667H7.99333C7.62514 6.26667 7.32666 5.96819 7.32666 5.6C7.32666 5.23181 7.62514 4.93334 7.99333 4.93334H8C8.36819 4.93334 8.66666 5.23181 8.66666 5.6Z" fill="white"/>
</svg>
