<svg width="14" height="14" viewBox="0 0 14 14" fill="none" xmlns="http://www.w3.org/2000/svg">
<path d="M6.66666 12.6667C9.98037 12.6667 12.6667 9.98037 12.6667 6.66666C12.6667 3.35296 9.98037 0.666664 6.66666 0.666664C3.35295 0.666664 0.666656 3.35296 0.666656 6.66666C0.666656 9.98037 3.35295 12.6667 6.66666 12.6667Z" fill="#B9121B"/>
<path fill-rule="evenodd" clip-rule="evenodd" d="M6.66667 1.33333C3.72115 1.33333 1.33333 3.72115 1.33333 6.66667C1.33333 9.61219 3.72115 12 6.66667 12C9.61219 12 12 9.61219 12 6.66667C12 3.72115 9.61219 1.33333 6.66667 1.33333ZM0 6.66667C0 2.98477 2.98477 0 6.66667 0C10.3486 0 13.3333 2.98477 13.3333 6.66667C13.3333 10.3486 10.3486 13.3333 6.66667 13.3333C2.98477 13.3333 0 10.3486 0 6.66667Z" fill="#B9121B"/>
<path fill-rule="evenodd" clip-rule="evenodd" d="M6.66667 3.60001C7.03486 3.60001 7.33333 3.89848 7.33333 4.26667V6.66667C7.33333 7.03486 7.03486 7.33334 6.66667 7.33334C6.29848 7.33334 6 7.03486 6 6.66667V4.26667C6 3.89848 6.29848 3.60001 6.66667 3.60001Z" fill="white"/>
<path d="M6.66667 9.06666H6.67333Z" fill="white"/>
<path fill-rule="evenodd" clip-rule="evenodd" d="M6 9.06666C6 8.69847 6.29848 8.39999 6.66667 8.39999H6.67333C7.04152 8.39999 7.34 8.69847 7.34 9.06666C7.34 9.43485 7.04152 9.73333 6.67333 9.73333H6.66667C6.29848 9.73333 6 9.43485 6 9.06666Z" fill="white"/>
</svg>
