<svg width="20" height="21" viewBox="0 0 20 21" fill="none" xmlns="http://www.w3.org/2000/svg">
<path fill-rule="evenodd" clip-rule="evenodd" d="M10 18.0498C14.4183 18.0498 18 14.4681 18 10.0498C18 5.63153 14.4183 2.0498 10 2.0498C5.58172 2.0498 2 5.63153 2 10.0498C2 14.4681 5.58172 18.0498 10 18.0498ZM20 10.0498C20 15.5727 15.5228 20.0498 10 20.0498C4.47715 20.0498 0 15.5727 0 10.0498C0 4.52696 4.47715 0.0498047 10 0.0498047C15.5228 0.0498047 20 4.52696 20 10.0498Z" fill="#FFD600"/>
<path fill-rule="evenodd" clip-rule="evenodd" d="M10 14.6494C9.44772 14.6494 9 14.2017 9 13.6494V10.0494C9 9.49713 9.44772 9.04941 10 9.04941C10.5523 9.04941 11 9.49713 11 10.0494V13.6494C11 14.2017 10.5523 14.6494 10 14.6494Z" fill="#FFD600"/>
<path fill-rule="evenodd" clip-rule="evenodd" d="M11 6.4502C11 7.00248 10.5523 7.4502 10 7.4502H9.99C9.43772 7.4502 8.99 7.00248 8.99 6.4502C8.99 5.89791 9.43772 5.4502 9.99 5.4502H10C10.5523 5.4502 11 5.89791 11 6.4502Z" fill="#FFD600"/>
</svg>
