<svg width="60" height="60" viewBox="0 0 60 60" fill="none" xmlns="http://www.w3.org/2000/svg">
<path d="M49.2093 21.9692C49.2093 42.3304 41.5611 41.9 33.3061 46.068C20.7919 52.3865 11.1348 41.4231 8.71617 30.1077C6.29751 18.7922 15.7902 15.3077 27.8671 12.7263C39.944 10.1449 50.3088 10.4045 49.2093 21.9692Z" fill="#C3D6D7"/>
<path d="M13.2618 26.5217V38.2692C13.2618 38.5848 13.5176 38.8405 13.8331 38.8405C14.1486 38.8405 14.4044 38.5848 14.4044 38.2692V26.5215C15.2823 26.3658 16.0399 25.8586 16.5259 25.1502C17.1147 26.0084 18.1021 26.5727 19.219 26.5727C20.336 26.5727 21.3233 26.0084 21.9121 25.1502C22.5009 26.0084 23.4882 26.5727 24.6052 26.5727C25.7221 26.5727 26.7095 26.0084 27.2983 25.1502C27.8871 26.0084 28.8744 26.5727 29.9913 26.5727C31.1083 26.5727 32.0957 26.0084 32.6844 25.1502C33.2732 26.0084 34.2605 26.5727 35.3775 26.5727C36.4944 26.5727 37.4819 26.0084 38.0706 25.1502C38.6594 26.0084 39.6467 26.5727 40.7637 26.5727C41.8806 26.5727 42.868 26.0084 43.4568 25.1502C43.9428 25.8585 44.7004 26.3658 45.5783 26.5215V28.6699C45.5783 28.9856 45.8341 29.2413 46.1496 29.2413C46.4651 29.2413 46.7209 28.9856 46.7209 28.6699V26.5217C48.2494 26.2507 49.4143 24.9132 49.4143 23.3078V21.8456H49.4133C49.4133 21.7571 49.3938 21.6685 49.3526 21.5871L44.3168 11.6559C43.9555 10.943 43.2343 10.5 42.4349 10.5H35.68C35.6784 10.5 35.6768 10.5 35.6752 10.5H24.3073C24.306 10.5 24.3047 10.5 24.3034 10.5H17.5479C16.7486 10.5 16.0274 10.943 15.6659 11.6559L10.6301 21.5871C10.5888 21.6685 10.5693 21.7571 10.5693 21.8456H10.5684V23.3078C10.5684 24.9132 11.7333 26.2507 13.2618 26.5217ZM13.8328 25.43C12.6629 25.43 11.711 24.478 11.711 23.3079V22.417H15.9546V23.3079C15.9546 24.478 15.0028 25.43 13.8328 25.43ZM23.5858 11.6428L21.4535 21.2742H17.342L20.85 11.6428H23.5858ZM27.5267 11.6428L26.7701 21.2742H22.6237L24.7561 11.6428H27.5267ZM31.31 11.6428L32.0666 21.2742H27.9163L28.6729 11.6428H31.31ZM35.2268 11.6428L37.3591 21.2742H33.2127L32.4561 11.6428H35.2268ZM39.1328 11.6428L42.6408 21.2742H38.5294L36.397 11.6428H39.1328ZM19.219 25.43C18.049 25.43 17.0972 24.478 17.0972 23.3079V22.417H21.3408V23.3079C21.3408 24.478 20.389 25.43 19.219 25.43ZM24.6052 25.43C23.4353 25.43 22.4835 24.478 22.4835 23.3079V22.417H26.7271V23.3079C26.7271 24.478 25.7752 25.43 24.6052 25.43ZM29.9914 25.43C28.8215 25.43 27.8697 24.478 27.8697 23.3079V22.417H32.1133V23.3079C32.1132 24.478 31.1613 25.43 29.9914 25.43ZM35.3776 25.43C34.2076 25.43 33.2558 24.478 33.2558 23.3079V22.417H37.4994V23.3079C37.4995 24.478 36.5476 25.43 35.3776 25.43ZM40.7639 25.43C39.5939 25.43 38.642 24.478 38.642 23.3079V22.417H42.8856V23.3079C42.8856 24.478 41.9338 25.43 40.7639 25.43ZM46.1501 25.43C44.9801 25.43 44.0282 24.478 44.0282 23.3079V22.417H48.2718V23.3079C48.2719 24.478 47.3201 25.43 46.1501 25.43ZM43.298 12.1729L47.9129 21.2742H43.8568L40.3488 11.6428H42.4349C42.8015 11.6428 43.1322 11.8459 43.298 12.1729ZM16.6849 12.1729C16.8506 11.8459 17.1814 11.6428 17.5479 11.6428H19.634L16.126 21.2742H12.0699L16.6849 12.1729Z" fill="#077E86"/>
<path d="M27.9912 29.7324C27.6757 29.7324 27.4199 29.9882 27.4199 30.3038V43.5407C27.4199 43.8563 27.6757 44.1121 27.9912 44.1121H43.6882C44.0037 44.1121 44.2595 43.8563 44.2595 43.5407V30.3038C44.2595 29.9882 44.0037 29.7324 43.6882 29.7324H27.9912ZM28.5625 30.8752H43.1169V40.5066H28.5625V30.8752ZM43.1169 42.9693H28.5625V41.6494H43.1169V42.9693Z" fill="#077E86"/>
<path d="M23.0674 35.9746C22.7519 35.9746 22.4961 36.2304 22.4961 36.546V39.6243C22.4961 39.9399 22.7519 40.1957 23.0674 40.1957C23.3829 40.1957 23.6387 39.9399 23.6387 39.6243V36.546C23.6387 36.2304 23.383 35.9746 23.0674 35.9746Z" fill="#077E86"/>
<path d="M48.1594 45.8933H46.7296V31.3292C46.7296 31.0135 46.4738 30.7578 46.1583 30.7578C45.8428 30.7578 45.587 31.0135 45.587 31.3292V45.8933H26.1085V30.3038C26.1085 29.9882 25.8527 29.7324 25.5372 29.7324H16.3036C15.9881 29.7324 15.7323 29.9882 15.7323 30.3038V45.8933H14.4129V40.9284C14.4129 40.6128 14.1572 40.357 13.8417 40.357C13.5262 40.357 13.2704 40.6128 13.2704 40.9284V45.8933H11.8406C11.1014 45.8933 10.5 46.4952 10.5 47.2349V48.1583C10.5 48.8976 11.1015 49.4991 11.8406 49.4991H41.4403C41.7558 49.4991 42.0115 49.2434 42.0115 48.9277C42.0115 48.6121 41.7558 48.3563 41.4403 48.3563H11.8406C11.7314 48.3563 11.6426 48.2675 11.6426 48.1583V47.2349C11.6426 47.1253 11.7315 47.0361 11.8406 47.0361H48.1594C48.2686 47.0361 48.3574 47.1253 48.3574 47.2349V48.1583C48.3574 48.2675 48.2685 48.3563 48.1594 48.3563H44.1063C43.7908 48.3563 43.535 48.6121 43.535 48.9277C43.535 49.2434 43.7908 49.4991 44.1063 49.4991H48.1594C48.8986 49.4991 49.5 48.8976 49.5 48.1583V47.2349C49.5 46.4952 48.8985 45.8933 48.1594 45.8933ZM16.8749 30.8752H24.9659V45.8933H16.8749V30.8752Z" fill="#077E86"/>
<path d="M39.7236 33.8588L37.1075 32.7813C36.8796 32.6875 36.6168 32.7504 36.4562 32.9378L35.7039 33.8157H34.5047C32.9168 33.8157 31.625 35.1077 31.625 36.6959V38.0812C31.625 38.3968 31.8808 38.6526 32.1963 38.6526H39.5061C39.8216 38.6526 40.0774 38.3968 40.0774 38.0812V34.3872C40.0774 34.1556 39.9377 33.9469 39.7236 33.8588ZM38.9348 37.5097H32.7676V36.6958C32.7676 35.7378 33.5468 34.9584 34.5047 34.9584H35.9666C36.1334 34.9584 36.2919 34.8855 36.4004 34.7589L37.0547 33.9954L38.9348 34.7697V37.5097Z" fill="#077E86"/>
</svg>
