<svg width="24" height="24" viewBox="0 0 24 24" fill="none" xmlns="http://www.w3.org/2000/svg">
<path d="M20 11.0007C19.7554 9.2409 18.9391 7.61034 17.6766 6.36018C16.4142 5.11001 14.7758 4.3096 13.0137 4.08224C11.2516 3.85487 9.46362 4.21316 7.9252 5.10193C6.38678 5.99069 5.18325 7.36062 4.5 9.00068M4 5.00068V9.00068H8M4 13.0007C4.24456 14.7605 5.06093 16.391 6.32336 17.6412C7.58579 18.8914 9.22424 19.6918 10.9863 19.9191C12.7484 20.1465 14.5364 19.7882 16.0748 18.8994C17.6132 18.0107 18.8168 16.6407 19.5 15.0007M20 19.0007V15.0007H16" stroke="#077E86" stroke-width="2" stroke-linecap="round" stroke-linejoin="round"/>
</svg>
