<svg width="25" height="24" viewBox="0 0 25 24" fill="none" xmlns="http://www.w3.org/2000/svg">
<path d="M12.9185 8.08795V12.088L14.9185 14.088" stroke="#888888" stroke-width="2" stroke-linecap="round" stroke-linejoin="round"/>
<path d="M3.96851 11.088C4.1926 8.88802 5.21877 6.84757 6.85124 5.35593C8.48371 3.86428 10.6082 3.02584 12.8194 3.00059C15.0306 2.97533 17.1737 3.76502 18.8398 5.21899C20.5059 6.67296 21.5784 8.68944 21.8527 10.8837C22.127 13.0779 21.5838 15.2964 20.3269 17.1157C19.0699 18.9351 17.1871 20.228 15.0378 20.7478C12.8884 21.2676 10.6229 20.9779 8.6735 19.934C6.72409 18.8901 5.22723 17.1651 4.46851 15.088M3.96851 20.088V15.088H8.96851" stroke="#888888" stroke-width="2" stroke-linecap="round" stroke-linejoin="round"/>
</svg>
