<svg width="25" height="24" viewBox="0 0 25 24" fill="none" xmlns="http://www.w3.org/2000/svg">
<path d="M12.7731 8.08795V12.088L14.7731 14.088" stroke="white" stroke-width="2" stroke-linecap="round" stroke-linejoin="round"/>
<path d="M3.82312 11.088C4.04721 8.88802 5.07338 6.84757 6.70585 5.35593C8.33832 3.86428 10.4628 3.02584 12.674 3.00059C14.8852 2.97533 17.0283 3.76502 18.6944 5.21899C20.3605 6.67296 21.433 8.68944 21.7073 10.8837C21.9816 13.0779 21.4384 15.2964 20.1815 17.1157C18.9245 18.9351 17.0418 20.228 14.8924 20.7478C12.743 21.2676 10.4775 20.9779 8.52812 19.934C6.5787 18.8901 5.08184 17.1651 4.32312 15.088M3.82312 20.088V15.088H8.82312" stroke="white" stroke-width="2" stroke-linecap="round" stroke-linejoin="round"/>
</svg>
