<svg width="14" height="14" viewBox="0 0 14 14" fill="none" xmlns="http://www.w3.org/2000/svg">
<path d="M7 13C10.3137 13 13 10.3137 13 7C13 3.68629 10.3137 1 7 1C3.68629 1 1 3.68629 1 7C1 10.3137 3.68629 13 7 13Z" fill="#B9121B"/>
<path fill-rule="evenodd" clip-rule="evenodd" d="M6.99967 1.66671C4.05416 1.66671 1.66634 4.05452 1.66634 7.00004C1.66634 9.94556 4.05416 12.3334 6.99967 12.3334C9.94519 12.3334 12.333 9.94556 12.333 7.00004C12.333 4.05452 9.94519 1.66671 6.99967 1.66671ZM0.333008 7.00004C0.333008 3.31814 3.31778 0.333374 6.99967 0.333374C10.6816 0.333374 13.6663 3.31814 13.6663 7.00004C13.6663 10.6819 10.6816 13.6667 6.99967 13.6667C3.31778 13.6667 0.333008 10.6819 0.333008 7.00004Z" fill="#B9121B"/>
<path fill-rule="evenodd" clip-rule="evenodd" d="M6.99967 3.93335C7.36786 3.93335 7.66634 4.23183 7.66634 4.60002V7.00002C7.66634 7.36821 7.36786 7.66668 6.99967 7.66668C6.63148 7.66668 6.33301 7.36821 6.33301 7.00002V4.60002C6.33301 4.23183 6.63148 3.93335 6.99967 3.93335Z" fill="white"/>
<path d="M6.99967 9.40006H7.00634H6.99967Z" fill="white"/>
<path fill-rule="evenodd" clip-rule="evenodd" d="M6.33301 9.40006C6.33301 9.03187 6.63148 8.7334 6.99967 8.7334H7.00634C7.37453 8.7334 7.67301 9.03187 7.67301 9.40006C7.67301 9.76825 7.37453 10.0667 7.00634 10.0667H6.99967C6.63148 10.0667 6.33301 9.76825 6.33301 9.40006Z" fill="white"/>
</svg>
