<svg width="60" height="60" viewBox="0 0 60 60" fill="none" xmlns="http://www.w3.org/2000/svg">
<path d="M49.2093 21.9673C49.2093 42.3284 41.5611 41.8981 33.3061 46.0661C20.7919 52.3845 11.1348 41.4211 8.71617 30.1057C6.29751 18.7903 15.7902 15.3058 27.8671 12.7244C39.944 10.1429 50.3088 10.4025 49.2093 21.9673Z" fill="#C3D6D7"/>
<g clip-path="url(#clip0_6798_183083)">
<path d="M45.87 28.6907H44.9501V18.8027C44.9501 18.4814 44.6849 18.2221 44.3613 18.2317C44.0486 18.241 43.8075 18.5138 43.8075 18.8267V28.6906H39.9785C39.6629 28.6906 39.4072 28.9464 39.4072 29.2619C39.4072 29.5774 39.6629 29.8332 39.9785 29.8332H45.87C46.6082 29.8332 47.2089 30.4339 47.2089 31.1721C47.2089 31.9104 46.6082 32.5111 45.87 32.5111H34.1984V29.8332H37.3125C37.6281 29.8332 37.8838 29.5774 37.8838 29.2619C37.8838 28.9464 37.6281 28.6906 37.3125 28.6906H34.0612C33.648 28.6906 33.2925 28.9413 33.1381 29.2984H29.0968C28.9584 28.9433 28.6136 28.6906 28.2101 28.6906H26.5407C26.1372 28.6906 25.7923 28.9433 25.6539 29.2984H23.2052V28.808C23.2052 28.3245 22.9456 27.9016 22.5593 27.6679V26.2133C23.5628 25.9112 24.2959 24.9791 24.2959 23.8784C24.2959 22.5341 23.2023 21.4403 21.8578 21.4403H19.9311V11.6426H43.8074V16.1367C43.8074 16.458 44.0727 16.7174 44.3963 16.7078C44.7089 16.6984 44.95 16.4256 44.95 16.1128V11.4521C44.95 10.9263 44.5238 10.5 43.9979 10.5H19.7407C19.2148 10.5 18.7886 10.9263 18.7886 11.4521V21.4404H17.0822C15.7379 21.4404 14.6441 22.5342 14.6441 23.8785C14.6441 24.9791 15.3773 25.9112 16.3807 26.2133V27.6679C15.9944 27.9016 15.7348 28.3245 15.7348 28.808V33.5362C15.7348 34.0197 15.9944 34.4426 16.3807 34.6763V36.1309C15.3773 36.433 14.6441 37.3651 14.6441 38.4657C14.6441 39.8101 15.7378 40.9039 17.0822 40.9039H18.7886V42.8871H14.3234C13.5885 42.8871 12.9904 43.4852 12.9904 44.2201V45.1664H12.9815C12.2465 45.1664 11.6485 45.7645 11.6485 46.4994V48.5479C11.6485 49.0729 12.0756 49.5 12.6007 49.5H43.9979C44.5238 49.5 44.95 49.0737 44.95 48.5479V33.6537H45.8699C47.2382 33.6537 48.3514 32.5406 48.3514 31.1722C48.3514 29.8039 47.2383 28.6907 45.87 28.6907ZM29.1623 30.441H33.0558V31.9033H29.1623V30.441ZM26.7311 29.8333H28.0197V32.5112H26.7311V29.8333ZM23.2052 30.441H25.5885V31.9033H23.2052V30.441ZM15.7867 23.8785C15.7867 23.1642 16.3679 22.583 17.0822 22.583H21.8578C22.5722 22.583 23.1534 23.1642 23.1534 23.8785C23.1534 24.5929 22.5722 25.1741 21.8578 25.1741H17.0822C16.3679 25.1741 15.7867 24.5929 15.7867 23.8785ZM17.0679 33.7267C16.9629 33.7267 16.8775 33.6412 16.8775 33.5363V28.8081C16.8775 28.7031 16.9629 28.6176 17.0679 28.6176H21.8722C21.9772 28.6176 22.0626 28.7031 22.0626 28.8081V33.5363C22.0626 33.6412 21.9772 33.7267 21.8722 33.7267H17.0679ZM21.4167 34.8693V36.0277H17.5233V34.8693H21.4167ZM17.5233 27.4751V26.3166H21.4167V27.4751H17.5233ZM17.0822 39.7613C16.3679 39.7613 15.7867 39.1802 15.7867 38.4658C15.7867 37.7515 16.3679 37.1703 17.0822 37.1703H21.8578C22.5722 37.1703 23.1534 37.7515 23.1534 38.4658C23.1534 39.1802 22.5722 39.7613 21.8578 39.7613H17.0822ZM26.149 48.3574H12.7911V46.4994C12.7911 46.3945 12.8765 46.309 12.9815 46.309H16.5176C16.8332 46.309 17.0889 46.0532 17.0889 45.7377C17.0889 45.4222 16.8332 45.1664 16.5176 45.1664H14.133V44.2201C14.133 44.1152 14.2184 44.0297 14.3234 44.0297H24.6166C24.7216 44.0297 24.807 44.1152 24.807 44.2201V45.1664H19.1836C18.868 45.1664 18.6123 45.4222 18.6123 45.7377C18.6123 46.0532 18.868 46.309 19.1836 46.309H25.9585C26.0636 46.309 26.149 46.3945 26.149 46.4994V48.3574ZM43.8075 48.3574H27.2916V46.4994C27.2916 45.7645 26.6935 45.1664 25.9585 45.1664H25.9496V44.2201C25.9496 43.4852 25.3515 42.8871 24.6166 42.8871H19.9311V40.9039H21.8578C23.2022 40.9039 24.2959 39.8102 24.2959 38.4657C24.2959 37.3651 23.5628 36.433 22.5593 36.1309V34.6763C22.9456 34.4426 23.2052 34.0197 23.2052 33.5362V33.0458H25.6539C25.7923 33.4009 26.1372 33.6536 26.5407 33.6536H28.2101C28.6136 33.6536 28.9584 33.4008 29.0968 33.0458H33.1381C33.2925 33.4029 33.648 33.6536 34.0612 33.6536H43.8074V48.3574H43.8075Z" fill="#077E86"/>
<path d="M25.9532 19.9665C25.9532 23.2287 28.6072 25.8827 31.8694 25.8827C35.1316 25.8827 37.7856 23.2287 37.7856 19.9665C37.7856 16.7043 35.1316 14.0503 31.8694 14.0503C28.6072 14.0503 25.9532 16.7043 25.9532 19.9665ZM36.643 19.9665C36.643 22.5987 34.5016 24.7401 31.8694 24.7401C29.2372 24.7401 27.0958 22.5987 27.0958 19.9665C27.0958 17.3343 29.2372 15.1929 31.8694 15.1929C34.5016 15.1929 36.643 17.3343 36.643 19.9665Z" fill="#077E86"/>
<path d="M30.7508 18.0506C30.5276 17.8275 30.1659 17.8275 29.9428 18.0506C29.7197 18.2737 29.7197 18.6355 29.9428 18.8585L31.469 20.3824C31.5806 20.4939 31.7268 20.5497 31.873 20.5497C32.0192 20.5497 32.1654 20.494 32.277 20.3824L33.8009 18.8552C34.024 18.6321 34.024 18.2704 33.8009 18.0473C33.5778 17.8242 33.2161 17.8242 32.993 18.0473L31.8731 19.1706L30.7508 18.0506Z" fill="#077E86"/>
<path d="M30.7511 21.878C30.5279 22.1011 30.1662 22.1011 29.9431 21.878C29.72 21.6549 29.72 21.2931 29.9431 21.0701L31.4693 19.5462C31.5809 19.4347 31.7272 19.3789 31.8733 19.3789C32.0195 19.3789 32.1658 19.4346 32.2774 19.5462L33.8013 21.0734C34.0244 21.2965 34.0244 21.6582 33.8013 21.8812C33.5781 22.1044 33.2164 22.1044 32.9933 21.8812L31.8734 20.758L30.7511 21.878Z" fill="#077E86"/>
<path d="M29.0617 35.9849C29.0617 36.3004 29.3174 36.5562 29.633 36.5562H40.1394C40.4549 36.5562 40.7107 36.3004 40.7107 35.9849C40.7107 35.6694 40.4549 35.4136 40.1394 35.4136H29.633C29.3174 35.4136 29.0617 35.6694 29.0617 35.9849Z" fill="#077E86"/>
<path d="M40.1392 38.192H34.7227C34.4071 38.192 34.1514 38.4478 34.1514 38.7633C34.1514 39.0788 34.4071 39.3346 34.7227 39.3346H40.1392C40.4548 39.3346 40.7105 39.0788 40.7105 38.7633C40.7105 38.4478 40.4548 38.192 40.1392 38.192Z" fill="#077E86"/>
<path d="M29.633 39.3346H32.7422C33.0578 39.3346 33.3135 39.0788 33.3135 38.7633C33.3135 38.4478 33.0578 38.192 32.7422 38.192H29.633C29.3174 38.192 29.0617 38.4478 29.0617 38.7633C29.0617 39.0788 29.3174 39.3346 29.633 39.3346Z" fill="#077E86"/>
<path d="M40.1392 40.9705H29.6328C29.3172 40.9705 29.0615 41.2263 29.0615 41.5418C29.0615 41.8573 29.3172 42.1131 29.6328 42.1131H40.1392C40.4548 42.1131 40.7105 41.8573 40.7105 41.5418C40.7105 41.2263 40.4548 40.9705 40.1392 40.9705Z" fill="#077E86"/>
<path d="M40.1392 43.749H37.3887C37.0731 43.749 36.8174 44.0048 36.8174 44.3203C36.8174 44.6358 37.0731 44.8916 37.3887 44.8916H40.1392C40.4548 44.8916 40.7105 44.6358 40.7105 44.3203C40.7105 44.0048 40.4548 43.749 40.1392 43.749Z" fill="#077E86"/>
<path d="M35.6368 43.749H29.633C29.3174 43.749 29.0617 44.0048 29.0617 44.3203C29.0617 44.6358 29.3174 44.8916 29.633 44.8916H35.6368C35.9524 44.8916 36.2081 44.6358 36.2081 44.3203C36.2081 44.0048 35.9524 43.749 35.6368 43.749Z" fill="#077E86"/>
</g>
<defs>
<clipPath id="clip0_6798_183083">
<rect width="39" height="39" fill="white" transform="translate(10.5 10.5)"/>
</clipPath>
</defs>
</svg>
