<svg width="94" height="100" viewBox="0 0 94 100" fill="none" xmlns="http://www.w3.org/2000/svg">
<path opacity="0.08" d="M91.8567 84.2726C91.8567 87.4717 72.0109 90.0652 47.5299 90.0652C23.0489 90.0652 3.20312 87.4717 3.20312 84.2726C3.20312 81.0734 23.0489 80.6799 47.5299 80.6799C72.0109 80.6799 91.8567 81.0734 91.8567 84.2726Z" fill="#077E86"/>
<path d="M57.4077 30.9273V29.6059C57.4077 28.6149 56.7469 27.7561 55.7558 27.5579C55.4254 27.4918 55.0289 27.4257 54.6986 27.4257C52.2538 27.2275 50.1393 28.1525 48.157 29.0774C46.373 29.9363 44.655 30.663 42.8049 30.5309C41.5494 30.3987 40.1619 30.0684 38.7082 29.4738C38.2456 29.2756 37.717 29.3417 37.2545 29.6059C36.792 29.8702 36.5938 30.3987 36.5938 30.8612C36.5938 36.609 41.2191 41.2337 46.9677 41.2337C52.7163 41.2997 57.4077 36.6751 57.4077 30.9273ZM54.5003 29.8702C54.6325 29.8702 54.7646 29.8702 54.9629 29.9363V30.9273C54.9629 35.2877 51.3948 38.8553 47.0338 38.8553C43.1353 38.8553 39.8315 36.0805 39.2368 32.2486C40.4262 32.645 41.6155 32.9093 42.6727 32.9753C45.1836 33.1735 47.232 32.2486 49.2143 31.3237C50.9983 30.5309 52.6502 29.7381 54.5003 29.8702Z" fill="url(#paint0_linear_208_17806)"/>
<path d="M51.527 44.2724C57.2756 42.3564 61.108 36.939 61.108 30.9269V22.6025C63.4207 22.3383 65.2047 20.3563 65.2047 17.9779V17.7797C65.2047 16.3923 64.0814 15.3352 62.7599 15.3352H37.5189C36.8582 15.3352 36.3295 15.8637 36.3295 16.5244C36.3295 17.1851 36.8582 17.7136 37.5189 17.7136H62.6938V17.9118C62.6938 19.101 61.7027 20.092 60.5133 20.092H33.4222C32.2328 20.2241 31.2417 19.2331 31.2417 17.9779V17.7797H32.5632C33.224 17.7797 33.7526 17.2511 33.7526 16.5905C33.7526 15.9298 33.224 15.4013 32.5632 15.4013H31.3078C29.9202 15.3352 28.7969 16.4583 28.7969 17.7797V17.9779C28.7969 20.3563 30.5809 22.3383 32.8936 22.6025V30.9269C32.8936 36.939 36.726 42.3564 42.4746 44.2724C43.2014 44.5366 43.73 45.2634 43.73 46.0562C43.73 46.849 43.2014 47.5757 42.4746 47.84C36.726 49.7559 32.8936 55.1073 32.8936 61.1854V69.5098C30.5809 69.7741 28.7969 71.7561 28.7969 74.1345V74.3327C28.7969 75.7201 29.9202 76.7771 31.2417 76.7771H44.3908C45.0516 76.7771 45.5802 76.2486 45.5802 75.5879C45.5802 74.9273 45.0516 74.3987 44.3908 74.3987L31.2417 74.3327V74.1345C31.2417 72.9453 32.2328 71.9543 33.4222 71.9543H60.5133C61.7027 71.9543 62.6938 72.9453 62.6938 74.1345V74.3327H49.0822C48.4214 74.3327 47.8928 74.8612 47.8928 75.5219C47.8928 76.1825 48.4214 76.7111 49.0822 76.7111H62.6938C64.0814 76.7111 65.1387 75.5879 65.1387 74.2666V74.0684C65.1387 71.69 63.3546 69.708 61.0419 69.4437V61.1854C61.0419 55.1734 57.2095 49.7559 51.4609 47.84C50.7341 47.5757 50.2055 46.849 50.2055 46.0562C50.2716 45.2634 50.8002 44.5366 51.527 44.2724ZM47.8268 46.0562C47.8268 47.906 49.0161 49.5577 50.7341 50.1523C55.4916 51.7379 58.6632 56.1644 58.6632 61.1854V69.5098H57.2756C56.8792 67.1975 55.7559 65.0173 54.0379 63.4317C52.4521 61.9782 50.4037 61.0533 48.2893 60.789V58.4106C48.2893 57.75 47.7607 57.2214 47.0999 57.2214C46.4392 57.2214 45.7784 57.6839 45.7784 58.4106V60.789C43.5979 61.0533 41.6156 61.9782 39.9637 63.4317C38.2457 65.0173 37.1224 67.1314 36.726 69.4437H35.3384V61.1854C35.3384 56.1644 38.51 51.7379 43.2675 50.1523C44.9855 49.5577 46.1749 47.906 46.1749 46.0562C46.1749 44.2063 44.9855 42.5546 43.2675 41.96C38.51 40.3744 35.3384 35.948 35.3384 30.9269V22.6686H58.6632V30.993C58.6632 36.014 55.4916 40.4405 50.7341 42.0261C49.0161 42.5546 47.8268 44.2063 47.8268 46.0562ZM41.6156 65.2155C43.0693 63.8941 44.9855 63.1014 46.9678 63.1014C48.95 63.1014 50.8663 63.8281 52.3199 65.1494C53.5754 66.2725 54.4344 67.7921 54.7647 69.3777H39.2369C39.5673 67.8581 40.4262 66.3386 41.6156 65.2155Z" fill="url(#paint1_linear_208_17806)"/>
<path d="M45.7783 51.8039V54.0502C45.7783 54.7109 46.3069 55.2394 46.9677 55.2394C47.6284 55.2394 48.1571 54.7109 48.1571 54.0502V51.8039C48.1571 51.1433 47.6284 50.6147 46.9677 50.6147C46.3069 50.6147 45.7783 51.1433 45.7783 51.8039Z" fill="url(#paint2_linear_208_17806)"/>
<defs>
<linearGradient id="paint0_linear_208_17806" x1="47.0007" y1="27.3987" x2="47.0007" y2="41.2344" gradientUnits="userSpaceOnUse">
<stop stop-color="#80D8DE"/>
<stop offset="1" stop-color="#077E86"/>
</linearGradient>
<linearGradient id="paint1_linear_208_17806" x1="47.0008" y1="15.3352" x2="47.0008" y2="76.7771" gradientUnits="userSpaceOnUse">
<stop stop-color="#80D8DE"/>
<stop offset="1" stop-color="#077E86"/>
</linearGradient>
<linearGradient id="paint2_linear_208_17806" x1="46.9677" y1="50.6147" x2="46.9677" y2="55.2394" gradientUnits="userSpaceOnUse">
<stop stop-color="#80D8DE"/>
<stop offset="1" stop-color="#077E86"/>
</linearGradient>
</defs>
</svg>
