<svg width="20" height="19" viewBox="0 0 20 19" fill="none" xmlns="http://www.w3.org/2000/svg">
<rect x="7.46472" y="4.41165" width="5.05994" height="10.1767" fill="white"/>
<path d="M19.6006 13.8675L12.6236 2.29672C12.3415 1.85537 11.9528 1.49216 11.4933 1.24056C11.0339 0.988964 10.5185 0.857086 9.99471 0.857086C9.47089 0.857086 8.95551 0.988964 8.49607 1.24056C8.03664 1.49216 7.64794 1.85537 7.36581 2.29672L0.388789 13.8675C0.142323 14.2783 0.00836302 14.7468 0.000379033 15.2259C-0.00760495 15.7049 0.110668 16.1776 0.343307 16.5964C0.612272 17.0679 1.00158 17.4595 1.47146 17.7312C1.94133 18.0028 2.47492 18.1449 3.01768 18.1428H16.9717C17.5109 18.1486 18.0421 18.012 18.5117 17.7469C18.9812 17.4818 19.3725 17.0975 19.6461 16.6328C19.8856 16.2096 20.0076 15.7301 19.9996 15.244C19.9916 14.7578 19.8539 14.2826 19.6006 13.8675ZM9.99471 14.5042C9.81479 14.5042 9.63892 14.4509 9.48933 14.3509C9.33974 14.251 9.22315 14.1089 9.1543 13.9427C9.08545 13.7765 9.06743 13.5936 9.10253 13.4171C9.13763 13.2407 9.22427 13.0786 9.35149 12.9514C9.4787 12.8242 9.64079 12.7375 9.81724 12.7024C9.9937 12.6673 10.1766 12.6853 10.3428 12.7542C10.509 12.823 10.6511 12.9396 10.7511 13.0892C10.851 13.2388 10.9044 13.4147 10.9044 13.5946C10.9044 13.8358 10.8085 14.0672 10.6379 14.2378C10.4673 14.4084 10.236 14.5042 9.99471 14.5042ZM10.9044 10.8656C10.9044 11.1069 10.8085 11.3383 10.6379 11.5089C10.4673 11.6794 10.236 11.7753 9.99471 11.7753C9.75345 11.7753 9.52208 11.6794 9.35149 11.5089C9.18089 11.3383 9.08506 11.1069 9.08506 10.8656V7.22703C9.08506 6.98578 9.18089 6.7544 9.35149 6.58381C9.52208 6.41322 9.75345 6.31738 9.99471 6.31738C10.236 6.31738 10.4673 6.41322 10.6379 6.58381C10.8085 6.7544 10.9044 6.98578 10.9044 7.22703V10.8656Z" fill="#DF9C43"/>
</svg>
