<svg width="98" height="100" viewBox="0 0 98 100" fill="none" xmlns="http://www.w3.org/2000/svg">
<path opacity="0.08" d="M83.7333 88.6751C83.7333 94.7183 64.9889 99.6172 41.8666 99.6172C18.7443 99.6172 0 94.7183 0 88.6751C0 82.632 18.7443 81.8886 41.8666 81.8886C64.9889 81.8886 83.7333 82.632 83.7333 88.6751Z" fill="#077E86"/>
<path d="M0.0335083 28.665C0.142029 28.2414 0.502258 27.8979 0.981537 27.7607L33.781 18.3741C34.5329 18.1592 35.3462 18.5079 35.5969 19.1536C35.8476 19.7994 35.4411 20.4975 34.6889 20.7126L7.29104 28.5533L42.308 33.7818L88.1003 5.42714L40.82 18.958C40.068 19.1728 39.2549 18.8244 39.0041 18.1786C38.7534 17.5328 39.1599 16.8347 39.9121 16.6196L96.1104 0.536478C96.1296 0.531055 96.1432 0.529905 96.1596 0.52629C96.5669 0.423418 97.0185 0.47469 97.3858 0.695058C97.9498 1.03292 98.1554 1.66675 97.8762 2.20625L59.8247 75.7116C59.6354 76.0775 59.2508 76.3415 58.7936 76.4198C58.7002 76.4358 58.6062 76.4437 58.513 76.4437C58.1489 76.4437 57.7942 76.3245 57.5249 76.1053L41.6471 63.1751L27.5699 70.8083C27.5634 70.8119 27.5561 70.8127 27.5494 70.8152C27.3284 70.931 27.0728 70.9987 26.8043 70.9987C26.7505 70.9987 26.6965 70.9961 26.642 70.9908C25.9801 70.9266 25.4566 70.4798 25.3779 69.9118L22.2685 47.4563L0.451912 29.8275C0.0838394 29.5303 -0.0750198 29.0887 0.0335083 28.665ZM5.90392 30.848L23.7533 45.271L39.0527 35.7975L5.90392 30.848ZM35.2185 54.5426L55.9797 71.4493L48.1943 43.7299L35.2185 54.5426ZM33.7548 56.7479L29.5584 66.8145L39.4979 61.4248L33.7548 56.7479ZM27.5083 64.4174L31.7937 54.1374C31.7965 54.1305 31.8009 54.1242 31.804 54.1173C31.8779 53.9497 31.9925 53.7956 32.1455 53.6682L53.3898 35.9655C53.9585 35.4915 54.8675 35.5032 55.4197 35.9914C55.9719 36.48 55.9583 37.2602 55.3894 37.7342L50.5874 41.7356L58.9176 71.3944L92.2379 7.02838L59.5117 34.299C58.9431 34.7731 58.0341 34.7616 57.4819 34.273C56.9297 33.7845 56.9432 33.0042 57.5121 32.5303L81.4438 12.5882L25.1576 47.441L27.5083 64.4174Z" fill="url(#paint0_linear_120_9981)"/>
<path d="M4.60667 62.8315C4.97398 62.8315 5.34147 62.7113 5.62169 62.4707L18.3056 51.5809C18.8662 51.0994 18.8662 50.3192 18.3056 49.8379C17.745 49.3567 16.836 49.3567 16.2756 49.8379L3.59164 60.7276C3.03101 61.2091 3.03101 61.9893 3.59164 62.4707C3.87186 62.7113 4.23936 62.8315 4.60667 62.8315Z" fill="url(#paint1_linear_120_9981)"/>
<path d="M26.8029 81.8886C27.1703 81.8886 27.5378 81.7683 27.818 81.5277L40.5019 70.638C41.0625 70.1565 41.0625 69.3763 40.5019 68.8949C39.9413 68.4138 39.0323 68.4138 38.4718 68.8949L25.7879 79.7847C25.2273 80.2662 25.2273 81.0464 25.7879 81.5277C26.0683 81.7682 26.4356 81.8886 26.8029 81.8886Z" fill="url(#paint2_linear_120_9981)"/>
<path d="M4.60667 81.8886C4.97398 81.8886 5.34147 81.7683 5.62169 81.5277L18.3056 70.638C18.8662 70.1565 18.8662 69.3763 18.3056 68.8949C17.745 68.4138 16.836 68.4138 16.2756 68.8949L3.59164 79.7847C3.03101 80.2662 3.03101 81.0464 3.59164 81.5277C3.87186 81.7682 4.23936 81.8886 4.60667 81.8886Z" fill="url(#paint3_linear_120_9981)"/>
<defs>
<linearGradient id="paint0_linear_120_9981" x1="96" y1="6.56363" x2="53.5247" y2="79.0935" gradientUnits="userSpaceOnUse">
<stop stop-color="#80D8DE"/>
<stop offset="1" stop-color="#077E86"/>
</linearGradient>
<linearGradient id="paint1_linear_120_9981" x1="18.4086" y1="50.5473" x2="10.5914" y2="62.5998" gradientUnits="userSpaceOnUse">
<stop stop-color="#80D8DE"/>
<stop offset="1" stop-color="#077E86"/>
</linearGradient>
<linearGradient id="paint2_linear_120_9981" x1="40.6049" y1="69.6043" x2="32.7876" y2="81.6569" gradientUnits="userSpaceOnUse">
<stop stop-color="#80D8DE"/>
<stop offset="1" stop-color="#077E86"/>
</linearGradient>
<linearGradient id="paint3_linear_120_9981" x1="18.4086" y1="69.6043" x2="10.5914" y2="81.6569" gradientUnits="userSpaceOnUse">
<stop stop-color="#80D8DE"/>
<stop offset="1" stop-color="#077E86"/>
</linearGradient>
</defs>
</svg>
