<svg width="853" height="538" viewBox="0 0 853 538" fill="none" xmlns="http://www.w3.org/2000/svg">
<path d="M32.5954 537.166C32.6358 537.197 821.783 537.069 821.783 537.069C847.764 481.652 847.72 454.576 850.678 422.812C867 247.245 734.765 220.254 696.027 212.933C577.409 190.517 631.396 79.6061 322.3 100.416C293.969 102.322 227.174 117.721 204.154 127.696C188.008 134.688 127.177 165.97 109.329 218.886C103.692 235.587 102.34 254.444 108.023 275.37C128.139 349.427 75.6954 345.171 37.3731 380.463C-13.7752 427.56 -8.42848 504.588 32.5954 537.166Z" fill="url(#paint0_linear_118_2710)"/>
<path d="M551.583 4.73642V169.547H742.5V4.73642H551.583Z" fill="#F0F0F0" stroke="#EBEBEB" stroke-width="2"/>
<path d="M618.01 76.3138H575.737V23.542L582.905 17.083H618.01V76.3138Z" fill="white"/>
<path d="M575.737 23.542H582.674L582.905 17.083L575.737 23.542Z" fill="#F0F0F0"/>
<path d="M603.642 22.8622H590.105V22.2178H603.642V22.8622Z" fill="#F0F0F0"/>
<path d="M606.827 24.7954H586.921V24.151H606.827V24.7954Z" fill="#F0F0F0"/>
<path d="M613.796 37.3942H580.741V36.5665H613.796V37.3942Z" fill="#F0F0F0"/>
<path d="M613.796 39.9127H580.741V39.0821H613.796V39.9127Z" fill="#F0F0F0"/>
<path d="M613.796 42.4283H580.741V41.6006H613.796V42.4283Z" fill="#F0F0F0"/>
<path d="M613.796 44.944H580.741V44.1163H613.796V44.944Z" fill="#F0F0F0"/>
<path d="M613.796 71.8678H580.741V71.0401H613.796V71.8678Z" fill="#F0F0F0"/>
<path d="M666.823 149.53H624.548V96.7579L631.718 90.2989H666.823V149.53Z" fill="white"/>
<path d="M624.548 96.758H631.488L631.718 90.299L624.548 96.758Z" fill="#F0F0F0"/>
<path d="M652.452 96.078H638.918V95.4336H652.452V96.078Z" fill="#F0F0F0"/>
<path d="M655.64 98.0114H635.731V97.3669H655.64V98.0114Z" fill="#F0F0F0"/>
<path d="M662.609 110.61H629.554V109.782H662.609V110.61Z" fill="#F0F0F0"/>
<path d="M662.609 113.129H629.554V112.298H662.609V113.129Z" fill="#F0F0F0"/>
<path d="M662.609 115.644H629.554V114.814H662.609V115.644Z" fill="#F0F0F0"/>
<path d="M662.609 118.16H629.554V117.332H662.609V118.16Z" fill="#F0F0F0"/>
<path d="M662.609 125.902H629.554V125.074H662.609V125.902Z" fill="#F0F0F0"/>
<path d="M662.609 128.417H629.554V127.59H662.609V128.417Z" fill="#F0F0F0"/>
<path d="M662.609 131.335H629.554V130.507H662.609V131.335Z" fill="#F0F0F0"/>
<path d="M667.335 17.0831H690.677V37.6543H667.335V17.0831Z" fill="#F0F0F0"/>
<path d="M677.986 19.5306C677.986 18.966 678.441 18.5108 679.006 18.5108C679.57 18.5108 680.029 18.966 680.029 19.5306C680.029 20.0953 679.57 20.5534 679.006 20.5534C678.441 20.5534 677.986 20.0953 677.986 19.5306Z" fill="#F0F0F0"/>
<path d="M666.646 45.7451L689.932 44.1193L691.366 64.6432L668.08 66.2691L666.646 45.7451Z" fill="white"/>
<path d="M677.53 48.7189C677.492 48.1572 677.915 47.6695 678.479 47.631C679.041 47.5896 679.529 48.0153 679.568 48.577C679.609 49.1416 679.183 49.6293 678.621 49.6678C678.057 49.7062 677.569 49.2835 677.53 48.7189Z" fill="#F0F0F0"/>
<path d="M589.076 121.539L612.365 119.913L613.796 140.437L590.51 142.063L589.076 121.539Z" fill="white"/>
<path d="M599.961 124.512C599.922 123.951 600.345 123.463 600.91 123.422C601.472 123.383 601.96 123.809 602.001 124.371C602.04 124.935 601.614 125.423 601.052 125.461C600.487 125.5 599.999 125.077 599.961 124.512Z" fill="#F0F0F0"/>
<path d="M559.723 134.918L583.065 134.678L583.275 155.25L559.935 155.489L559.723 134.918Z" fill="white"/>
<path d="M570.409 138.533C570.406 137.969 570.859 137.507 571.423 137.501C571.985 137.496 572.449 137.948 572.455 138.512C572.461 139.077 572.009 139.538 571.444 139.544C570.879 139.55 570.415 139.098 570.409 138.533Z" fill="#F0F0F0"/>
<path d="M702.295 56.5466L725.273 60.6525L721.654 80.9046L698.675 76.7986L702.295 56.5466Z" fill="#F0F0F0"/>
<path d="M712.419 61.1876C712.505 60.7028 712.966 60.3835 713.451 60.4693C713.933 60.555 714.255 61.0161 714.17 61.498C714.084 61.9828 713.62 62.3049 713.138 62.2192C712.656 62.1305 712.333 61.6694 712.419 61.1876Z" fill="#F0F0F0"/>
<path d="M630.361 46.224L653.567 43.7113L655.782 64.1643L632.576 66.677L630.361 46.224Z" fill="#F0F0F0"/>
<path d="M641.382 47.835C641.328 47.3472 641.68 46.9068 642.168 46.8536C642.656 46.8033 643.094 47.1551 643.147 47.6428C643.2 48.1306 642.848 48.5681 642.36 48.6213C641.873 48.6745 641.432 48.3227 641.382 47.835Z" fill="#F0F0F0"/>
<path d="M570.149 97.2102L592.976 92.3445L597.27 112.464L574.439 117.332L570.149 97.2102Z" fill="#F0F0F0"/>
<path d="M581.657 98.2419C581.246 97.9729 581.128 97.4231 581.397 97.0122C581.663 96.6013 582.213 96.483 582.627 96.7491C583.038 97.0151 583.153 97.5679 582.887 97.9788C582.621 98.3897 582.071 98.5079 581.657 98.2419Z" fill="#F0F0F0"/>
<path d="M654.179 37.6543H631.964V22.7321L638.114 17.0831H654.179V37.6543Z" fill="white"/>
<path d="M631.845 22.7321H637.913L638.114 17.0831L631.845 22.7321Z" fill="#F0F0F0"/>
<path d="M643.153 18.9867C643.153 18.5818 643.481 18.2566 643.883 18.2566C644.288 18.2566 644.613 18.5818 644.613 18.9867C644.613 19.3888 644.288 19.7169 643.883 19.7169C643.481 19.7169 643.153 19.3888 643.153 18.9867Z" fill="#F0F0F0"/>
<path d="M719.096 159.817H696.877V144.892L703.028 139.243H719.096V159.817Z" fill="white"/>
<path d="M696.759 144.892H702.827L703.028 139.243L696.759 144.892Z" fill="#F0F0F0"/>
<path d="M708.066 141.146C708.066 140.744 708.395 140.416 708.797 140.416C709.202 140.416 709.527 140.744 709.527 141.146C709.527 141.548 709.202 141.876 708.797 141.876C708.395 141.876 708.066 141.548 708.066 141.146Z" fill="#F0F0F0"/>
<path d="M729.229 130.2H707.014V115.278L713.164 109.626H729.229V130.2Z" fill="white"/>
<path d="M706.893 115.278H712.963L713.164 109.626L706.893 115.278Z" fill="#F0F0F0"/>
<path d="M718.203 111.529C718.203 111.127 718.531 110.799 718.933 110.799C719.335 110.799 719.664 111.127 719.664 111.529C719.664 111.934 719.335 112.26 718.933 112.26C718.531 112.26 718.203 111.934 718.203 111.529Z" fill="#F0F0F0"/>
<path d="M699.911 130.2H677.693V115.278L683.843 109.626H699.911V130.2Z" fill="#F0F0F0"/>
<path d="M677.575 115.278H683.642L683.843 109.626L677.575 115.278Z" fill="#F0F0F0"/>
<path d="M688.882 111.529C688.882 111.127 689.21 110.799 689.612 110.799C690.017 110.799 690.346 111.127 690.346 111.529C690.346 111.934 690.017 112.26 689.612 112.26C689.21 112.26 688.882 111.934 688.882 111.529Z" fill="#F0F0F0"/>
<path d="M735.501 32.5049H713.283V17.5826L719.433 11.9336H735.501V32.5049Z" fill="#F0F0F0"/>
<path d="M713.164 17.5826H719.232L719.433 11.9335L713.164 17.5826Z" fill="#F0F0F0"/>
<path d="M724.472 13.8343C724.472 13.4323 724.8 13.1041 725.202 13.1041C725.607 13.1041 725.932 13.4323 725.932 13.8343C725.932 14.2393 725.607 14.5645 725.202 14.5645C724.8 14.5645 724.472 14.2393 724.472 13.8343Z" fill="#F0F0F0"/>
<path d="M767.288 536.048C767.288 536.048 768.101 529.689 769.994 525.91C771.886 522.127 783.919 524.532 783.919 524.532C783.919 524.532 786.324 526.597 786.842 536.221L767.288 536.048Z" fill="#5B5B5B"/>
<path d="M726.291 535.961C729.115 534.235 727.507 521.365 727.507 521.365C727.507 521.365 714.333 510.828 712.52 518.896C710.711 526.965 700.005 530.586 693.91 531.573C689.707 532.256 688.403 534.583 688 535.961H726.291Z" fill="#5B5B5B"/>
<path d="M753.58 442.349C753.042 445.303 752.703 447.728 752.612 449.466C751.387 473.346 732.501 527.956 729.123 529.227C723.897 531.198 715.668 527.008 711.362 525.638C709.577 525.069 708.372 523.268 708.771 521.443C718.121 478.461 721.558 416.569 722.81 379.924C723.442 361.47 726.611 348.722 726.611 348.722C726.611 348.722 772.672 336.436 772.944 351.976C773.185 365.727 757.688 419.661 753.58 442.349Z" fill="url(#paint1_linear_118_2710)"/>
<path d="M753.58 442.349L722.811 379.924C723.443 361.47 726.611 348.722 726.611 348.722C726.611 348.722 772.672 336.436 772.944 351.976C773.185 365.727 757.688 419.661 753.58 442.349Z" fill="url(#paint2_linear_118_2710)"/>
<path d="M743.333 352.031L767.679 528.453C767.679 528.453 778.372 531.032 786.688 528.971C786.688 528.971 793.818 435.138 793.226 412.454C792.629 389.77 798.341 351.755 791.922 347.565C785.503 343.371 743.333 352.031 743.333 352.031Z" fill="url(#paint3_linear_118_2710)"/>
<path d="M796.437 349.936C796.555 351.531 795.536 352.981 794 353.427C790.602 354.41 786.687 355.097 779.134 356.661C772.04 358.134 762.495 359.438 750.771 359.513C732.117 359.631 725.058 353.202 725.058 353.202C724.252 353.218 725.481 349.316 726.587 330.763C726.962 324.475 727.322 316.51 727.582 306.44C727.819 297.38 727.977 286.615 727.993 273.847C728.013 258.485 751.798 241.961 752.236 241.961L752.24 241.965C752.24 244.177 755.729 248.26 761.097 248.612C767.473 249.03 775.291 245.859 775.291 242.186C775.291 242.151 786.814 260.617 790.906 280.292C792.976 290.193 792.139 289.928 796.437 349.936Z" fill="white"/>
<path d="M752.236 241.961C752.236 241.961 730.118 241.772 724.797 249.236C719.476 256.7 707.807 296.843 713.894 310.199C719.986 323.559 731.379 304.674 737.703 296.492C744.028 288.309 752.236 241.961 752.236 241.961Z" fill="white"/>
<path d="M752.241 237.738L752.252 240.025C752.252 240.025 751.628 247.173 760.434 248.215C769.239 249.262 775.773 246.88 775.532 241.367C774.738 237.094 774.003 232.711 773.944 229.176C773.924 227.861 774.015 226.471 774.26 224.895L757.198 224.556L752.173 225.377L752.241 237.738Z" fill="#FFB27D"/>
<path d="M752.173 225.377L752.241 237.738C754.05 238.583 756.096 239.096 758.387 239.096C766.229 239.096 771.297 233.346 773.944 229.176C773.924 227.861 774.015 226.471 774.26 224.895L757.198 224.556L752.173 225.377Z" fill="#E2915A"/>
<path d="M775.567 222.151C773.588 232.802 759.841 232.45 753.9 231.783C752.229 231.597 751.178 231.384 751.178 231.384C749.294 230.878 748.239 227.912 747.753 224.023C746.781 216.33 748.006 205.035 749.305 202.148C751.265 197.8 754.95 193.1 768.793 196.493C782.638 199.885 778.107 208.506 775.567 222.151Z" fill="#FFB27D"/>
<path d="M729.85 271.03C729.85 271.03 721.297 289.915 721.546 295.578C721.546 295.578 725.781 295.432 729.85 296.644C736.538 298.634 729.85 271.03 729.85 271.03Z" fill="url(#paint4_linear_118_2710)"/>
<path d="M745.059 192.01C745.059 192.01 751.15 191.54 758.34 188.417C764.171 185.881 771.53 188.673 773.92 189.933C773.857 189.546 773.703 189.021 773.335 188.496C773.335 188.496 774.41 189.258 774.568 190.32C774.679 190.399 774.726 190.458 774.698 190.474C774.698 190.474 775.915 190.253 776.697 190.604C776.697 190.604 776.148 190.525 775.955 190.877C775.935 190.916 775.903 190.948 775.868 190.976C784.965 195.371 785.807 209.746 782.876 213.071C779.356 217.072 774.035 226.127 774.035 226.127C774.035 226.127 773.588 223.955 774.232 220.433C774.872 216.914 771.83 216.914 767.987 215.311C764.143 213.711 767.347 209.229 763.981 206.508C760.619 203.787 748.29 205.386 748.452 203.305C743.874 201.638 745.059 192.48 745.059 192.01Z" fill="#454545"/>
<path d="M778.352 306.406C774.742 320.9 735.693 328.392 726.816 329.916C727.191 323.629 727.551 315.663 727.812 305.593L778.352 306.406Z" fill="url(#paint5_linear_118_2710)"/>
<path d="M769.78 311.118C770.155 311.118 778.463 309.878 779.952 309.135C781.438 308.389 788.244 298.721 783.788 296.241C779.332 293.761 767.367 303.678 767.367 303.678L769.78 311.118Z" fill="#FFB27D"/>
<path d="M719.018 314.836C719.018 314.836 751.15 316.581 772.715 311.964C772.715 311.964 773.26 305.737 766.485 302.968C766.485 302.968 732.872 295.848 724.797 297.83C716.723 299.813 719.018 314.836 719.018 314.836Z" fill="white"/>
<path d="M792.814 289.624C786.146 297.664 777.428 304.228 767.817 305.764H767.813C767.734 305.642 764.905 301.345 765.434 295.034C765.679 292.112 766.647 288.759 768.934 285.185C769.638 284.087 770.266 282.804 770.823 281.378C776.073 267.99 775.291 242.186 775.291 242.186C775.291 242.186 797.579 244.52 804.523 254.441C808.778 260.514 803.354 276.915 792.814 289.624Z" fill="white"/>
<path d="M753.9 231.783C752.229 231.597 751.178 231.384 751.178 231.384C749.294 230.878 748.239 227.912 747.753 224.022C751.285 224.895 752.904 227.624 753.58 228.785C753.884 229.31 753.947 230.483 753.9 231.783Z" fill="#E2915A"/>
<path d="M744.921 237.805C744.921 237.805 737.225 225.108 743.21 224.556C749.195 224.003 751.601 228.055 752.466 229.539C753.331 231.028 752.241 237.738 752.241 237.738L744.921 237.805Z" fill="#FFB27D"/>
<path d="M774.03 294.608C773.793 296.215 773.312 297.696 772.719 299.015C770.839 303.189 767.817 305.764 767.817 305.764H767.813C747.824 296.74 743.779 265.767 743.099 248.746C742.827 241.906 743.099 237.317 743.099 237.317C752.118 234.331 754.654 239.521 754.654 239.521C754.654 239.521 765.3 264.835 770.823 281.378C772.936 287.709 774.299 292.756 774.03 294.608Z" fill="white"/>
<path d="M793.044 288.777C786.376 296.818 777.657 303.381 768.046 304.918H768.042C748.053 295.894 744.008 264.92 743.329 247.899C743.329 247.899 752.79 282.198 765.664 294.188C767.991 296.356 770.432 297.793 772.948 298.168C772.948 298.168 789.184 293.583 792.589 289.263C792.83 288.951 792.981 288.797 793.044 288.777Z" fill="url(#paint6_linear_118_2710)"/>
<path d="M139.615 266.593C138.364 264.181 166.916 255.493 167.368 279.305C167.368 279.305 220.854 277.989 195.316 248.187C186.475 237.869 187.384 229.339 187.649 221.398C187.918 213.453 182.142 190.372 162.345 192.696C162.345 192.696 157.161 190.588 150.691 193.947C135.976 201.576 103.014 275.373 139.615 266.593Z" fill="#2C1919"/>
<path d="M227.058 293.213C227.058 293.213 230.539 287.915 233.345 287.812C236.152 287.708 241.347 286.253 240.932 287.292C240.516 288.331 237.295 288.435 236.983 289.058C236.671 289.681 241.763 290.616 243.218 290.72C244.673 290.824 248.102 290.72 247.998 291.447C247.894 292.175 241.817 295.187 237.53 294.772C233.241 294.356 227.941 296.018 227.941 296.018L227.058 293.213Z" fill="#FFB27D"/>
<path d="M176.707 294.929C176.707 294.929 178.6 298.673 182.032 302.978C186.169 308.157 192.548 314.143 200.558 315.324C204.383 315.886 208.124 315.067 211.563 313.539C211.572 313.535 211.576 313.535 211.576 313.535C221.303 309.218 228.617 299.292 228.617 299.292C230.331 294.618 227.526 291.447 227.526 291.447C227.526 291.447 207.884 295.864 206.014 294.929C204.143 293.994 193.231 262.565 190.634 258.617C188.034 254.67 179.18 252.619 179.18 252.619L176.707 294.929Z" fill="white"/>
<path d="M182.032 302.978C186.169 308.157 192.548 314.143 200.558 315.324C204.383 315.886 208.124 315.067 211.563 313.539C211.183 313.589 201.468 314.79 197.596 307.864C193.646 300.797 189.374 289.578 183.507 293.317C180.975 294.929 181.088 298.942 182.032 302.978Z" fill="url(#paint7_linear_118_2710)"/>
<path d="M103.429 506.882C103.429 506.882 97.4354 512.353 98.605 516.235C99.7746 520.121 105.183 522.711 105.914 527.462C106.645 532.21 109.568 534.799 112.2 534.799C114.831 534.799 124.744 534.799 124.744 534.799C124.744 534.799 126.681 531.456 122.003 530.452C117.325 529.444 115.562 523.865 115.854 518.682C116.147 513.504 115.415 506.598 115.415 506.598L105.475 504.293L103.429 506.882Z" fill="#5B5B5B"/>
<path d="M154.156 509.206C154.156 509.206 152 532.368 154.631 533.664L188.305 533.595C188.305 533.595 188.305 529.709 182.896 528.847C177.488 527.982 167.986 524.819 166.378 517.767C164.77 510.714 154.156 509.206 154.156 509.206Z" fill="#5B5B5B"/>
<path d="M130.16 343.022C137.089 327.486 141.329 323.027 140.52 318.206C139.917 314.616 142.354 251.292 142.354 251.292C143.176 251.038 144.825 250.807 145.726 250.607C148.568 249.976 150.921 247.983 151.9 245.24C153.079 241.939 154.017 237.064 153.995 230.951L154.883 231.128L169.808 234.083C169.808 234.083 169.468 238.776 169.458 243.201C169.458 243.239 169.458 243.274 169.458 243.313C169.439 247.152 171.961 250.542 175.653 251.607C177.538 252.154 179.178 252.619 179.178 252.619C179.178 252.619 184.658 268.259 185.705 284.33C186.752 300.4 145.356 318.678 177.01 338.646C156.231 342.928 126.332 351.605 130.16 343.022Z" fill="#FFB27D"/>
<path d="M169.808 234.083C169.808 234.083 169.468 238.776 169.458 243.201C161.106 242.966 156.692 235.348 154.883 231.128L169.808 234.083Z" fill="#E8945B"/>
<path d="M172.597 238.269C172.597 238.269 152.837 238.596 152.823 226.292C152.81 213.988 150.25 205.743 162.866 205.012C175.482 204.285 177.938 208.978 178.942 213.084C179.946 217.189 177.737 237.868 172.597 238.269Z" fill="#FFB27D"/>
<path d="M171.866 204.712C171.866 204.712 166.455 219.147 158.152 221.282C149.849 223.418 146.247 221.194 146.247 221.194C146.247 221.194 152.616 216.134 153.938 207.305C153.938 207.305 167.784 197.84 171.866 204.712Z" fill="#2C1919"/>
<path d="M170.524 205.881C170.524 205.881 174.537 207.382 176.188 210.306C177.803 213.168 179.178 216.958 178.859 221.606C178.859 221.606 182.935 211.791 178.354 206.243C173.497 200.356 170.524 205.881 170.524 205.881Z" fill="#2C1919"/>
<path d="M168.297 230.635C168.297 230.635 169.661 232.432 172.389 232.301C174.586 232.197 175.434 230.293 175.434 230.293C175.434 230.293 171.397 229.323 168.297 230.635Z" fill="#EBF3FA"/>
<path d="M128.253 279.305C128.253 279.305 127.751 286.376 128.253 294.864C128.586 300.489 134.279 308.026 135.086 309.888C137.113 314.563 139.398 315.324 139.398 315.324L157.078 319.656L163.295 321.176L182.899 315.324C182.899 315.324 191.828 290.409 188.243 276.381C184.657 262.357 179.18 252.619 179.18 252.619C179.18 252.619 163.183 268.274 142.353 251.288L128.253 279.305Z" fill="white"/>
<path d="M133.428 297.161C133.761 302.786 134.279 308.026 135.086 309.888C137.113 314.563 139.398 315.324 139.398 315.324L157.078 319.656L164.757 317.398C164.757 317.398 139.124 313.516 141.964 291.467L133.428 297.161Z" fill="#F2CCAA"/>
<path d="M182.419 321.176C182.419 321.176 192.356 351.073 192.994 361.25C193.632 371.427 173.999 505.847 173.209 510.537C172.464 514.958 166.785 517.775 166.785 517.775C166.785 517.775 164.173 519.264 160.444 518.248C155.271 516.835 153.637 515.144 153.637 515.144C153.637 515.144 145.902 419.28 150.689 385.035C155.475 350.791 155.531 321.176 155.531 321.176H182.419Z" fill="url(#paint8_linear_118_2710)"/>
<path d="M140.52 318.206C140.52 318.206 125.711 338.07 124.331 351.498C122.95 364.925 122.165 412.09 119.223 425.183C116.282 438.272 105.475 463.465 105.475 504.293C105.475 504.293 106.598 506.632 110.067 507.879C111.176 508.279 112.662 508.668 114.105 508.995C116.965 509.653 119.9 508.256 121.206 505.628C128.511 490.923 151.784 443.493 152.977 433.647C153.822 426.68 161.17 380.565 177.199 353.506C181.047 347.012 174.837 321.176 174.837 321.176L140.52 318.206Z" fill="url(#paint9_linear_118_2710)"/>
<path d="M168.736 230.966C168.736 230.966 169.078 232.417 172.687 232.194C172.687 232.194 175.717 232.005 175.624 230.412C175.624 230.412 172.686 229.277 168.736 230.966Z" fill="white"/>
<path d="M183.203 314.443C183.203 314.443 179.306 317.525 171.563 317.679C162.315 317.867 139.399 315.324 139.399 315.324C139.399 315.324 138.381 318.168 138.422 321.168C138.422 321.168 166.41 328.228 182.627 322.2C182.627 322.2 184.718 318.268 183.203 314.443Z" fill="#233862"/>
<path d="M170.961 320.872C170.961 322.734 172.226 324.25 173.782 324.25C175.338 324.25 176.603 322.734 176.603 320.872C176.603 319.01 175.338 317.494 173.782 317.494C172.226 317.494 170.961 319.01 170.961 320.872ZM169.562 320.872C169.562 318.241 171.455 316.098 173.782 316.098C176.109 316.098 178.002 318.241 178.002 320.872C178.002 323.504 176.109 325.647 173.782 325.647C171.455 325.647 169.562 323.504 169.562 320.872Z" fill="white"/>
<path d="M109.269 319.906L137.944 344.868L172.122 305.629L143.447 280.667L109.269 319.906Z" fill="url(#paint10_linear_118_2710)"/>
<path d="M145.867 319.999C145.867 319.999 156.373 321.226 156.34 323.719C156.307 326.212 153.722 331.333 152.424 331.564C151.127 331.791 143.874 324.635 143.874 324.635L145.867 319.999Z" fill="#FFB27D"/>
<path d="M142.354 251.288C142.354 251.288 128.327 252.273 122.95 265.339C117.573 278.409 107.371 300.346 107.371 304.036C107.371 307.73 113.07 319.106 143.675 325.647C143.675 325.647 146.84 322.319 146.648 319.687C146.648 319.687 127.544 303.282 127.595 301.362C127.692 297.738 130.727 292.948 147.501 276.177C152.061 271.614 142.354 251.288 142.354 251.288Z" fill="white"/>
<path d="M256.646 108.29H185.147C181.865 108.29 179.178 105.604 179.178 102.323V33.3353C179.178 30.0544 181.865 27.3687 185.147 27.3687H256.646C259.928 27.3687 262.614 30.0544 262.614 33.3353V102.323C262.614 105.604 259.928 108.29 256.646 108.29Z" fill="#E2E2E2"/>
<path d="M253.549 104.784H188.243C185.247 104.784 182.795 102.333 182.795 99.3373V36.3261C182.795 33.3253 185.247 30.8747 188.243 30.8747H253.549C256.546 30.8747 259.002 33.3253 259.002 36.3261V99.3373C259.002 102.333 256.546 104.784 253.549 104.784Z" fill="#F0F0F0"/>
<path d="M219.17 38.2615C219.17 37.3062 219.941 36.531 220.896 36.531C221.852 36.531 222.627 37.3062 222.627 38.2615C222.627 39.2117 221.852 39.9869 220.896 39.9869C219.941 39.9869 219.17 39.2117 219.17 38.2615Z" fill="#C4C4C4"/>
<path d="M233.113 40.7022C233.578 39.867 234.629 39.5669 235.464 40.032C236.3 40.4971 236.6 41.5474 236.135 42.3826C235.674 43.2128 234.619 43.5129 233.783 43.0528C232.953 42.5877 232.653 41.5374 233.113 40.7022Z" fill="#C4C4C4"/>
<path d="M245.065 50.1896C245.865 49.6744 246.936 49.9045 247.451 50.7097C247.971 51.5099 247.736 52.5802 246.936 53.0953C246.135 53.6104 245.065 53.3804 244.55 52.5802C244.029 51.78 244.259 50.7097 245.065 50.1896Z" fill="#C4C4C4"/>
<path d="M250.983 64.8784C251.933 64.8784 252.709 65.6536 252.709 66.6088C252.709 67.5641 251.933 68.3343 250.983 68.3343C250.027 68.3343 249.252 67.5641 249.252 66.6088C249.252 65.6536 250.027 64.8784 250.983 64.8784Z" fill="#C4C4C4"/>
<path d="M247.961 81.9227C248.632 82.5979 248.632 83.6932 247.961 84.3683C247.286 85.0435 246.19 85.0435 245.515 84.3683C244.84 83.6932 244.84 82.5979 245.515 81.9227C246.19 81.2526 247.286 81.2526 247.961 81.9227Z" fill="#C4C4C4"/>
<path d="M237.105 92.8055C237.78 93.4757 237.78 94.5709 237.105 95.2461C236.43 95.9213 235.334 95.9213 234.664 95.2461C233.988 94.5709 233.988 93.4757 234.664 92.8055C235.334 92.1303 236.43 92.1303 237.105 92.8055Z" fill="#C4C4C4"/>
<path d="M219.17 98.412C219.17 97.4567 219.941 96.6815 220.896 96.6815C221.852 96.6815 222.627 97.4567 222.627 98.412C222.627 99.3622 221.852 100.137 220.896 100.137C219.941 100.137 219.17 99.3622 219.17 98.412Z" fill="#C4C4C4"/>
<path d="M208.624 40.7022C208.159 39.867 207.108 39.5669 206.273 40.032C205.438 40.4971 205.137 41.5474 205.603 42.3826C206.068 43.2128 207.119 43.5129 207.954 43.0528C208.784 42.5877 209.09 41.5374 208.624 40.7022Z" fill="#C4C4C4"/>
<path d="M196.678 50.1896C195.872 49.6744 194.802 49.9045 194.287 50.7097C193.771 51.5099 194.001 52.5802 194.802 53.0953C195.602 53.6104 196.673 53.3804 197.193 52.5802C197.709 51.78 197.478 50.7097 196.678 50.1896Z" fill="#C4C4C4"/>
<path d="M190.76 64.8784C189.804 64.8784 189.029 65.6536 189.029 66.6088C189.029 67.5641 189.804 68.3343 190.76 68.3343C191.71 68.3343 192.486 67.5641 192.486 66.6088C192.486 65.6536 191.71 64.8784 190.76 64.8784Z" fill="#C4C4C4"/>
<path d="M193.781 81.9227C193.106 82.5979 193.106 83.6932 193.781 84.3683C194.457 85.0435 195.547 85.0435 196.223 84.3683C196.898 83.6932 196.898 82.5979 196.223 81.9227C195.547 81.2526 194.457 81.2526 193.781 81.9227Z" fill="#C4C4C4"/>
<path d="M204.632 92.8055C203.957 93.4757 203.957 94.5709 204.632 95.2461C205.308 95.9213 206.403 95.9213 207.079 95.2461C207.754 94.5709 207.754 93.4757 207.079 92.8055C206.403 92.1303 205.308 92.1303 204.632 92.8055Z" fill="#C4C4C4"/>
<path d="M220.431 66.6088C220.431 65.6536 221.206 64.8784 222.157 64.8784C223.113 64.8784 223.888 65.6536 223.888 66.6088C223.888 67.5641 223.113 68.3343 222.157 68.3343C221.206 68.3343 220.431 67.5641 220.431 66.6088Z" fill="#C4C4C4"/>
<path d="M222.397 66.6089H221.922V45.0233H222.397V66.6089Z" fill="#C4C4C4"/>
<path d="M222.377 67.1339L221.502 66.0187L232.953 57.0363L233.823 58.1517L222.377 67.1339Z" fill="#C4C4C4"/>
<defs>
<linearGradient id="paint0_linear_118_2710" x1="426.243" y1="537.171" x2="473" y2="-11.0001" gradientUnits="userSpaceOnUse">
<stop stop-color="#E3E3E3"/>
<stop offset="0.29545" stop-color="#EBEBEB" stop-opacity="0.375243"/>
<stop offset="1" stop-color="#F0F0F0" stop-opacity="0"/>
</linearGradient>
<linearGradient id="paint1_linear_118_2710" x1="740.821" y1="529.745" x2="740.821" y2="344.112" gradientUnits="userSpaceOnUse">
<stop stop-color="#B88543"/>
<stop offset="0.5" stop-color="#D3A870"/>
<stop offset="1" stop-color="#F1D3AC"/>
</linearGradient>
<linearGradient id="paint2_linear_118_2710" x1="750.5" y1="438" x2="730.5" y2="382.5" gradientUnits="userSpaceOnUse">
<stop stop-color="#A98556"/>
<stop offset="1" stop-color="#DABF9A"/>
</linearGradient>
<linearGradient id="paint3_linear_118_2710" x1="769.166" y1="529.77" x2="769.166" y2="346.418" gradientUnits="userSpaceOnUse">
<stop stop-color="#B9915C"/>
<stop offset="0.526042" stop-color="#EBC189"/>
<stop offset="1" stop-color="#F1D3AC"/>
</linearGradient>
<linearGradient id="paint4_linear_118_2710" x1="727.182" y1="296.747" x2="727.182" y2="271.03" gradientUnits="userSpaceOnUse">
<stop stop-color="#077E86"/>
<stop offset="1" stop-color="#80D8DE"/>
</linearGradient>
<linearGradient id="paint5_linear_118_2710" x1="730" y1="329.916" x2="765.5" y2="311" gradientUnits="userSpaceOnUse">
<stop stop-color="#077E86"/>
<stop offset="1" stop-color="#80D8DE"/>
</linearGradient>
<linearGradient id="paint6_linear_118_2710" x1="768.186" y1="304.918" x2="748.5" y2="253.5" gradientUnits="userSpaceOnUse">
<stop stop-color="#077E86"/>
<stop offset="1" stop-color="#80D8DE"/>
</linearGradient>
<linearGradient id="paint7_linear_118_2710" x1="196.489" y1="315.502" x2="189" y2="292.573" gradientUnits="userSpaceOnUse">
<stop stop-color="#077E86"/>
<stop offset="1" stop-color="#80D8DE"/>
</linearGradient>
<linearGradient id="paint8_linear_118_2710" x1="171.068" y1="518.603" x2="181" y2="355.5" gradientUnits="userSpaceOnUse">
<stop stop-color="#009BA6"/>
<stop offset="0.504506" stop-color="#077E86"/>
<stop offset="1" stop-color="#80D8DE"/>
</linearGradient>
<linearGradient id="paint9_linear_118_2710" x1="112" y1="512" x2="141.966" y2="318.206" gradientUnits="userSpaceOnUse">
<stop stop-color="#005055" stop-opacity="0.98"/>
<stop offset="0.513339" stop-color="#077E86"/>
<stop offset="1" stop-color="#80D8DE"/>
</linearGradient>
<linearGradient id="paint10_linear_118_2710" x1="140.696" y1="344.868" x2="140.696" y2="280.667" gradientUnits="userSpaceOnUse">
<stop stop-color="#BC6909"/>
<stop offset="0.567708" stop-color="#F2B56E"/>
<stop offset="1" stop-color="#EECBA3"/>
</linearGradient>
</defs>
</svg>
